G04 ================== begin FILE IDENTIFICATION RECORD ==================*
G04 Layout Name:  OMAP-L138_C6748_LCDK_PCB-004_r4a.brd*
G04 Film Name:    OMAP_lyr6*
G04 File Format:  Gerber RS274X*
G04 File Origin:  Cadence Allegro 16.6-S041*
G04 Origin Date:  Thu Feb 26 11:59:40 2015*
G04 *
G04 Layer:  BOARD GEOMETRY/TOOLING_CORNERS*
G04 Layer:  VIA CLASS/BOTTOM*
G04 Layer:  PIN/BOTTOM*
G04 Layer:  ETCH/BOTTOM*
G04 *
G04 Offset:    (0.00 0.00)*
G04 Mirror:    No*
G04 Mode:      Positive*
G04 Rotation:  0*
G04 FullContactRelief:  No*
G04 UndefLineWidth:     6.00*
G04 ================== end FILE IDENTIFICATION RECORD ====================*
%FSLAX25Y25*MOIN*%
%IR0*IPPOS*OFA0.00000B0.00000*MIA0B0*SFA1.00000B1.00000*%
%ADD61R,.105X.063*%
%ADD53O,.08X.135*%
%ADD10C,.04*%
%ADD42C,.05*%
%ADD57C,.06*%
%ADD33C,.024*%
%ADD27C,.07*%
%ADD23C,.025*%
%ADD12C,.08*%
%ADD17C,.045*%
%ADD14C,.018*%
%ADD59C,.055*%
%ADD55C,.065*%
%ADD18C,.056*%
%ADD44R,.05X.05*%
%ADD43C,.075*%
%ADD56R,.06X.06*%
%ADD34C,.067*%
%ADD26R,.07X.07*%
%ADD16C,.077*%
%ADD58R,.055X.055*%
%ADD41O,.04X.05*%
%ADD21R,.04X.032*%
%ADD13R,.02X.025*%
%ADD19R,.025X.02*%
%ADD15C,.1*%
%ADD49R,.02X.035*%
%ADD25R,.06X.05*%
%ADD20R,.022X.024*%
%ADD47R,.04X.035*%
%ADD35R,.025X.05*%
%ADD29R,.05X.06*%
%ADD46R,.032X.035*%
%ADD40R,.025X.05*%
%ADD11C,.23*%
%ADD52R,.044X.06*%
%ADD28R,.06X.063*%
%ADD24C,.16*%
%ADD54R,.08X.045*%
%ADD45C,.125*%
%ADD51R,.036X.018*%
%ADD48R,.047X.043*%
%ADD22C,.145*%
%ADD60C,.128*%
%ADD31R,.075X.062*%
%ADD30R,.043X.069*%
%ADD50R,.035X.079*%
%ADD38R,.0751X.0554*%
%ADD37R,.0554X.0751*%
%ADD39R,.059X.078*%
%ADD36R,.0554X.0947*%
%ADD32R,.01398X.06098*%
%ADD62C,.01*%
%ADD63C,.03*%
%ADD64C,.012*%
%ADD65C,.033*%
%ADD66C,.015*%
%ADD67C,.035*%
%ADD68C,.005*%
%ADD69C,.00375*%
%ADD70C,.00475*%
%ADD71C,.02604*%
%ADD72C,.06804*%
G75*
%LPD*%
G75*
G36*
G01X-5000Y-15000D02*
Y-5000D01*
X-15000D01*
Y0D01*
X0D01*
Y-15000D01*
X-5000D01*
G37*
G36*
G01X-15000Y365000D02*
X-5000D01*
Y375000D01*
X0D01*
Y360000D01*
X-15000D01*
Y365000D01*
G37*
G36*
G01X13689Y91018D02*
X11028Y93677D01*
X8141Y90850D01*
X11028Y88023D01*
X13689Y90682D01*
G03Y91018I-168J168D01*
G37*
G36*
G01X11962Y77150D02*
X8200Y77148D01*
X8158Y73108D01*
X12198Y73150D01*
X12200Y76912D01*
G03X11962Y77150I-238J0D01*
G37*
G36*
G01X19661Y251668D02*
X18414Y252913D01*
X16941Y251500D01*
X18414Y250087D01*
X19661Y251332D01*
G03Y251668I-168J168D01*
G37*
G36*
G01X10000Y253262D02*
X10002Y251500D01*
X12042Y251458D01*
X12000Y253498D01*
X10238Y253500D01*
G03X10000Y253262I0J-238D01*
G37*
G36*
G01X10238Y264500D02*
X12000Y264502D01*
X12042Y266542D01*
X10002Y266500D01*
X10000Y264738D01*
G03X10238Y264500I238J0D01*
G37*
G36*
G01X19661Y256668D02*
X18414Y257913D01*
X16941Y256500D01*
X18414Y255087D01*
X19661Y256332D01*
G03Y256668I-168J168D01*
G37*
G36*
G01X10238Y269500D02*
X12000Y269502D01*
X12042Y271542D01*
X10002Y271500D01*
X10000Y269738D01*
G03X10238Y269500I238J0D01*
G37*
G36*
G01X38100Y30663D02*
X38102Y30000D01*
X39042Y29958D01*
X39000Y30898D01*
X38338Y30900D01*
G03X38100Y30663I0J-238D01*
G37*
G36*
G01X26105Y38168D02*
X25635Y38635D01*
X24941Y38000D01*
X25635Y37365D01*
X26105Y37832D01*
G03Y38168I-168J168D01*
G37*
G36*
G01X38100Y34600D02*
X38102Y33937D01*
X39042Y33895D01*
X39000Y34836D01*
X38338Y34838D01*
G03X38100Y34600I0J-238D01*
G37*
G36*
G01X30038Y86850D02*
X33800Y86852D01*
X33842Y90892D01*
X29802Y90850D01*
X29800Y87088D01*
G03X30038Y86850I238J0D01*
G37*
G36*
G01X28311Y72982D02*
X30972Y70323D01*
X33859Y73150D01*
X30972Y75977D01*
X28311Y73318D01*
G03Y72982I168J-168D01*
G37*
G36*
G01X34832Y156105D02*
X34365Y155635D01*
X35000Y154941D01*
X35635Y155635D01*
X35168Y156105D01*
G03X34832I-168J-168D01*
G37*
G36*
G01X39100Y188662D02*
X39102Y188000D01*
X40042Y187958D01*
X40000Y188898D01*
X39338Y188900D01*
G03X39100Y188662I0J-238D01*
G37*
G36*
G01X39338Y200100D02*
X40000Y200102D01*
X40042Y201042D01*
X39102Y201000D01*
X39100Y200338D01*
G03X39338Y200100I238J0D01*
G37*
G36*
G01X38920Y216832D02*
X39390Y216365D01*
X40084Y217000D01*
X39390Y217635D01*
X38920Y217168D01*
G03Y216832I168J-168D01*
G37*
G36*
G01X39100Y212662D02*
X39102Y212000D01*
X40042Y211958D01*
X40000Y212898D01*
X39338Y212900D01*
G03X39100Y212662I0J-238D01*
G37*
G36*
G01X116000Y87000D02*
X115000Y88000D01*
Y111000D01*
X111400Y114600D01*
Y125400D01*
X114000Y128000D01*
X115000D01*
Y222000D01*
X113000Y224000D01*
X52000D01*
X50000Y222000D01*
Y215000D01*
X49000Y214000D01*
X45000D01*
X44000Y215000D01*
Y224000D01*
X43141Y224859D01*
X43195Y224983D01*
G03X40848Y226107I-1195J518D01*
G01X40792Y226000D01*
X33500D01*
X29000Y230500D01*
Y232000D01*
X30500D01*
X32182Y230318D01*
G03X33318Y229182I2318J1182D01*
G01X33500Y229000D01*
X33778D01*
X33804Y228993D01*
G03X35196I696J2507D01*
G01X35222Y229000D01*
X36000D01*
X38000Y231000D01*
Y238000D01*
X40000Y240000D01*
X48000D01*
X49000Y239000D01*
Y237000D01*
X138298D01*
Y236998D01*
X141702D01*
Y237000D01*
X158298D01*
Y236998D01*
X161702D01*
Y237000D01*
X162000D01*
X163000Y238000D01*
Y253000D01*
X165000Y255000D01*
X173000D01*
Y273000D01*
X171000Y275000D01*
X153000D01*
Y269000D01*
X152000Y268000D01*
X134000D01*
Y272000D01*
X143000Y281000D01*
X174000D01*
X179000Y276000D01*
Y236089D01*
G02X178317Y235806I-400J0D01*
G01X177062Y237062D01*
G03X174938Y234938I-1062J-1062D01*
G01X175929Y233948D01*
G02X175729Y233274I-283J-283D01*
G03X174782Y231541I271J-1273D01*
G02X174407Y231000I-374J-141D01*
G01X127000D01*
X125000Y229000D01*
Y201000D01*
X126000Y200000D01*
X134000D01*
X135000Y201000D01*
X216000D01*
X220500Y196500D01*
Y189000D01*
X219500Y188000D01*
X216500D01*
X215500Y189000D01*
Y195500D01*
X214000Y197000D01*
X185000D01*
X181000Y193000D01*
X164000D01*
X163000Y192000D01*
Y187000D01*
X162000Y186000D01*
X155000D01*
X154000Y187000D01*
Y191000D01*
X153000Y192000D01*
X144500D01*
X143500Y191000D01*
Y187000D01*
X142500Y186000D01*
X135000D01*
X134000Y187000D01*
Y192000D01*
X123000D01*
X122000Y191000D01*
Y188191D01*
X121994Y188167D01*
G03Y187433I1456J-367D01*
G01X122000Y187409D01*
Y170866D01*
X121994Y170842D01*
G03Y170108I1456J-367D01*
G01X122000Y170084D01*
Y166141D01*
X121994Y166117D01*
G03Y165383I1456J-367D01*
G01X122000Y165359D01*
Y161416D01*
X121994Y161392D01*
G03Y160658I1456J-367D01*
G01X122000Y160634D01*
Y151966D01*
X121994Y151942D01*
G03Y151208I1456J-367D01*
G01X122000Y151184D01*
Y145666D01*
X121994Y145642D01*
G03Y144908I1456J-367D01*
G01X122000Y144884D01*
Y139366D01*
X121994Y139342D01*
G03Y138608I1456J-367D01*
G01X122000Y138584D01*
Y133066D01*
X121994Y133042D01*
G03Y132308I1456J-367D01*
G01X122000Y132284D01*
Y125191D01*
X121994Y125167D01*
G03X121978Y124504I1456J-367D01*
G01X121999Y124399D01*
X121300Y123700D01*
X117200D01*
X116000Y122500D01*
Y117400D01*
X117600Y115800D01*
X120800D01*
X122000Y114600D01*
Y88502D01*
X121622D01*
X120701Y89422D01*
X118000D01*
G03X116556Y87510I0J-1501D01*
G02X116171Y87000I-385J-110D01*
G01X116000D01*
G37*
G36*
G01X27500Y243262D02*
X27502Y241500D01*
X29542Y241458D01*
X29500Y243498D01*
X27738Y243500D01*
G03X27500Y243262I0J-238D01*
G37*
G36*
G01Y268262D02*
X27502Y266500D01*
X29542Y266458D01*
X29500Y268498D01*
X27738Y268500D01*
G03X27500Y268262I0J-238D01*
G37*
G36*
G01Y258262D02*
X27502Y256500D01*
X29542Y256458D01*
X29500Y258498D01*
X27738Y258500D01*
G03X27500Y258262I0J-238D01*
G37*
G36*
G01X27895Y296832D02*
X28365Y296365D01*
X29059Y297000D01*
X28365Y297635D01*
X27895Y297168D01*
G03Y296832I168J-168D01*
G37*
G36*
G01X26105Y343168D02*
X25635Y343635D01*
X24941Y343000D01*
X25635Y342365D01*
X26105Y342832D01*
G03Y343168I-168J168D01*
G37*
G36*
G01X24832Y344105D02*
X24365Y343635D01*
X25000Y342941D01*
X25635Y343635D01*
X25168Y344105D01*
G03X24832I-168J-168D01*
G37*
G36*
G01X28337Y352100D02*
X29000Y352102D01*
X29042Y353042D01*
X28100Y353000D01*
Y352338D01*
G03X28337Y352100I238J0D01*
G37*
G36*
G01X45400Y18162D02*
X46063Y18164D01*
X46105Y19105D01*
X45164Y19063D01*
X45162Y18400D01*
G03X45400Y18162I238J0D01*
G37*
G36*
G01X49832Y156105D02*
X49365Y155635D01*
X50000Y154941D01*
X50635Y155635D01*
X50168Y156105D01*
G03X49832I-168J-168D01*
G37*
G36*
G01X44832Y166105D02*
X44365Y165635D01*
X45000Y164941D01*
X45635Y165635D01*
X45168Y166105D01*
G03X44832I-168J-168D01*
G37*
G36*
G01X45168Y163895D02*
X45635Y164365D01*
X45000Y165059D01*
X44365Y164365D01*
X44832Y163895D01*
G03X45168I168J168D01*
G37*
G36*
G01X43662Y185900D02*
X43000Y185898D01*
X42958Y184958D01*
X43898Y185000D01*
X43900Y185662D01*
G03X43662Y185900I-238J0D01*
G37*
G36*
G01X54662Y173900D02*
X54000Y173898D01*
X53958Y172958D01*
X54898Y173000D01*
X54900Y173662D01*
G03X54662Y173900I-238J0D01*
G37*
G36*
G01X42832Y189105D02*
X42365Y188635D01*
X43000Y187941D01*
X43635Y188635D01*
X43168Y189105D01*
G03X42832I-168J-168D01*
G37*
G36*
G01X49832Y174105D02*
X49365Y173635D01*
X50000Y172941D01*
X50635Y173635D01*
X50168Y174105D01*
G03X49832I-168J-168D01*
G37*
G36*
G01X43915Y195328D02*
X43898Y195990D01*
X42958Y196025D01*
X43000Y195086D01*
X43678Y195084D01*
G03X43915Y195328I0J237D01*
G37*
G36*
G01X40168Y196848D02*
X40635Y197318D01*
X40000Y198012D01*
X39365Y197318D01*
X39832Y196848D01*
G03X40168I168J168D01*
G37*
G36*
G01X44105Y208168D02*
X43635Y208635D01*
X42941Y208000D01*
X43635Y207365D01*
X44105Y207832D01*
G03Y208168I-168J168D01*
G37*
G36*
G01X57042Y216338D02*
X57040Y217000D01*
X56100Y217042D01*
X56142Y216102D01*
X56804Y216100D01*
G03X57042Y216338I0J238D01*
G37*
G36*
G01X42100Y212662D02*
X42102Y212000D01*
X43042Y211958D01*
X43000Y212898D01*
X42338Y212900D01*
G03X42100Y212662I0J-238D01*
G37*
G36*
G01X53168Y215895D02*
X53635Y216365D01*
X53000Y217059D01*
X52365Y216365D01*
X52832Y215895D01*
G03X53168I168J168D01*
G37*
G36*
G01X47900Y266338D02*
Y267000D01*
X46958Y267042D01*
X47000Y266102D01*
X47663Y266100D01*
G03X47900Y266338I0J237D01*
G37*
G36*
G01Y281338D02*
Y282000D01*
X46958Y282042D01*
X47000Y281102D01*
X47663Y281100D01*
G03X47900Y281338I0J237D01*
G37*
G36*
G01X43337Y281100D02*
X44000Y281102D01*
X44042Y282042D01*
X43100Y282000D01*
Y281338D01*
G03X43337Y281100I238J0D01*
G37*
G36*
G01X39895Y281832D02*
X40365Y281365D01*
X41059Y282000D01*
X40365Y282635D01*
X39895Y282168D01*
G03Y281832I168J-168D01*
G37*
G36*
G01X62105Y23168D02*
X61635Y23635D01*
X60941Y23000D01*
X61635Y22365D01*
X62105Y22832D01*
G03Y23168I-168J168D01*
G37*
G36*
G01X61900Y29337D02*
X61898Y30000D01*
X60958Y30042D01*
X61000Y29102D01*
X61662Y29100D01*
G03X61900Y29337I0J238D01*
G37*
G36*
G01X61640Y34898D02*
X60978Y34835D01*
X60960Y33893D01*
X61898Y33937D01*
X61900Y34662D01*
G03X61640Y34898I-237J0D01*
G37*
G36*
G01X60832Y39105D02*
X60365Y38635D01*
X61000Y37941D01*
X61635Y38635D01*
X61168Y39105D01*
G03X60832I-168J-168D01*
G37*
G36*
G01X76100Y119662D02*
X76102Y119000D01*
X77042Y118958D01*
X77000Y119898D01*
X76338Y119900D01*
G03X76100Y119662I0J-238D01*
G37*
G36*
G01X75900Y134338D02*
X75898Y135000D01*
X74958Y135042D01*
X75000Y134102D01*
X75662Y134100D01*
G03X75900Y134338I0J238D01*
G37*
G36*
G01X59832Y136105D02*
X59365Y135635D01*
X60000Y134941D01*
X60635Y135635D01*
X60168Y136105D01*
G03X59832I-168J-168D01*
G37*
G36*
G01X64832Y156105D02*
X64365Y155635D01*
X65000Y154941D01*
X65635Y155635D01*
X65168Y156105D01*
G03X64832I-168J-168D01*
G37*
G36*
G01X74832Y166105D02*
X74365Y165635D01*
X75000Y164941D01*
X75635Y165635D01*
X75168Y166105D01*
G03X74832I-168J-168D01*
G37*
G36*
G01X75168Y163895D02*
X75635Y164365D01*
X75000Y165059D01*
X74365Y164365D01*
X74832Y163895D01*
G03X75168I168J168D01*
G37*
G36*
G01X60168D02*
X60635Y164365D01*
X60000Y165059D01*
X59365Y164365D01*
X59832Y163895D01*
G03X60168I168J168D01*
G37*
G36*
G01X76832Y174105D02*
X76365Y173635D01*
X77000Y172941D01*
X77635Y173635D01*
X77168Y174105D01*
G03X76832I-168J-168D01*
G37*
G36*
G01X64832D02*
X64365Y173635D01*
X65000Y172941D01*
X65635Y173635D01*
X65168Y174105D01*
G03X64832I-168J-168D01*
G37*
G36*
G01X73895Y204832D02*
X74365Y204365D01*
X75059Y205000D01*
X74365Y205635D01*
X73895Y205168D01*
G03Y204832I168J-168D01*
G37*
G36*
G01X69900Y216338D02*
X69898Y217000D01*
X68958Y217042D01*
X69000Y216102D01*
X69662Y216100D01*
G03X69900Y216338I0J238D01*
G37*
G36*
G01X60832Y221105D02*
X60365Y220635D01*
X61000Y219941D01*
X61635Y220635D01*
X61168Y221105D01*
G03X60832I-168J-168D01*
G37*
G36*
G01X78105Y220168D02*
X77635Y220635D01*
X76941Y220000D01*
X77635Y219365D01*
X78105Y219832D01*
G03Y220168I-168J168D01*
G37*
G36*
G01X76100Y220662D02*
X76102Y220000D01*
X77042Y219958D01*
X77000Y220898D01*
X76338Y220900D01*
G03X76100Y220662I0J-238D01*
G37*
G36*
G01X72100Y217662D02*
X72102Y217000D01*
X73042Y216958D01*
X73000Y217898D01*
X72338Y217900D01*
G03X72100Y217662I0J-238D01*
G37*
G36*
G01X61662Y217900D02*
X61000Y217898D01*
X60958Y216958D01*
X61898Y217000D01*
X61900Y217662D01*
G03X61662Y217900I-238J0D01*
G37*
G36*
G01X65105Y266168D02*
X64635Y266635D01*
X63941Y266000D01*
X64635Y265365D01*
X65105Y265832D01*
G03Y266168I-168J168D01*
G37*
G36*
G01Y281168D02*
X64635Y281635D01*
X63941Y281000D01*
X64635Y280365D01*
X65105Y280832D01*
G03Y281168I-168J168D01*
G37*
G36*
G01X89832Y24105D02*
X89365Y23635D01*
X90000Y22941D01*
X90635Y23635D01*
X90168Y24105D01*
G03X89832I-168J-168D01*
G37*
G36*
G01X90168Y44895D02*
X90635Y45365D01*
X90000Y46059D01*
X89365Y45365D01*
X89832Y44895D01*
G03X90168I168J168D01*
G37*
G36*
G01X95832Y35105D02*
X95365Y34635D01*
X96000Y33941D01*
X96635Y34635D01*
X96168Y35105D01*
G03X95832I-168J-168D01*
G37*
G36*
G01X96168Y32895D02*
X96635Y33365D01*
X96000Y34059D01*
X95365Y33365D01*
X95832Y32895D01*
G03X96168I168J168D01*
G37*
G36*
G01X93168D02*
X93635Y33365D01*
X93000Y34059D01*
X92365Y33365D01*
X92832Y32895D01*
G03X93168I168J168D01*
G37*
G36*
G01X89832Y35105D02*
X89365Y34635D01*
X90000Y33941D01*
X90635Y34635D01*
X90168Y35105D01*
G03X89832I-168J-168D01*
G37*
G36*
G01X82105Y111168D02*
X81635Y111635D01*
X80941Y111000D01*
X81635Y110365D01*
X82105Y110832D01*
G03Y111168I-168J168D01*
G37*
G36*
G01X89662Y165900D02*
X89000Y165898D01*
X88958Y164958D01*
X89898Y165000D01*
X89900Y165662D01*
G03X89662Y165900I-238J0D01*
G37*
G36*
G01X89168Y163895D02*
X89635Y164365D01*
X89000Y165059D01*
X88365Y164365D01*
X88832Y163895D01*
G03X89168I168J168D01*
G37*
G36*
G01X94338Y179148D02*
X95000Y179150D01*
X95042Y180090D01*
X94102Y180048D01*
X94100Y179386D01*
G03X94338Y179148I238J0D01*
G37*
G36*
G01Y189100D02*
X95000Y189102D01*
X95042Y190042D01*
X94102Y190000D01*
X94100Y189338D01*
G03X94338Y189100I238J0D01*
G37*
G36*
G01X90662Y173900D02*
X90000Y173898D01*
X89958Y172958D01*
X90898Y173000D01*
X90900Y173662D01*
G03X90662Y173900I-238J0D01*
G37*
G36*
G01X89338Y172100D02*
X90000Y172102D01*
X90042Y173042D01*
X89102Y173000D01*
X89100Y172338D01*
G03X89338Y172100I238J0D01*
G37*
G36*
G01X90662Y194900D02*
X90000Y194898D01*
X89958Y193958D01*
X90898Y194000D01*
X90900Y194662D01*
G03X90662Y194900I-238J0D01*
G37*
G36*
G01X90900Y203338D02*
X90898Y204000D01*
X89958Y204042D01*
X90000Y203102D01*
X90662Y203100D01*
G03X90900Y203338I0J238D01*
G37*
G36*
G01X86100Y190662D02*
X86102Y190000D01*
X87042Y189958D01*
X87000Y190898D01*
X86338Y190900D01*
G03X86100Y190662I0J-238D01*
G37*
G36*
G01X86338Y199100D02*
X87000Y199102D01*
X87042Y200042D01*
X86102Y200000D01*
X86100Y199338D01*
G03X86338Y199100I238J0D01*
G37*
G36*
G01X89338Y216100D02*
X90000Y216102D01*
X90042Y217042D01*
X89102Y217000D01*
X89100Y216338D01*
G03X89338Y216100I238J0D01*
G37*
G36*
G01X79895Y219832D02*
X80365Y219365D01*
X81059Y220000D01*
X80365Y220635D01*
X79895Y220168D01*
G03Y219832I168J-168D01*
G37*
G36*
G01X81900Y265338D02*
Y266000D01*
X80958Y266042D01*
X81000Y265102D01*
X81663Y265100D01*
G03X81900Y265338I0J237D01*
G37*
G36*
G01X79895Y265832D02*
X80365Y265365D01*
X81059Y266000D01*
X80365Y266635D01*
X79895Y266168D01*
G03Y265832I168J-168D01*
G37*
G36*
G01X81900Y280338D02*
Y281000D01*
X80958Y281042D01*
X81000Y280102D01*
X81663Y280100D01*
G03X81900Y280338I0J237D01*
G37*
G36*
G01X79895Y280832D02*
X80365Y280365D01*
X81059Y281000D01*
X80365Y281635D01*
X79895Y281168D01*
G03Y280832I168J-168D01*
G37*
G36*
G01X104832Y71105D02*
X104365Y70635D01*
X105000Y69941D01*
X105635Y70635D01*
X105168Y71105D01*
G03X104832I-168J-168D01*
G37*
G36*
G01X105168Y132895D02*
X105635Y133365D01*
X105000Y134059D01*
X104365Y133365D01*
X104832Y132895D01*
G03X105168I168J168D01*
G37*
G36*
G01X118100Y264662D02*
Y264000D01*
X119042Y263958D01*
X119000Y264898D01*
X118337Y264900D01*
G03X118100Y264662I0J-237D01*
G37*
G36*
G01X118116Y267678D02*
Y267016D01*
X119058Y266974D01*
X119016Y267914D01*
X118353Y267916D01*
G03X118116Y267678I0J-237D01*
G37*
G36*
G01X133576Y164836D02*
X133578Y164174D01*
X134519Y164132D01*
X134477Y165072D01*
X133814Y165074D01*
G03X133576Y164836I0J-238D01*
G37*
G36*
G01X132662Y213900D02*
X132000Y213898D01*
X131958Y212958D01*
X132898Y213000D01*
X132900Y213662D01*
G03X132662Y213900I-238J0D01*
G37*
G36*
G01X134895Y215832D02*
X135365Y215365D01*
X136059Y216000D01*
X135365Y216635D01*
X134895Y216168D01*
G03Y215832I168J-168D01*
G37*
G36*
G01X135338Y212100D02*
X136000Y212102D01*
X136042Y213042D01*
X135102Y213000D01*
X135100Y212338D01*
G03X135338Y212100I238J0D01*
G37*
G36*
G01X128400Y212338D02*
X128398Y213000D01*
X127458Y213042D01*
X127500Y212102D01*
X128162Y212100D01*
G03X128400Y212338I0J238D01*
G37*
G36*
G01X123168Y262895D02*
X123635Y263365D01*
X123000Y264059D01*
X122365Y263365D01*
X122832Y262895D01*
G03X123168I168J168D01*
G37*
G36*
G01X136100Y279662D02*
Y279000D01*
X137042Y278958D01*
X137000Y279898D01*
X136337Y279900D01*
G03X136100Y279662I0J-237D01*
G37*
G36*
G01X136832Y284105D02*
X136365Y283635D01*
X137000Y282941D01*
X137635Y283635D01*
X137168Y284105D01*
G03X136832I-168J-168D01*
G37*
G36*
G01X132832Y284058D02*
X132365Y283588D01*
X133000Y282894D01*
X133635Y283588D01*
X133168Y284058D01*
G03X132832I-168J-168D01*
G37*
G36*
G01X186502Y227622D02*
X181000Y233123D01*
Y277000D01*
X171000Y287000D01*
X168000D01*
X167000Y288000D01*
Y292000D01*
X168000Y293000D01*
X171000D01*
X173000Y295000D01*
Y313000D01*
X171000Y315000D01*
X153000D01*
Y309000D01*
X152000Y308000D01*
X134000D01*
Y315000D01*
X136000Y317000D01*
X142000D01*
X145000Y320000D01*
X175000D01*
X179000Y316000D01*
Y288000D01*
X187000Y280000D01*
Y242000D01*
X193000Y236000D01*
Y216000D01*
X195000Y214000D01*
X208687D01*
X208710Y213827D01*
G03X211290I1290J173D01*
G01X211313Y214000D01*
X215186D01*
X215210Y213827D01*
G03X217790I1290J173D01*
G01X217814Y214000D01*
X218686D01*
X218710Y213827D01*
G03X221290I1290J173D01*
G01X221314Y214000D01*
X226500D01*
X240000Y200500D01*
Y191652D01*
X239974D01*
Y188302D01*
X239874D01*
Y187298D01*
X240000D01*
Y186000D01*
X243000D01*
X244000Y185000D01*
Y180500D01*
X243000Y179500D01*
X240500D01*
X237000Y183000D01*
Y196000D01*
X225000Y208000D01*
X192000D01*
X187000Y213000D01*
Y227000D01*
X186502Y227498D01*
Y227622D01*
G37*
G36*
G01X157168Y43895D02*
X157635Y44365D01*
X157000Y45059D01*
X156365Y44365D01*
X156832Y43895D01*
G03X157168I168J168D01*
G37*
G36*
G01X153168D02*
X153635Y44365D01*
X153000Y45059D01*
X152365Y44365D01*
X152832Y43895D01*
G03X153168I168J168D01*
G37*
G36*
G01X150818Y189395D02*
X151285Y189865D01*
X150650Y190559D01*
X150015Y189865D01*
X150482Y189395D01*
G03X150818I168J168D01*
G37*
G36*
G01X146818D02*
X147285Y189865D01*
X146650Y190559D01*
X146015Y189865D01*
X146482Y189395D01*
G03X146818I168J168D01*
G37*
G36*
G01X148668Y211895D02*
X149135Y212365D01*
X148500Y213059D01*
X147865Y212365D01*
X148332Y211895D01*
G03X148668I168J168D01*
G37*
G36*
G01X151832Y217089D02*
X151365Y216619D01*
X152000Y215925D01*
X152635Y216619D01*
X152168Y217089D01*
G03X151832I-168J-168D01*
G37*
G36*
G01X179168Y168395D02*
X179635Y168865D01*
X179000Y169559D01*
X178365Y168865D01*
X178832Y168395D01*
G03X179168I168J168D01*
G37*
G36*
G01X166662Y213900D02*
X166000Y213898D01*
X165958Y212958D01*
X166898Y213000D01*
X166900Y213662D01*
G03X166662Y213900I-238J0D01*
G37*
G36*
G01X164895Y215832D02*
X165365Y215365D01*
X166059Y216000D01*
X165365Y216635D01*
X164895Y216168D01*
G03Y215832I168J-168D01*
G37*
G36*
G01X175668Y211895D02*
X176135Y212365D01*
X175500Y213059D01*
X174865Y212365D01*
X175332Y211895D01*
G03X175668I168J168D01*
G37*
G36*
G01X172000Y217437D02*
Y216500D01*
X172520Y215944D01*
X173135Y216636D01*
X172168Y217605D01*
X172000Y217437D01*
G37*
G36*
G01X161832Y328105D02*
X161365Y327635D01*
X162000Y326941D01*
X162635Y327635D01*
X162168Y328105D01*
G03X161832I-168J-168D01*
G37*
G36*
G01X196742Y65900D02*
X196079Y65898D01*
X196037Y64958D01*
X196978Y65000D01*
X196980Y65662D01*
G03X196742Y65900I-238J0D01*
G37*
G36*
G01X196105Y110168D02*
X195635Y110635D01*
X194941Y110000D01*
X195635Y109365D01*
X196105Y109832D01*
G03Y110168I-168J168D01*
G37*
G36*
G01X193895Y99832D02*
X194365Y99365D01*
X195059Y100000D01*
X194365Y100635D01*
X193895Y100168D01*
G03Y99832I168J-168D01*
G37*
G36*
G01X196105Y114168D02*
X195635Y114635D01*
X194941Y114000D01*
X195635Y113365D01*
X196105Y113832D01*
G03Y114168I-168J168D01*
G37*
G36*
G01Y118168D02*
X195635Y118635D01*
X194941Y118000D01*
X195635Y117365D01*
X196105Y117832D01*
G03Y118168I-168J168D01*
G37*
G36*
G01Y126168D02*
X195635Y126635D01*
X194941Y126000D01*
X195635Y125365D01*
X196105Y125832D01*
G03Y126168I-168J168D01*
G37*
G36*
G01X185105D02*
X184635Y126635D01*
X183941Y126000D01*
X184635Y125365D01*
X185105Y125832D01*
G03Y126168I-168J168D01*
G37*
G36*
G01X196105Y130168D02*
X195635Y130635D01*
X194941Y130000D01*
X195635Y129365D01*
X196105Y129832D01*
G03Y130168I-168J168D01*
G37*
G36*
G01Y142168D02*
X195635Y142635D01*
X194941Y142000D01*
X195635Y141365D01*
X196105Y141832D01*
G03Y142168I-168J168D01*
G37*
G36*
G01Y134168D02*
X195635Y134635D01*
X194941Y134000D01*
X195635Y133365D01*
X196105Y133832D01*
G03Y134168I-168J168D01*
G37*
G36*
G01X185105Y146168D02*
X184635Y146635D01*
X183941Y146000D01*
X184635Y145365D01*
X185105Y145832D01*
G03Y146168I-168J168D01*
G37*
G36*
G01Y142295D02*
X184635Y142762D01*
X183941Y142127D01*
X184635Y141492D01*
X185105Y141959D01*
G03Y142295I-168J168D01*
G37*
G36*
G01X180832Y137105D02*
X180365Y136635D01*
X181000Y135941D01*
X181635Y136635D01*
X181168Y137105D01*
G03X180832I-168J-168D01*
G37*
G36*
G01X181900Y159338D02*
X181898Y160000D01*
X180958Y160042D01*
X181000Y159102D01*
X181662Y159100D01*
G03X181900Y159338I0J238D01*
G37*
G36*
G01X196105Y154168D02*
X195635Y154635D01*
X194941Y154000D01*
X195635Y153365D01*
X196105Y153832D01*
G03Y154168I-168J168D01*
G37*
G36*
G01X183832Y167105D02*
X183365Y166635D01*
X184000Y165941D01*
X184635Y166635D01*
X184168Y167105D01*
G03X183832I-168J-168D01*
G37*
G36*
G01X181168Y164895D02*
X181635Y165365D01*
X181000Y166059D01*
X180365Y165365D01*
X180832Y164895D01*
G03X181168I168J168D01*
G37*
G36*
G01X196105Y168168D02*
X195635Y168635D01*
X194941Y168000D01*
X195635Y167365D01*
X196105Y167832D01*
G03Y168168I-168J168D01*
G37*
G36*
G01Y164168D02*
X195635Y164635D01*
X194941Y164000D01*
X195635Y163365D01*
X196105Y163832D01*
G03Y164168I-168J168D01*
G37*
G36*
G01X184662Y188900D02*
X184000Y188898D01*
X183958Y187958D01*
X184898Y188000D01*
X184900Y188662D01*
G03X184662Y188900I-238J0D01*
G37*
G36*
G01X196105Y176168D02*
X195635Y176635D01*
X194941Y176000D01*
X195635Y175365D01*
X196105Y175832D01*
G03Y176168I-168J168D01*
G37*
G36*
G01Y188168D02*
X195635Y188635D01*
X194941Y188000D01*
X195635Y187365D01*
X196105Y187832D01*
G03Y188168I-168J168D01*
G37*
G36*
G01Y172168D02*
X195635Y172635D01*
X194941Y172000D01*
X195635Y171365D01*
X196105Y171832D01*
G03Y172168I-168J168D01*
G37*
G36*
G01Y180168D02*
X195635Y180635D01*
X194941Y180000D01*
X195635Y179365D01*
X196105Y179832D01*
G03Y180168I-168J168D01*
G37*
G36*
G01Y184168D02*
X195635Y184635D01*
X194941Y184000D01*
X195635Y183365D01*
X196105Y183832D01*
G03Y184168I-168J168D01*
G37*
G36*
G01X194363Y256281D02*
X192349Y254265D01*
X195000Y251389D01*
X197651Y254265D01*
X195637Y256281D01*
G03X194363I-637J-636D01*
G37*
G36*
G01X217832Y28105D02*
X217365Y27635D01*
X218000Y26941D01*
X218635Y27635D01*
X218168Y28105D01*
G03X217832I-168J-168D01*
G37*
G36*
G01X203918Y38895D02*
X204385Y39365D01*
X203750Y40059D01*
X203115Y39365D01*
X203582Y38895D01*
G03X203918I168J168D01*
G37*
G36*
G01X204168Y88895D02*
X204635Y89365D01*
X204000Y90059D01*
X203365Y89365D01*
X203832Y88895D01*
G03X204168I168J168D01*
G37*
G36*
G01X209168D02*
X209635Y89365D01*
X209000Y90059D01*
X208365Y89365D01*
X208832Y88895D01*
G03X209168I168J168D01*
G37*
G36*
G01X219696Y125273D02*
X220163Y125743D01*
X219528Y126437D01*
X218893Y125743D01*
X219360Y125273D01*
G03X219696I168J168D01*
G37*
G36*
G01X218866Y141226D02*
X219528Y141228D01*
X219570Y142168D01*
X218630Y142126D01*
X218628Y141464D01*
G03X218866Y141226I238J0D01*
G37*
G36*
G01X215273Y148257D02*
X215743Y147790D01*
X216437Y148425D01*
X215743Y149060D01*
X215273Y148593D01*
G03Y148257I168J-168D01*
G37*
G36*
G01Y135659D02*
X215743Y135192D01*
X216437Y135827D01*
X215743Y136462D01*
X215273Y135995D01*
G03Y135659I168J-168D01*
G37*
G36*
G01X218866Y134926D02*
X219528Y134928D01*
X219570Y135869D01*
X218630Y135827D01*
X218628Y135164D01*
G03X218866Y134926I238J0D01*
G37*
G36*
G01X218864Y147524D02*
X219527Y147526D01*
X219569Y148467D01*
X218628Y148425D01*
X218626Y147762D01*
G03X218864Y147524I238J0D01*
G37*
G36*
G01X215273Y145108D02*
X215743Y144641D01*
X216437Y145276D01*
X215743Y145911D01*
X215273Y145444D01*
G03Y145108I168J-168D01*
G37*
G36*
G01X218866Y144376D02*
X219528Y144378D01*
X219570Y145318D01*
X218630Y145276D01*
X218628Y144614D01*
G03X218866Y144376I238J0D01*
G37*
G36*
G01Y138076D02*
X219528Y138078D01*
X219570Y139018D01*
X218630Y138976D01*
X218628Y138314D01*
G03X218866Y138076I238J0D01*
G37*
G36*
G01X215273Y138808D02*
X215743Y138341D01*
X216437Y138976D01*
X215743Y139611D01*
X215273Y139144D01*
G03Y138808I168J-168D01*
G37*
G36*
G01Y132509D02*
X215743Y132042D01*
X216437Y132677D01*
X215743Y133312D01*
X215273Y132845D01*
G03Y132509I168J-168D01*
G37*
G36*
G01X216546Y153619D02*
X217013Y154089D01*
X216378Y154783D01*
X215743Y154089D01*
X216210Y153619D01*
G03X216546I168J168D01*
G37*
G36*
G01X218866Y156974D02*
X219528Y156976D01*
X219570Y157916D01*
X218630Y157874D01*
X218628Y157212D01*
G03X218866Y156974I238J0D01*
G37*
G36*
G01X215273Y160856D02*
X215743Y160389D01*
X216437Y161024D01*
X215743Y161659D01*
X215273Y161192D01*
G03Y160856I168J-168D01*
G37*
G36*
G01X218628Y164836D02*
X218630Y164173D01*
X219570Y164131D01*
X219528Y165072D01*
X218866Y165074D01*
G03X218628Y164836I0J-238D01*
G37*
G36*
G01X218016Y151000D02*
X219228D01*
X219583Y151596D01*
X218892Y152210D01*
X217848Y151168D01*
X218016Y151000D01*
G37*
G36*
G01X215273Y167155D02*
X215743Y166688D01*
X216437Y167323D01*
X215743Y167958D01*
X215273Y167491D01*
G03Y167155I168J-168D01*
G37*
G36*
G01X219360Y162129D02*
X218893Y161659D01*
X219528Y160965D01*
X220163Y161659D01*
X219696Y162129D01*
G03X219360I-168J-168D01*
G37*
G36*
G01X215273Y164005D02*
X215743Y163538D01*
X216437Y164173D01*
X215743Y164808D01*
X215273Y164341D01*
G03Y164005I168J-168D01*
G37*
G36*
G01X218628Y167986D02*
X218630Y167323D01*
X219570Y167281D01*
X219528Y168222D01*
X218866Y168224D01*
G03X218628Y167986I0J-238D01*
G37*
G36*
G01X215242Y158452D02*
X215495Y157790D01*
X216426Y157839D01*
X216378Y158772D01*
X215464Y158774D01*
G03X215242Y158452I0J-238D01*
G37*
G36*
G01X218866Y153824D02*
X219528Y153826D01*
X219570Y154766D01*
X218630Y154724D01*
X218628Y154062D01*
G03X218866Y153824I238J0D01*
G37*
G36*
G01X213060Y158979D02*
X212593Y158509D01*
X213228Y157815D01*
X213863Y158509D01*
X213396Y158979D01*
G03X213060I-168J-168D01*
G37*
G36*
G01X215273Y170304D02*
X215743Y169837D01*
X216437Y170472D01*
X215743Y171107D01*
X215273Y170640D01*
G03Y170304I168J-168D01*
G37*
G36*
G01X221500Y169500D02*
X220804Y170196D01*
X220817Y170295D01*
G03X219012Y171667I-1289J177D01*
G01X218887Y171613D01*
X217519Y172981D01*
X217573Y173105D01*
G03X216395Y174924I-1195J517D01*
G02X216000Y175324I5J400D01*
G01Y181000D01*
X217000Y182000D01*
X220000D01*
X222000Y184000D01*
X223500D01*
X224326Y183174D01*
Y181078D01*
G02X223632Y180806I-400J0D01*
G03Y179036I-955J-885D01*
G02X224326Y178764I294J-272D01*
G01Y177929D01*
G02X223632Y177657I-400J0D01*
G03X223954Y176520I-955J-885D01*
G02X224348Y176515I197J-38D01*
G03X224479Y176110I1480J255D01*
G01X224500Y176068D01*
Y174326D01*
X224479Y174284D01*
G03X224348Y173879I1349J-660D01*
G02X223954Y173874I-197J33D01*
G03Y173370I-1277J-252D01*
G02X224348Y173365I197J-38D01*
G03X224479Y172960I1480J255D01*
G01X224500Y172918D01*
Y170500D01*
X223500Y169500D01*
X221500D01*
G37*
G36*
G01X218436Y170304D02*
X218893Y169850D01*
X219587Y170472D01*
X218893Y171094D01*
X218436Y170640D01*
G03Y170304I168J-168D01*
G37*
G36*
G01X216332Y218105D02*
X215865Y217635D01*
X216500Y216941D01*
X217135Y217635D01*
X216668Y218105D01*
G03X216332I-168J-168D01*
G37*
G36*
G01X199832D02*
X199365Y217635D01*
X200000Y216941D01*
X200635Y217635D01*
X200168Y218105D01*
G03X199832I-168J-168D01*
G37*
G36*
G01X209832Y215105D02*
X209365Y214635D01*
X210000Y213941D01*
X210635Y214635D01*
X210168Y215105D01*
G03X209832I-168J-168D01*
G37*
G36*
G01X200168Y245895D02*
X200635Y246365D01*
X200000Y247059D01*
X199365Y246365D01*
X199832Y245895D01*
G03X200168I168J168D01*
G37*
G36*
G01X210168D02*
X210635Y246365D01*
X210000Y247059D01*
X209365Y246365D01*
X209832Y245895D01*
G03X210168I168J168D01*
G37*
G36*
G01X212605Y257168D02*
X212135Y257635D01*
X211441Y257000D01*
X212135Y256365D01*
X212605Y256832D01*
G03Y257168I-168J168D01*
G37*
G36*
G01Y267168D02*
X212135Y267635D01*
X211441Y267000D01*
X212135Y266365D01*
X212605Y266832D01*
G03Y267168I-168J168D01*
G37*
G36*
G01X203682Y297689D02*
X201023Y295028D01*
X203850Y292141D01*
X206677Y295028D01*
X204018Y297689D01*
G03X203682I-168J-168D01*
G37*
G36*
G01X204018Y312311D02*
X206677Y314972D01*
X203850Y317859D01*
X201023Y314972D01*
X203682Y312311D01*
G03X204018I168J168D01*
G37*
G36*
G01X235105Y53215D02*
X234635Y53682D01*
X233941Y53047D01*
X234635Y52412D01*
X235105Y52879D01*
G03Y53215I-168J168D01*
G37*
G36*
G01X219895Y52832D02*
X220365Y52365D01*
X221059Y53000D01*
X220365Y53635D01*
X219895Y53168D01*
G03Y52832I168J-168D01*
G37*
G36*
G01X238354Y76100D02*
X239016Y76102D01*
X239058Y77042D01*
X238118Y77000D01*
X238116Y76338D01*
G03X238354Y76100I238J0D01*
G37*
G36*
G01X239326Y119416D02*
X239324Y120079D01*
X238384Y120121D01*
X238426Y119180D01*
X239088Y119178D01*
G03X239326Y119416I0J238D01*
G37*
G36*
G01X233026Y128866D02*
X233024Y129528D01*
X232084Y129570D01*
X232126Y128630D01*
X232788Y128628D01*
G03X233026Y128866I0J238D01*
G37*
G36*
G01X239326D02*
X239324Y129528D01*
X238383Y129570D01*
X238425Y128630D01*
X239088Y128628D01*
G03X239326Y128866I0J238D01*
G37*
G36*
G01X229876D02*
X229874Y129528D01*
X228934Y129570D01*
X228976Y128630D01*
X229638Y128628D01*
G03X229876Y128866I0J238D01*
G37*
G36*
G01X229100Y214662D02*
X229102Y214000D01*
X230042Y213958D01*
X230000Y214898D01*
X229338Y214900D01*
G03X229100Y214662I0J-238D01*
G37*
G36*
G01X219832Y218105D02*
X219365Y217635D01*
X220000Y216941D01*
X220635Y217635D01*
X220168Y218105D01*
G03X219832I-168J-168D01*
G37*
G36*
G01X238662Y217900D02*
X238000Y217898D01*
X237958Y216958D01*
X238898Y217000D01*
X238900Y217662D01*
G03X238662Y217900I-238J0D01*
G37*
G36*
G01X238900Y213338D02*
X238898Y214000D01*
X237958Y214042D01*
X238000Y213102D01*
X238662Y213100D01*
G03X238900Y213338I0J238D01*
G37*
G36*
G01X230168Y226895D02*
X230635Y227365D01*
X230000Y228059D01*
X229365Y227365D01*
X229832Y226895D01*
G03X230168I168J168D01*
G37*
G36*
G01X235168Y245895D02*
X235635Y246365D01*
X235000Y247059D01*
X234365Y246365D01*
X234832Y245895D01*
G03X235168I168J168D01*
G37*
G36*
G01X226884Y246304D02*
X226882Y247016D01*
X225951Y247049D01*
X225984Y246118D01*
X226696Y246116D01*
G03X226884Y246304I0J188D01*
G37*
G36*
G01X228100Y232712D02*
X228102Y232000D01*
X229033Y231967D01*
X229000Y232898D01*
X228288Y232900D01*
G03X228100Y232712I0J-188D01*
G37*
G36*
G01X228288Y246100D02*
X229000Y246102D01*
X229033Y247033D01*
X228102Y247000D01*
X228100Y246288D01*
G03X228288Y246100I188J0D01*
G37*
G36*
G01X226712Y232900D02*
X226000Y232898D01*
X225967Y231967D01*
X226898Y232000D01*
X226900Y232712D01*
G03X226712Y232900I-188J0D01*
G37*
G36*
G01X220168Y245895D02*
X220635Y246365D01*
X220000Y247059D01*
X219365Y246365D01*
X219832Y245895D01*
G03X220168I168J168D01*
G37*
G36*
G01X226644Y304895D02*
X227111Y305365D01*
X226476Y306059D01*
X225841Y305365D01*
X226308Y304895D01*
G03X226644I168J168D01*
G37*
G36*
G01X235100Y340662D02*
Y340000D01*
X236042Y339958D01*
X236000Y340898D01*
X235337Y340900D01*
G03X235100Y340662I0J-237D01*
G37*
G36*
G01X230100D02*
Y340000D01*
X231042Y339958D01*
X231000Y340898D01*
X230337Y340900D01*
G03X230100Y340662I0J-237D01*
G37*
G36*
G01X240816Y54105D02*
X240349Y53635D01*
X240984Y52941D01*
X241619Y53635D01*
X241152Y54105D01*
G03X240816I-168J-168D01*
G37*
G36*
G01X244753D02*
X244286Y53635D01*
X244921Y52941D01*
X245556Y53635D01*
X245089Y54105D01*
G03X244753I-168J-168D01*
G37*
G36*
G01X248690Y54247D02*
X248223Y53777D01*
X248858Y53083D01*
X249493Y53777D01*
X249026Y54247D01*
G03X248690I-168J-168D01*
G37*
G36*
G01X256564Y54105D02*
X256097Y53635D01*
X256732Y52941D01*
X257367Y53635D01*
X256900Y54105D01*
G03X256564I-168J-168D01*
G37*
G36*
G01X250164Y76100D02*
X250827Y76102D01*
X250869Y77042D01*
X249928Y77000D01*
X249926Y76338D01*
G03X250164Y76100I238J0D01*
G37*
G36*
G01X242290D02*
X242953Y76102D01*
X242995Y77042D01*
X242054Y77000D01*
X242052Y76338D01*
G03X242290Y76100I238J0D01*
G37*
G36*
G01X246228D02*
X246890Y76102D01*
X246932Y77042D01*
X245992Y77000D01*
X245990Y76338D01*
G03X246228Y76100I238J0D01*
G37*
G36*
G01X250100Y81662D02*
X250102Y81000D01*
X251042Y80958D01*
X251000Y81898D01*
X250338Y81900D01*
G03X250100Y81662I0J-238D01*
G37*
G36*
G01X258038Y76100D02*
X258701Y76102D01*
X258743Y77042D01*
X257802Y77000D01*
X257800Y76338D01*
G03X258038Y76100I238J0D01*
G37*
G36*
G01X239832Y88105D02*
X239365Y87635D01*
X240000Y86941D01*
X240635Y87635D01*
X240168Y88105D01*
G03X239832I-168J-168D01*
G37*
G36*
G01X240662Y103900D02*
X240000Y103898D01*
X239958Y102958D01*
X240898Y103000D01*
X240900Y103662D01*
G03X240662Y103900I-238J0D01*
G37*
G36*
G01X245624Y125716D02*
X245622Y126378D01*
X244682Y126420D01*
X244724Y125480D01*
X245386Y125478D01*
G03X245624Y125716I0J238D01*
G37*
G36*
G01Y119416D02*
X245622Y120079D01*
X244682Y120121D01*
X244724Y119180D01*
X245386Y119178D01*
G03X245624Y119416I0J238D01*
G37*
G36*
G01X247668Y118600D02*
X248509Y119443D01*
X247890Y120136D01*
X247171Y119585D01*
X247264Y118742D01*
G03X247668Y118600I236J26D01*
G37*
G36*
G01X255074Y128866D02*
X255072Y129528D01*
X254131Y129570D01*
X254173Y128630D01*
X254836Y128628D01*
G03X255074Y128866I0J238D01*
G37*
G36*
G01X258224Y122566D02*
X258222Y123228D01*
X257281Y123270D01*
X257323Y122330D01*
X257986Y122328D01*
G03X258224Y122566I0J238D01*
G37*
G36*
G01X257951Y155721D02*
X257288Y155620D01*
X257284Y154679D01*
X258222Y154724D01*
X258224Y155486D01*
G03X257951Y155721I-238J0D01*
G37*
G36*
G01X259254Y158426D02*
X259600Y157764D01*
X260522Y157841D01*
X260472Y158772D01*
X259464Y158774D01*
G03X259254Y158426I0J-237D01*
G37*
G36*
G01X253272Y180584D02*
X253274Y179921D01*
X254215Y179879D01*
X254173Y180820D01*
X253510Y180822D01*
G03X253272Y180584I0J-238D01*
G37*
G36*
G01X256660Y179020D02*
X257323Y179022D01*
X257365Y179963D01*
X256424Y179921D01*
X256422Y179258D01*
G03X256660Y179020I238J0D01*
G37*
G36*
G01X257155Y177863D02*
X256702Y177407D01*
X257323Y176713D01*
X257944Y177407D01*
X257491Y177863D01*
G03X257155I-168J-168D01*
G37*
G36*
G01X252716Y174284D02*
X253378Y173622D01*
X254227Y173597D01*
X254173Y174520D01*
X252716Y174522D01*
Y174284D01*
G37*
G36*
G01X257986Y174522D02*
X257323Y174520D01*
X257281Y173580D01*
X258222Y173622D01*
X258224Y174284D01*
G03X257986Y174522I-238J0D01*
G37*
G36*
G01X246468Y191420D02*
X246935Y191890D01*
X246300Y192584D01*
X245665Y191890D01*
X246132Y191420D01*
G03X246468I168J168D01*
G37*
G36*
G01X255918Y191395D02*
X256385Y191865D01*
X255750Y192559D01*
X255115Y191865D01*
X255582Y191395D01*
G03X255918I168J168D01*
G37*
G36*
G01X251193Y191420D02*
X251660Y191890D01*
X251025Y192584D01*
X250390Y191890D01*
X250857Y191420D01*
G03X251193I168J168D01*
G37*
G36*
G01X249400Y216338D02*
X249398Y217000D01*
X248458Y217042D01*
X248500Y216102D01*
X249162Y216100D01*
G03X249400Y216338I0J238D01*
G37*
G36*
G01X259338Y216100D02*
X260000Y216102D01*
X260042Y217042D01*
X259102Y217000D01*
X259100Y216338D01*
G03X259338Y216100I238J0D01*
G37*
G36*
G01X254832Y218105D02*
X254365Y217635D01*
X255000Y216941D01*
X255635Y217635D01*
X255168Y218105D01*
G03X254832I-168J-168D01*
G37*
G36*
G01X240168Y245895D02*
X240635Y246365D01*
X240000Y247059D01*
X239365Y246365D01*
X239832Y245895D01*
G03X240168I168J168D01*
G37*
G36*
G01X250168D02*
X250635Y246365D01*
X250000Y247059D01*
X249365Y246365D01*
X249832Y245895D01*
G03X250168I168J168D01*
G37*
G36*
G01X251900Y287338D02*
Y288000D01*
X250958Y288042D01*
X251000Y287102D01*
X251663Y287100D01*
G03X251900Y287338I0J237D01*
G37*
G36*
G01Y281338D02*
Y282000D01*
X250958Y282042D01*
X251000Y281102D01*
X251663Y281100D01*
G03X251900Y281338I0J237D01*
G37*
G36*
G01Y284338D02*
Y285000D01*
X250958Y285042D01*
X251000Y284102D01*
X251663Y284100D01*
G03X251900Y284338I0J237D01*
G37*
G36*
G01Y293338D02*
Y294000D01*
X250958Y294042D01*
X251000Y293102D01*
X251663Y293100D01*
G03X251900Y293338I0J237D01*
G37*
G36*
G01Y290338D02*
Y291000D01*
X250958Y291042D01*
X251000Y290102D01*
X251663Y290100D01*
G03X251900Y290338I0J237D01*
G37*
G36*
G01X240100Y340662D02*
Y340000D01*
X241042Y339958D01*
X241000Y340898D01*
X240337Y340900D01*
G03X240100Y340662I0J-237D01*
G37*
G36*
G01X269206Y53900D02*
X268543D01*
X268501Y52958D01*
X269442Y53000D01*
X269444Y53663D01*
G03X269206Y53900I-237J0D01*
G37*
G36*
G01X270344Y78105D02*
X269877Y77635D01*
X270512Y76941D01*
X271147Y77635D01*
X270680Y78105D01*
G03X270344I-168J-168D01*
G37*
G36*
G01X267832Y101105D02*
X267365Y100635D01*
X268000Y99941D01*
X268635Y100635D01*
X268168Y101105D01*
G03X267832I-168J-168D01*
G37*
G36*
G01X264522Y122565D02*
X264520Y123228D01*
X263580Y123270D01*
X263622Y122328D01*
X264285D01*
G03X264522Y122565I0J237D01*
G37*
G36*
G01X270584Y127278D02*
X269921D01*
X269879Y126336D01*
X270820Y126378D01*
X270822Y127041D01*
G03X270584Y127278I-237J0D01*
G37*
G36*
G01X267672Y125715D02*
X267670Y126378D01*
X266730Y126420D01*
X266772Y125478D01*
X267435D01*
G03X267672Y125715I0J237D01*
G37*
G36*
G01X267352Y130658D02*
X266690Y130413D01*
X266737Y129480D01*
X267670Y129528D01*
X267672Y130435D01*
G03X267352Y130658I-238J0D01*
G37*
G36*
G01X261340Y133578D02*
X260472Y133576D01*
X260425Y132641D01*
X261360Y132607D01*
X261567Y133270D01*
G03X261340Y133578I-227J70D01*
G37*
G36*
G01X267435D02*
X266772Y133576D01*
X266730Y132635D01*
X267670Y132677D01*
X267672Y133340D01*
G03X267435Y133578I-238J0D01*
G37*
G36*
G01X261372Y138314D02*
X261370Y138976D01*
X260430Y139018D01*
X260472Y138078D01*
X261134Y138076D01*
G03X261372Y138314I0J238D01*
G37*
G36*
G01X274180Y158043D02*
X273710Y158510D01*
X273016Y157875D01*
X273710Y157240D01*
X274180Y157707D01*
G03Y158043I-168J168D01*
G37*
G36*
G01X264267Y152522D02*
X263605Y152474D01*
X263582Y151532D01*
X264520Y151575D01*
X264522Y152285D01*
G03X264267Y152522I-238J0D01*
G37*
G36*
G01X267877Y170640D02*
X267407Y171107D01*
X266713Y170472D01*
X267407Y169837D01*
X267877Y170304D01*
G03Y170640I-168J168D01*
G37*
G36*
G01X261284Y174522D02*
X260472Y174520D01*
X260426Y173584D01*
X261365Y173570D01*
X261516Y174232D01*
G03X261284Y174522I-232J52D01*
G37*
G36*
G01X263832Y181404D02*
X262987Y180557D01*
X263606Y179864D01*
X264325Y180414D01*
X264236Y181261D01*
G03X263832Y181404I-236J-25D01*
G37*
G36*
G01X267877Y176940D02*
X267407Y177407D01*
X266713Y176772D01*
X267407Y176137D01*
X267877Y176604D01*
G03Y176940I-168J168D01*
G37*
G36*
G01X267879Y180095D02*
X267406Y180558D01*
X266713Y179921D01*
X267407Y179286D01*
X267881Y179757D01*
G03X267879Y180095I-168J168D01*
G37*
G36*
G01X265511Y174163D02*
X265907Y173501D01*
X266822Y173590D01*
X266772Y174522D01*
X265715D01*
G03X265511Y174163I0J-237D01*
G37*
G36*
G01X260643Y191420D02*
X261110Y191890D01*
X260475Y192584D01*
X259840Y191890D01*
X260307Y191420D01*
G03X260643I168J168D01*
G37*
G36*
G01X266337Y192100D02*
X267000D01*
X267042Y193042D01*
X266102Y193000D01*
X266100Y192337D01*
G03X266337Y192100I237J0D01*
G37*
G36*
G01X274168Y226895D02*
X274635Y227365D01*
X274000Y228059D01*
X273365Y227365D01*
X273832Y226895D01*
G03X274168I168J168D01*
G37*
G36*
G01Y215895D02*
X274635Y216365D01*
X274000Y217059D01*
X273365Y216365D01*
X273832Y215895D01*
G03X274168I168J168D01*
G37*
G36*
G01X259832Y218105D02*
X259365Y217635D01*
X260000Y216941D01*
X260635Y217635D01*
X260168Y218105D01*
G03X259832I-168J-168D01*
G37*
G36*
G01X264832D02*
X264365Y217635D01*
X265000Y216941D01*
X265635Y217635D01*
X265168Y218105D01*
G03X264832I-168J-168D01*
G37*
G36*
G01X269832D02*
X269365Y217635D01*
X270000Y216941D01*
X270635Y217635D01*
X270168Y218105D01*
G03X269832I-168J-168D01*
G37*
G36*
G01X260168Y245895D02*
X260635Y246365D01*
X260000Y247059D01*
X259365Y246365D01*
X259832Y245895D01*
G03X260168I168J168D01*
G37*
G36*
G01X270168D02*
X270635Y246365D01*
X270000Y247059D01*
X269365Y246365D01*
X269832Y245895D01*
G03X270168I168J168D01*
G37*
G36*
G01X269663Y340900D02*
X269000D01*
X268958Y339958D01*
X269900Y340000D01*
Y340663D01*
G03X269663Y340900I-237J0D01*
G37*
G36*
G01X263832Y341105D02*
X263365Y340635D01*
X264000Y339941D01*
X264635Y340635D01*
X264168Y341105D01*
G03X263832I-168J-168D01*
G37*
G36*
G01X274663Y340900D02*
X274000D01*
X273958Y339958D01*
X274900Y340000D01*
Y340663D01*
G03X274663Y340900I-237J0D01*
G37*
G36*
G01X285168Y75895D02*
X285635Y76365D01*
X285000Y77059D01*
X284365Y76365D01*
X284832Y75895D01*
G03X285168I168J168D01*
G37*
G36*
G01X288832Y78105D02*
X288365Y77635D01*
X289000Y76941D01*
X289635Y77635D01*
X289168Y78105D01*
G03X288832I-168J-168D01*
G37*
G36*
G01X285337Y123900D02*
X286000D01*
X286042Y124842D01*
X285102Y124800D01*
X285100Y124137D01*
G03X285337Y123900I237J0D01*
G37*
G36*
G01X295900Y143337D02*
X295898Y144000D01*
X294958Y144042D01*
X295000Y143100D01*
X295663D01*
G03X295900Y143337I0J237D01*
G37*
G36*
G01X298832Y145105D02*
X298365Y144635D01*
X299000Y143941D01*
X299635Y144635D01*
X299168Y145105D01*
G03X298832I-168J-168D01*
G37*
G36*
G01X300105Y140168D02*
X299635Y140635D01*
X298941Y140000D01*
X299635Y139365D01*
X300105Y139832D01*
G03Y140168I-168J168D01*
G37*
G36*
G01X290663Y161900D02*
X290000D01*
X289958Y160958D01*
X290898Y161000D01*
X290900Y161663D01*
G03X290663Y161900I-237J0D01*
G37*
G36*
G01X294100Y161663D02*
X294102Y161000D01*
X295042Y160958D01*
X295000Y161900D01*
X294337D01*
G03X294100Y161663I0J-237D01*
G37*
G36*
G01X290663Y156900D02*
X290000D01*
X289958Y155958D01*
X290898Y156000D01*
X290900Y156663D01*
G03X290663Y156900I-237J0D01*
G37*
G36*
G01X298832Y159105D02*
X298365Y158635D01*
X299000Y157941D01*
X299635Y158635D01*
X299168Y159105D01*
G03X298832I-168J-168D01*
G37*
G36*
G01X283188Y176100D02*
X282525D01*
X282483Y175158D01*
X283424Y175200D01*
X283426Y175863D01*
G03X283188Y176100I-237J0D01*
G37*
G36*
G01X281420Y175032D02*
X281890Y174565D01*
X282584Y175200D01*
X281890Y175835D01*
X281420Y175368D01*
G03Y175032I168J-168D01*
G37*
G36*
G01X286168Y186895D02*
X286635Y187365D01*
X286000Y188059D01*
X285365Y187365D01*
X285832Y186895D01*
G03X286168I168J168D01*
G37*
G36*
G01X283188Y180826D02*
X282525Y180824D01*
X282483Y179883D01*
X283424Y179925D01*
X283426Y180588D01*
G03X283188Y180826I-238J0D01*
G37*
G36*
G01X281420Y179757D02*
X281890Y179290D01*
X282584Y179925D01*
X281890Y180560D01*
X281420Y180093D01*
G03Y179757I168J-168D01*
G37*
G36*
G01X286900Y193337D02*
X286898Y194000D01*
X285958Y194042D01*
X286000Y193100D01*
X286663D01*
G03X286900Y193337I0J237D01*
G37*
G36*
G01Y190337D02*
X286898Y191000D01*
X285958Y191042D01*
X286000Y190100D01*
X286663D01*
G03X286900Y190337I0J237D01*
G37*
G36*
G01X284832Y256105D02*
X284365Y255635D01*
X285000Y254941D01*
X285635Y255635D01*
X285168Y256105D01*
G03X284832I-168J-168D01*
G37*
G36*
G01X285168Y253895D02*
X285635Y254365D01*
X285000Y255059D01*
X284365Y254365D01*
X284832Y253895D01*
G03X285168I168J168D01*
G37*
G36*
G01X290168Y263895D02*
X290635Y264365D01*
X290000Y265059D01*
X289365Y264365D01*
X289832Y263895D01*
G03X290168I168J168D01*
G37*
G36*
G01Y253895D02*
X290635Y254365D01*
X290000Y255059D01*
X289365Y254365D01*
X289832Y253895D01*
G03X290168I168J168D01*
G37*
G36*
G01X294832Y256105D02*
X294365Y255635D01*
X295000Y254941D01*
X295635Y255635D01*
X295168Y256105D01*
G03X294832I-168J-168D01*
G37*
G36*
G01X279832D02*
X279365Y255635D01*
X280000Y254941D01*
X280635Y255635D01*
X280168Y256105D01*
G03X279832I-168J-168D01*
G37*
G36*
G01X280168Y253895D02*
X280635Y254365D01*
X280000Y255059D01*
X279365Y254365D01*
X279832Y253895D01*
G03X280168I168J168D01*
G37*
G36*
G01Y288895D02*
X280635Y289365D01*
X280000Y290059D01*
X279365Y289365D01*
X279832Y288895D01*
G03X280168I168J168D01*
G37*
G36*
G01X286980Y284258D02*
X286978Y284921D01*
X286037Y284963D01*
X286079Y284022D01*
X286742Y284020D01*
G03X286980Y284258I0J238D01*
G37*
G36*
G01X287152Y277215D02*
X286682Y277682D01*
X285988Y277047D01*
X286682Y276412D01*
X287152Y276879D01*
G03Y277215I-168J168D01*
G37*
G36*
G01X279832Y271105D02*
X279365Y270635D01*
X280000Y269941D01*
X280635Y270635D01*
X280168Y271105D01*
G03X279832I-168J-168D01*
G37*
G36*
G01X299663Y295900D02*
X299000D01*
X298958Y294958D01*
X299900Y295000D01*
Y295663D01*
G03X299663Y295900I-237J0D01*
G37*
G36*
G01X285832Y291105D02*
X285365Y290635D01*
X286000Y289941D01*
X286635Y290635D01*
X286168Y291105D01*
G03X285832I-168J-168D01*
G37*
G36*
G01X292832Y296105D02*
X292365Y295635D01*
X293000Y294941D01*
X293635Y295635D01*
X293168Y296105D01*
G03X292832I-168J-168D01*
G37*
G36*
G01X314337Y139100D02*
X315000D01*
X315042Y140042D01*
X314102Y140000D01*
X314100Y139337D01*
G03X314337Y139100I237J0D01*
G37*
G36*
G01X309100Y140663D02*
X309102Y140000D01*
X310042Y139958D01*
X310000Y140900D01*
X309337D01*
G03X309100Y140663I0J-237D01*
G37*
G36*
G01X307168Y149895D02*
X307635Y150365D01*
X307000Y151059D01*
X306365Y150365D01*
X306832Y149895D01*
G03X307168I168J168D01*
G37*
G36*
G01X308105Y158168D02*
X307635Y158635D01*
X306941Y158000D01*
X307635Y157365D01*
X308105Y157832D01*
G03Y158168I-168J168D01*
G37*
G36*
G01X306100Y158663D02*
X306102Y158000D01*
X307042Y157958D01*
X307000Y158900D01*
X306337D01*
G03X306100Y158663I0J-237D01*
G37*
G36*
G01X314832Y159105D02*
X314365Y158635D01*
X315000Y157941D01*
X315635Y158635D01*
X315168Y159105D01*
G03X314832I-168J-168D01*
G37*
G36*
G01X318168Y170895D02*
X318635Y171365D01*
X318000Y172059D01*
X317365Y171365D01*
X317832Y170895D01*
G03X318168I168J168D01*
G37*
G36*
G01X307900Y171337D02*
X307898Y172000D01*
X306958Y172042D01*
X307000Y171100D01*
X307663D01*
G03X307900Y171337I0J237D01*
G37*
G36*
G01X303168Y205595D02*
X303635Y206065D01*
X303000Y206759D01*
X302365Y206065D01*
X302832Y205595D01*
G03X303168I168J168D01*
G37*
G36*
G01X319413Y207600D02*
X318750D01*
X318708Y206658D01*
X319648Y206700D01*
X319650Y207363D01*
G03X319413Y207600I-237J0D01*
G37*
G36*
G01X309132Y207805D02*
X308665Y207335D01*
X309300Y206641D01*
X309935Y207335D01*
X309468Y207805D01*
G03X309132I-168J-168D01*
G37*
G36*
G01X304337Y199100D02*
X305000D01*
X305042Y200042D01*
X304102Y200000D01*
X304100Y199337D01*
G03X304337Y199100I237J0D01*
G37*
G36*
G01X310168Y253895D02*
X310635Y254365D01*
X310000Y255059D01*
X309365Y254365D01*
X309832Y253895D01*
G03X310168I168J168D01*
G37*
G36*
G01X299832Y256105D02*
X299365Y255635D01*
X300000Y254941D01*
X300635Y255635D01*
X300168Y256105D01*
G03X299832I-168J-168D01*
G37*
G36*
G01X304832D02*
X304365Y255635D01*
X305000Y254941D01*
X305635Y255635D01*
X305168Y256105D01*
G03X304832I-168J-168D01*
G37*
G36*
G01X305168Y253895D02*
X305635Y254365D01*
X305000Y255059D01*
X304365Y254365D01*
X304832Y253895D01*
G03X305168I168J168D01*
G37*
G36*
G01X316105Y255168D02*
X315635Y255635D01*
X314941Y255000D01*
X315635Y254365D01*
X316105Y254832D01*
G03Y255168I-168J168D01*
G37*
G36*
G01X310168Y268895D02*
X310635Y269365D01*
X310000Y270059D01*
X309365Y269365D01*
X309832Y268895D01*
G03X310168I168J168D01*
G37*
G36*
G01X315168D02*
X315635Y269365D01*
X315000Y270059D01*
X314365Y269365D01*
X314832Y268895D01*
G03X315168I168J168D01*
G37*
G36*
G01X310168Y303895D02*
X310635Y304365D01*
X310000Y305059D01*
X309365Y304365D01*
X309832Y303895D01*
G03X310168I168J168D01*
G37*
G36*
G01X309832Y296105D02*
X309365Y295635D01*
X310000Y294941D01*
X310635Y295635D01*
X310168Y296105D01*
G03X309832I-168J-168D01*
G37*
G36*
G01X311105Y295168D02*
X310635Y295635D01*
X309941Y295000D01*
X310635Y294365D01*
X311105Y294832D01*
G03Y295168I-168J168D01*
G37*
G36*
G01X323832Y71105D02*
X323365Y70635D01*
X324000Y69941D01*
X324635Y70635D01*
X324168Y71105D01*
G03X323832I-168J-168D01*
G37*
G36*
G01X329100Y70663D02*
X329102Y70000D01*
X330042Y69958D01*
X330000Y70900D01*
X329337D01*
G03X329100Y70663I0J-237D01*
G37*
G36*
G01X322337Y139100D02*
X323000D01*
X323042Y140042D01*
X322102Y140000D01*
X322100Y139337D01*
G03X322337Y139100I237J0D01*
G37*
G36*
G01Y142100D02*
X323000D01*
X323042Y143042D01*
X322102Y143000D01*
X322100Y142337D01*
G03X322337Y142100I237J0D01*
G37*
G36*
G01X320168Y141895D02*
X320635Y142365D01*
X320000Y143059D01*
X319365Y142365D01*
X319832Y141895D01*
G03X320168I168J168D01*
G37*
G36*
G01X320663Y158900D02*
X320000D01*
X319958Y157958D01*
X320898Y158000D01*
X320900Y158663D01*
G03X320663Y158900I-237J0D01*
G37*
G36*
G01X320168Y163895D02*
X320635Y164365D01*
X320000Y165059D01*
X319365Y164365D01*
X319832Y163895D01*
G03X320168I168J168D01*
G37*
G36*
G01X319832Y166105D02*
X319365Y165635D01*
X320000Y164941D01*
X320635Y165635D01*
X320168Y166105D01*
G03X319832I-168J-168D01*
G37*
G36*
G01X331100Y158663D02*
X331102Y158000D01*
X332042Y157958D01*
X332000Y158900D01*
X331337D01*
G03X331100Y158663I0J-237D01*
G37*
G36*
G01X323832Y159105D02*
X323365Y158635D01*
X324000Y157941D01*
X324635Y158635D01*
X324168Y159105D01*
G03X323832I-168J-168D01*
G37*
G36*
G01X337500Y170563D02*
Y171500D01*
X336980Y172056D01*
X336365Y171364D01*
X337332Y170395D01*
X337500Y170563D01*
G37*
G36*
G01X336337Y179100D02*
X337000D01*
X337042Y180042D01*
X336102Y180000D01*
X336100Y179337D01*
G03X336337Y179100I237J0D01*
G37*
G36*
G01X332900Y171337D02*
X332898Y172000D01*
X331958Y172042D01*
X332000Y171100D01*
X332663D01*
G03X332900Y171337I0J237D01*
G37*
G36*
G01X322068Y205595D02*
X322535Y206065D01*
X321900Y206759D01*
X321265Y206065D01*
X321732Y205595D01*
G03X322068I168J168D01*
G37*
G36*
G01X320168Y198895D02*
X320635Y199365D01*
X320000Y200059D01*
X319365Y199365D01*
X319832Y198895D01*
G03X320168I168J168D01*
G37*
G36*
G01X332168D02*
X332635Y199365D01*
X332000Y200059D01*
X331365Y199365D01*
X331832Y198895D01*
G03X332168I168J168D01*
G37*
G36*
G01X334874Y312889D02*
X332250Y310250D01*
X335000Y307453D01*
X337750Y310250D01*
X335126Y312889D01*
G03X334874I-126J-139D01*
G37*
G36*
G01X339867Y321257D02*
X338056Y319444D01*
X340000Y317453D01*
X341944Y319444D01*
X340133Y321257D01*
G03X339867I-133J-133D01*
G37*
G36*
G01X349500Y82762D02*
X349502Y80000D01*
X352542Y79958D01*
X352500Y82998D01*
X349738Y83000D01*
G03X349500Y82762I0J-238D01*
G37*
G36*
G01X355262Y73000D02*
X352500Y72998D01*
X352458Y69958D01*
X355498Y70000D01*
X355500Y72762D01*
G03X355262Y73000I-238J0D01*
G37*
G36*
G01X348029Y102649D02*
X349530Y99887D01*
X352550Y99968D01*
X352500Y102998D01*
X348238Y103000D01*
G03X348029Y102649I0J-238D01*
G37*
G36*
G01X346168Y124895D02*
X346635Y125365D01*
X346000Y126059D01*
X345365Y125365D01*
X345832Y124895D01*
G03X346168I168J168D01*
G37*
G36*
G01X345337Y128100D02*
X346000D01*
X346042Y129042D01*
X345102Y129000D01*
X345100Y128337D01*
G03X345337Y128100I237J0D01*
G37*
G36*
G01X352332Y134075D02*
X350380Y132121D01*
X352500Y129941D01*
X354620Y132121D01*
X352668Y134075D01*
G03X352332I-168J-168D01*
G37*
G36*
G01X349500Y162762D02*
X349502Y160000D01*
X352542Y159958D01*
X352500Y162998D01*
X349738Y163000D01*
G03X349500Y162762I0J-238D01*
G37*
G36*
G01X340168Y149895D02*
X340635Y150365D01*
X340000Y151059D01*
X339365Y150365D01*
X339832Y149895D01*
G03X340168I168J168D01*
G37*
G36*
G01X343168D02*
X343635Y150365D01*
X343000Y151059D01*
X342365Y150365D01*
X342832Y149895D01*
G03X343168I168J168D01*
G37*
G36*
G01X345832Y152105D02*
X345365Y151635D01*
X346000Y150941D01*
X346635Y151635D01*
X346168Y152105D01*
G03X345832I-168J-168D01*
G37*
G36*
G01X341895Y162832D02*
X342365Y162365D01*
X343059Y163000D01*
X342365Y163635D01*
X341895Y163168D01*
G03Y162832I168J-168D01*
G37*
G36*
G01X340974Y179289D02*
X340897Y179952D01*
X339956Y179965D01*
X340000Y179026D01*
X340738Y179024D01*
G03X340974Y179289I0J238D01*
G37*
G36*
G01X345528Y289204D02*
X343073Y290657D01*
X340941Y288493D01*
X343121Y286380D01*
X345575Y288832D01*
G03X345528Y289204I-168J168D01*
G37*
G36*
G01X374913Y16200D02*
X371150D01*
X371108Y12158D01*
X375150Y12200D01*
Y15963D01*
G03X374913Y16200I-237J0D01*
G37*
G36*
G01X371318Y32311D02*
X373977Y34972D01*
X371150Y37859D01*
X368323Y34972D01*
X370982Y32311D01*
G03X371318I168J168D01*
G37*
G36*
G01X359738Y67000D02*
X362500Y67002D01*
X362542Y70042D01*
X359502Y70000D01*
X359500Y67238D01*
G03X359738Y67000I238J0D01*
G37*
G36*
G01X374738Y87000D02*
X377500Y87002D01*
X377542Y90042D01*
X374502Y90000D01*
X374500Y87238D01*
G03X374738Y87000I238J0D01*
G37*
G36*
G01X380262Y73000D02*
X377500Y72998D01*
X377458Y69958D01*
X380498Y70000D01*
X380500Y72762D01*
G03X380262Y73000I-238J0D01*
G37*
G36*
G01X366575Y90168D02*
X364621Y92120D01*
X362441Y90000D01*
X364621Y87880D01*
X366575Y89832D01*
G03Y90168I-168J168D01*
G37*
G36*
G01Y120168D02*
X364621Y122120D01*
X362441Y120000D01*
X364621Y117880D01*
X366575Y119832D01*
G03Y120168I-168J168D01*
G37*
G36*
G01X369105Y122168D02*
X368635Y122635D01*
X367941Y122000D01*
X368635Y121365D01*
X369105Y121832D01*
G03Y122168I-168J168D01*
G37*
G36*
G01X374500Y122762D02*
X374502Y120000D01*
X377542Y119958D01*
X377500Y122998D01*
X374738Y123000D01*
G03X374500Y122762I0J-238D01*
G37*
G36*
G01X362332Y144075D02*
X360380Y142121D01*
X362500Y139941D01*
X364620Y142121D01*
X362668Y144075D01*
G03X362332I-168J-168D01*
G37*
G36*
G01X374500Y132762D02*
X374502Y130000D01*
X377542Y129958D01*
X377500Y132998D01*
X374738Y133000D01*
G03X374500Y132762I0J-238D01*
G37*
G36*
G01X380262Y143000D02*
X377500Y142998D01*
X377458Y139958D01*
X380498Y140000D01*
X380500Y142762D01*
G03X380262Y143000I-238J0D01*
G37*
G36*
G01X367832Y160105D02*
X367365Y159635D01*
X368000Y158941D01*
X368635Y159635D01*
X368168Y160105D01*
G03X367832I-168J-168D01*
G37*
G36*
G01X374500Y162762D02*
X374502Y160000D01*
X377542Y159958D01*
X377500Y162998D01*
X374738Y163000D01*
G03X374500Y162762I0J-238D01*
G37*
G36*
G01X359500Y172762D02*
X359502Y170000D01*
X362542Y169958D01*
X362500Y172998D01*
X359738Y173000D01*
G03X359500Y172762I0J-238D01*
G37*
G36*
G01X380262Y173000D02*
X377500Y172998D01*
X377458Y169958D01*
X380498Y170000D01*
X380500Y172762D01*
G03X380262Y173000I-238J0D01*
G37*
G36*
G01X378528Y289204D02*
X376073Y290657D01*
X373941Y288493D01*
X376121Y286380D01*
X378575Y288832D01*
G03X378528Y289204I-168J168D01*
G37*
G36*
G01X364867Y311257D02*
X363056Y309444D01*
X365000Y307453D01*
X366944Y309444D01*
X365133Y311257D01*
G03X364867I-133J-133D01*
G37*
G36*
G01X369867Y321257D02*
X368056Y319444D01*
X370000Y317453D01*
X371944Y319444D01*
X370133Y321257D01*
G03X369867I-133J-133D01*
G37*
G36*
G01X388682Y17689D02*
X386023Y15028D01*
X388850Y12141D01*
X391677Y15028D01*
X389018Y17689D01*
G03X388682I-168J-168D01*
G37*
G36*
G01X385087Y33800D02*
X388850D01*
X388892Y37842D01*
X384850Y37800D01*
Y34037D01*
G03X385087Y33800I237J0D01*
G37*
G36*
G01X380832Y281105D02*
X380365Y280635D01*
X381000Y279941D01*
X381635Y280635D01*
X381168Y281105D01*
G03X380832I-168J-168D01*
G37*
G36*
G01X415000Y-5000D02*
X405000D01*
Y-15000D01*
X400000D01*
Y0D01*
X415000D01*
Y-5000D01*
G37*
G36*
G01X405000Y375000D02*
Y365000D01*
X415000D01*
Y360000D01*
X400000D01*
Y375000D01*
X405000D01*
G37*
%LPC*%
G75*
G54D71*
X87000Y228025D03*
X90000Y229000D03*
X84000Y227000D03*
X93000Y230000D03*
X96000Y231000D03*
X166732Y243000D03*
X172638D03*
X188000Y236000D03*
Y232000D03*
X219528Y173622D03*
G54D72*
X168000Y250000D03*
%LPD*%
G75*
G54D10*
G01X352505Y353000D02*
X325000D01*
X320000Y348000D01*
Y332500D01*
X322000Y330500D01*
G01X352505Y353000D02*
X380000D01*
X385000Y348000D01*
Y332500D01*
X383000Y330500D01*
X15000Y15000D03*
X12000Y231500D03*
X17000D03*
X12000Y251500D03*
X17000D03*
X12000Y246500D03*
X17000D03*
X12000Y241500D03*
X17000D03*
X12000Y236500D03*
X17000D03*
X12000Y261500D03*
X17000D03*
X12000Y256500D03*
X17000D03*
Y266500D03*
X12000D03*
X17000Y271500D03*
X12000D03*
X17000Y276500D03*
X12000D03*
X15000Y345000D03*
X29500Y231500D03*
X34500D03*
X29500Y251500D03*
X34500D03*
X29500Y246500D03*
X34500D03*
X29500Y241500D03*
X34500D03*
X29500Y236500D03*
X34500D03*
X29500Y261500D03*
X34500D03*
X29500Y256500D03*
X34500D03*
Y266500D03*
X29500D03*
X34500Y271500D03*
X29500D03*
X34500Y276500D03*
X29500D03*
X295000Y345000D03*
G54D11*
X15000Y55000D03*
Y325000D03*
X295000Y55000D03*
Y325000D03*
G54D20*
X32650Y23000D03*
X29350D03*
G54D30*
X86950Y299500D03*
X86850Y310400D03*
X93250Y299500D03*
X93150Y310400D03*
X158050Y270500D03*
X158150Y259600D03*
X151750Y270500D03*
X151850Y259600D03*
X158050Y310500D03*
X158150Y299600D03*
X151750Y310500D03*
X151850Y299600D03*
G54D21*
X38563Y303740D03*
Y296260D03*
X46437Y300000D03*
G54D12*
X8200Y73150D03*
Y90850D03*
X33800Y73150D03*
Y90850D03*
X155315Y352343D03*
X203850Y292200D03*
X186150D03*
X203850Y317800D03*
X186150D03*
X205827Y348406D03*
X371150Y12200D03*
Y37800D03*
X388850Y12200D03*
Y37800D03*
G54D31*
X89000Y330500D03*
G54D22*
X35100Y325800D03*
X54000Y338600D03*
G54D40*
X158240Y325579D03*
X150760D03*
Y335421D03*
X154500D03*
X158240D03*
X206260Y69921D03*
X210000D03*
X213740D03*
Y60079D03*
X206260D03*
G54D13*
X18000Y84000D03*
Y80000D03*
X24000Y84000D03*
Y80000D03*
X35000Y158000D03*
Y162000D03*
X40000D03*
Y158000D03*
X25000Y298000D03*
Y302000D03*
Y348000D03*
X33000D03*
X25000Y352000D03*
X33000D03*
X53000Y85000D03*
Y89000D03*
X57000Y85000D03*
Y89000D03*
X60000Y142000D03*
Y138000D03*
X50000Y158000D03*
Y162000D03*
X60000D03*
Y158000D03*
X55000Y162000D03*
Y158000D03*
X45000Y162000D03*
Y158000D03*
Y178000D03*
Y182000D03*
X55000D03*
Y178000D03*
X50000D03*
Y182000D03*
X60000D03*
Y178000D03*
X58000Y208000D03*
X47000D03*
X53000D03*
X58000Y212000D03*
X47000D03*
X53000D03*
X51000Y266000D03*
Y262000D03*
Y281000D03*
Y277000D03*
X61000Y89000D03*
Y85000D03*
X74000Y107000D03*
Y111000D03*
X80000Y162000D03*
Y158000D03*
X65000D03*
Y162000D03*
X75000D03*
Y158000D03*
X70000Y162000D03*
Y158000D03*
X75000Y182000D03*
Y178000D03*
X65000D03*
Y182000D03*
X70000Y178000D03*
Y182000D03*
X77000Y208000D03*
X72000D03*
X77000Y212000D03*
X72000D03*
X68000Y262000D03*
Y266000D03*
X76000Y262000D03*
Y266000D03*
X68000Y277000D03*
Y281000D03*
X76000Y277000D03*
Y281000D03*
X96000Y26000D03*
Y30000D03*
X90000Y26000D03*
Y30000D03*
X96000Y42000D03*
Y38000D03*
X90000Y42000D03*
Y38000D03*
X85000Y162000D03*
Y158000D03*
X90000Y178000D03*
Y182000D03*
X82000Y208000D03*
Y193000D03*
Y197000D03*
Y212000D03*
X110000Y78000D03*
Y74000D03*
Y84000D03*
Y88000D03*
X105000Y78000D03*
Y74000D03*
X110000Y97000D03*
Y93000D03*
X111000Y256000D03*
Y260000D03*
X115000Y256000D03*
Y260000D03*
Y348000D03*
X120000D03*
X115000Y352000D03*
X120000D03*
X132600Y21700D03*
Y25700D03*
X133000Y59000D03*
Y55000D03*
X129000Y59000D03*
Y55000D03*
X125000D03*
Y59000D03*
Y69000D03*
X137000Y55000D03*
Y59000D03*
X129000Y69000D03*
X125000Y73000D03*
Y87000D03*
X129000Y73000D03*
X135000Y85000D03*
Y81000D03*
X125000Y81250D03*
Y77250D03*
Y96000D03*
Y100000D03*
Y91000D03*
X140000Y107000D03*
X125000D03*
X140000Y111000D03*
X125000D03*
X140000Y209500D03*
Y205500D03*
Y235500D03*
Y239500D03*
X123000Y260000D03*
Y256000D03*
X129000Y281000D03*
Y277000D03*
X137000Y290000D03*
Y286000D03*
X133000D03*
Y290000D03*
X129000D03*
Y286000D03*
X125000Y348000D03*
Y352000D03*
X141000Y38000D03*
Y42000D03*
X145000Y38000D03*
Y42000D03*
X157000D03*
Y38000D03*
X149000D03*
Y42000D03*
X153000D03*
Y38000D03*
X157000Y55000D03*
Y59000D03*
X149000Y55000D03*
Y59000D03*
X141000D03*
Y55000D03*
X145000Y59000D03*
Y55000D03*
X153000D03*
Y59000D03*
X155000Y107000D03*
Y111000D03*
X160000Y209500D03*
Y205500D03*
X152000Y220500D03*
Y224500D03*
X160000Y220500D03*
Y224500D03*
X156000Y220500D03*
Y224500D03*
X148000Y220500D03*
Y224500D03*
X160000Y235500D03*
Y239500D03*
X141000Y290000D03*
Y286000D03*
X179300Y21200D03*
Y25200D03*
X165000Y38000D03*
Y42000D03*
X169000Y38000D03*
Y42000D03*
X161000Y38000D03*
Y42000D03*
X177000Y69000D03*
X165000Y59000D03*
Y55000D03*
X161000Y59000D03*
Y55000D03*
X169000Y85000D03*
Y81000D03*
X173000Y85000D03*
Y81000D03*
X177000Y73000D03*
X165000Y85000D03*
Y81000D03*
X177000D03*
Y85000D03*
X173000Y96000D03*
Y100000D03*
X169000D03*
Y96000D03*
Y107000D03*
X177000Y100000D03*
Y96000D03*
X169000Y111000D03*
X176000Y220500D03*
Y224500D03*
X168000Y220500D03*
Y224500D03*
X164000Y220500D03*
Y224500D03*
X172000Y220500D03*
Y224500D03*
X200000Y61000D03*
Y57000D03*
X190000Y97000D03*
Y93000D03*
X195000D03*
Y97000D03*
X200000Y224500D03*
Y220500D03*
Y242000D03*
Y238000D03*
X195000Y259000D03*
Y263000D03*
X190000Y267000D03*
Y271000D03*
X203750Y33000D03*
Y37000D03*
X204000Y87000D03*
Y83000D03*
X209000Y87000D03*
Y83000D03*
X214000D03*
Y87000D03*
X213225Y110200D03*
Y114200D03*
X220000Y220500D03*
Y224500D03*
X210000D03*
Y220500D03*
X215000Y224500D03*
Y220500D03*
X220000Y242000D03*
Y238000D03*
X210000Y242000D03*
Y238000D03*
X215000Y263000D03*
Y267000D03*
Y253000D03*
Y257000D03*
X221000Y61000D03*
Y57000D03*
X237000Y69000D03*
Y57000D03*
Y61000D03*
Y73000D03*
X225000Y93000D03*
Y97000D03*
X236850Y110200D03*
X227400D03*
X222675D03*
X232125D03*
X236850Y114200D03*
X227400D03*
X222675D03*
X232125D03*
X225827Y189800D03*
Y185800D03*
X235275Y189800D03*
Y185800D03*
X225000Y220500D03*
Y224500D03*
X230000D03*
Y220500D03*
X235000Y238000D03*
Y242000D03*
X225000Y238000D03*
Y242000D03*
X230000Y238000D03*
Y242000D03*
X240000D03*
Y238000D03*
X235000Y257000D03*
Y253000D03*
Y263000D03*
Y267000D03*
X257000Y69000D03*
Y61000D03*
Y57000D03*
X249000Y69000D03*
Y57000D03*
Y61000D03*
X245000Y69000D03*
Y57000D03*
Y61000D03*
X241000Y69000D03*
Y57000D03*
Y61000D03*
X257000Y73000D03*
X249000D03*
X245000D03*
X241000D03*
X255750Y110200D03*
X247000Y93000D03*
Y97000D03*
X251025Y110200D03*
X241600D03*
X255750Y114200D03*
X251025D03*
X241600D03*
X241575Y141700D03*
Y145700D03*
Y132250D03*
Y136250D03*
Y155150D03*
Y151150D03*
Y160600D03*
Y164600D03*
Y170050D03*
X251025Y189800D03*
Y185800D03*
X255750Y189800D03*
Y185800D03*
X246300Y189800D03*
Y185800D03*
X241575Y189800D03*
Y185800D03*
Y174050D03*
X260000Y220500D03*
Y224500D03*
X255000D03*
Y220500D03*
X250000Y242000D03*
Y238000D03*
X260000Y242000D03*
Y238000D03*
X242000Y287000D03*
Y283000D03*
X261000Y69000D03*
Y57000D03*
Y61000D03*
X265000Y57000D03*
Y61000D03*
X261000Y73000D03*
X273000Y93000D03*
Y97000D03*
X268000Y93000D03*
Y97000D03*
X262000Y93000D03*
Y97000D03*
X260475Y110200D03*
Y114200D03*
Y189800D03*
Y185800D03*
X265000Y220500D03*
Y224500D03*
X270000D03*
Y220500D03*
X280000Y248000D03*
X270000Y242000D03*
Y238000D03*
X280000Y252000D03*
Y258000D03*
Y262000D03*
Y287000D03*
Y283000D03*
Y273000D03*
Y277000D03*
X299000Y167000D03*
Y163000D03*
X285000Y248000D03*
X290000D03*
X285000Y252000D03*
X290000D03*
Y258000D03*
Y262000D03*
X285000Y258000D03*
Y262000D03*
X300000Y258000D03*
Y262000D03*
X295000Y258000D03*
Y262000D03*
X290000Y287500D03*
Y283500D03*
Y273000D03*
Y277000D03*
X285000Y302000D03*
Y298000D03*
X300000D03*
Y302000D03*
X295000Y298000D03*
Y302000D03*
X315000Y53000D03*
Y57000D03*
Y167000D03*
Y163000D03*
X310000Y167000D03*
Y163000D03*
X304000D03*
Y167000D03*
X312450Y228325D03*
X305000Y248000D03*
X310000D03*
X312450Y232325D03*
X305000Y252000D03*
X310000D03*
X315000Y262000D03*
Y258000D03*
X310000Y262000D03*
Y258000D03*
X305000D03*
Y262000D03*
X320000Y258000D03*
Y262000D03*
X310000Y302000D03*
Y298000D03*
X305000Y302000D03*
Y298000D03*
X335000Y25000D03*
Y29000D03*
Y48000D03*
Y52000D03*
Y163000D03*
Y167000D03*
X340000Y163000D03*
Y167000D03*
X324000Y163000D03*
Y167000D03*
X329000D03*
Y163000D03*
X335000Y329500D03*
Y325500D03*
X340000Y329500D03*
Y325500D03*
X348000Y289000D03*
Y285000D03*
X350000Y329500D03*
Y325500D03*
X355000Y329500D03*
Y325500D03*
X377000Y23000D03*
Y27000D03*
X370000Y329500D03*
Y325500D03*
X365000Y329500D03*
Y325500D03*
X383000Y23000D03*
Y27000D03*
X381000Y289000D03*
Y285000D03*
G54D32*
X85161Y322154D03*
X87720D03*
X90280D03*
X92839D03*
Y338846D03*
X90280D03*
X87720D03*
X85161D03*
G54D50*
X221457Y311182D03*
X278543Y316300D03*
G54D41*
X171142Y348406D03*
X176142D03*
X186142D03*
X191142D03*
G54D14*
G01X18000Y84000D02*
Y87000D01*
G01X12000Y231500D02*
X17000D01*
G01X29000Y18000D02*
X25000D01*
G01X32650Y23000D02*
X38000D01*
X39000Y22000D01*
G01X33000Y28000D02*
X37126D01*
X39063Y26063D01*
G01X29000Y28000D02*
X25000D01*
G01X29000D02*
Y26000D01*
X29350Y25650D01*
Y23000D01*
G01X33000Y43000D02*
X36000D01*
X39000Y40000D01*
Y38000D01*
G01X29000Y43000D02*
X25000D01*
G01X24000Y80000D02*
Y76000D01*
G01X35000Y162000D02*
Y165000D01*
G01X45000Y182000D02*
X40000D01*
G01X25000Y290000D02*
X22000Y293000D01*
Y301000D01*
X23000Y302000D01*
X25000D01*
G01X34000Y300000D02*
Y297260D01*
X35000Y296260D01*
X38563D01*
G01X57000Y89000D02*
X53000D01*
G01X57000Y92000D02*
Y89000D01*
G01X53000Y92000D02*
Y89000D01*
G01X57000Y85000D02*
X53000D01*
G01D02*
Y78000D01*
G01X57000Y85000D02*
Y78000D01*
G01Y95000D02*
X53000D01*
G01X57000D02*
Y92000D01*
G01X53000Y95000D02*
Y92000D01*
G01D02*
X57000D01*
G01X53000Y95000D02*
Y98000D01*
G01D02*
Y101000D01*
G01Y98000D02*
X57000D01*
G01X53000Y101000D02*
X50000D01*
X47000Y104000D01*
Y127000D01*
X55000Y135000D01*
G01X57000Y98000D02*
Y95000D01*
G01X67500Y98000D02*
X57000D01*
G01Y101000D02*
Y106000D01*
X56000Y107000D01*
G01X60000Y142000D02*
X62000D01*
X63000Y141000D01*
G01X60000Y158000D02*
Y155000D01*
G01X45000Y158000D02*
Y155000D01*
G01X50000Y162000D02*
Y165000D01*
G01Y182000D02*
X55000D01*
G01D02*
X60000D01*
G01D02*
Y190000D01*
G01Y178000D02*
Y173000D01*
G01X47000Y212000D02*
X49000D01*
X50000Y211000D01*
Y209000D01*
X51000Y208000D01*
X53000D01*
G01X58000D02*
X53000D01*
G01X47000Y217000D02*
Y212000D01*
G01X52000Y249000D02*
X47000D01*
G01X56000Y239000D02*
Y244000D01*
G01D02*
Y249000D01*
G01X52000Y239000D02*
Y236000D01*
G01Y239000D02*
X47000D01*
G01D02*
Y243000D01*
X44000Y246000D01*
Y268000D01*
X51000Y275000D01*
Y277000D01*
G01X86000Y292500D02*
X81000D01*
X74500Y286000D01*
X64000D01*
X60000Y282000D01*
Y264000D01*
X58000Y262000D01*
X51000D01*
G01X46437Y300000D02*
Y306437D01*
X54000Y314000D01*
G01X71000Y28000D02*
Y23000D01*
G01D02*
X75000D01*
G01X71000Y18000D02*
X75000D01*
G01X67000D02*
X62000D01*
X61000Y19000D01*
G01X71000Y33000D02*
X75000D01*
G01X71000Y38000D02*
X75000D01*
G01X71000Y43000D02*
X75000D01*
G01X71000Y78000D02*
X67000D01*
G01X69000Y83250D02*
X71000Y81250D01*
Y78000D01*
G01X67000D02*
Y81250D01*
X69000Y83250D01*
G01X61000Y85000D02*
X63000D01*
X64750Y83250D01*
X69000D01*
G01X61000Y89000D02*
Y95000D01*
G01X70500Y98000D02*
X67500D01*
G01X70500D02*
Y92250D01*
X69000Y90750D01*
G01X67500Y98000D02*
Y95000D01*
G01D02*
Y92250D01*
X69000Y90750D01*
G01X74000Y107000D02*
Y101000D01*
G01X68000D02*
X74000D01*
G01Y98000D02*
Y101000D01*
G01X64000D02*
Y107000D01*
G01X74000Y111000D02*
X68000D01*
G01X80000Y158000D02*
X85000D01*
G01X75000D02*
Y155000D01*
G01X65000Y162000D02*
Y165000D01*
G01X75000Y182000D02*
X70000D01*
G01D02*
Y190000D01*
G01X65000Y182000D02*
Y190000D01*
G01X70000Y178000D02*
Y175094D01*
X67953Y173047D01*
G01X72000Y212000D02*
X77000D01*
G01D02*
X82000D01*
G01X68000Y249000D02*
X65000D01*
G01X80000Y246000D02*
X82000D01*
X83000Y247000D01*
Y249000D01*
G01X72000D02*
X75000D01*
G01X72000Y239000D02*
X75000D01*
G01X83000Y242000D02*
X80000D01*
G01X68000Y239000D02*
Y236000D01*
G01Y239000D02*
X65000D01*
G01D02*
Y236000D01*
G01X76000Y262000D02*
X81000D01*
G01X76000D02*
X68000D01*
G01X76000Y277000D02*
X81000D01*
G01X76000D02*
X68000D01*
G01X105000Y78000D02*
X100000D01*
X97000Y75000D01*
G01X89000Y104000D02*
X94000D01*
X95000Y105000D01*
Y110000D01*
G01X81000Y123000D02*
Y121000D01*
X82000Y120000D01*
X86000D01*
G01X85000Y158000D02*
Y155000D01*
G01X82000Y193000D02*
Y185750D01*
G01X98000Y190000D02*
Y180000D01*
G01D02*
Y178000D01*
X95000Y175000D01*
G01X82000Y178000D02*
X86000D01*
X87000Y179000D01*
Y181000D01*
X88000Y182000D01*
X90000D01*
G01X102000Y195000D02*
X100000D01*
X98000Y197000D01*
Y200000D01*
G01Y210000D02*
X95000D01*
G01X82000Y197000D02*
Y201500D01*
X84500Y204000D01*
X87000D01*
G01X93000Y225000D02*
Y213000D01*
X87000Y207000D01*
G01X82000Y208000D02*
X86000D01*
X87000Y207000D01*
G01Y212000D02*
X82000D01*
G01X98000Y249000D02*
X95000D01*
G01X87000D02*
Y246000D01*
X83000Y242000D01*
G01Y239000D02*
Y242000D01*
G01X90000D02*
X88000D01*
X87000Y241000D01*
Y239000D01*
G01D02*
Y236000D01*
G01X98000Y239000D02*
Y236000D01*
G01Y239000D02*
X95000D01*
G01D02*
Y236000D01*
G01X91250Y275000D02*
Y270250D01*
X90000Y269000D01*
G01X123000Y243000D02*
X126000Y246000D01*
Y268000D01*
X122000Y272000D01*
X106000D01*
X103000Y269000D01*
X100000D01*
G01X106000Y286890D02*
X98860D01*
X98750Y287000D01*
G01X106000Y275079D02*
X98829D01*
X98750Y275000D01*
G01X90000Y281000D02*
X91250Y282250D01*
Y287000D01*
G01X93250Y299500D02*
Y292500D01*
G01D02*
X97000D01*
G01X99154Y338846D02*
X103000Y335000D01*
X115000D01*
G01X118000Y69000D02*
X122000Y73000D01*
X125000D01*
G01X121000Y87000D02*
X120079Y87921D01*
X118000D01*
G01X110000Y97000D02*
X113000D01*
G01X125000Y91000D02*
X118000D01*
G01X102000Y190000D02*
Y195000D01*
G01X105000Y183000D02*
X103000D01*
X102000Y182000D01*
Y180000D01*
G01Y195000D02*
X105000D01*
G01Y210000D02*
X102000D01*
G01Y200000D02*
X105000D01*
G01X102000Y249000D02*
X105000D01*
G01X102000Y239000D02*
X105000D01*
G01X108000Y246000D02*
Y252000D01*
X107000Y253000D01*
Y259000D01*
X108000Y260000D01*
X111000D01*
G01X123000Y256000D02*
X119000D01*
Y259000D01*
X118000Y260000D01*
X115000D01*
G01X111000Y256000D02*
X115000D01*
G01D02*
Y253000D01*
G01X111000Y260000D02*
Y266000D01*
X110000Y267000D01*
G01X120000Y301250D02*
Y296000D01*
G01X110000Y308750D02*
X108500Y310250D01*
Y314000D01*
G01X111500D02*
Y310250D01*
X110000Y308750D01*
G01X120000D02*
Y313000D01*
G01X110000Y301250D02*
X111500Y299750D01*
Y296000D01*
G01D02*
X108500D01*
G01D02*
Y299750D01*
X110000Y301250D01*
G01X120000Y320750D02*
Y324000D01*
X122000Y326000D01*
G01X115000Y320750D02*
Y316500D01*
G01X108500Y314000D02*
X111500D01*
G01X105000Y340250D02*
Y345000D01*
G01X120000Y348000D02*
X115000D01*
G01Y340250D02*
Y348000D01*
G01X130000Y320750D02*
Y326000D01*
X121000Y335000D01*
X115000D01*
G01D02*
Y340250D01*
G01X122500Y352000D02*
X120000D01*
G01D02*
X115000D01*
G01X137000Y62000D02*
Y64250D01*
X135000Y66250D01*
G01X137000Y59000D02*
Y62000D01*
G01X133000Y59000D02*
Y62000D01*
G01X129000Y59000D02*
Y62000D01*
G01Y69000D02*
Y66000D01*
G01X125000Y69000D02*
X129000D01*
G01X121000Y62000D02*
Y56000D01*
X122000Y55000D01*
X125000D01*
G01X137000D02*
Y52000D01*
G01X135000Y78000D02*
Y81000D01*
G01Y73750D02*
Y78000D01*
G01X129000Y73000D02*
Y76000D01*
G01X135000Y85000D02*
Y88000D01*
G01X125000Y77250D02*
X122250D01*
X121000Y78500D01*
Y87000D01*
G01X125000D02*
X121000D01*
G01X125000Y107000D02*
Y104000D01*
G01X140000Y103000D02*
Y107000D01*
G01X130000Y100000D02*
X125000D01*
G01Y91000D02*
X130000D01*
G01X123450Y124800D02*
X126550D01*
X127650Y125900D01*
G01X125000Y111000D02*
X127300D01*
X127500Y111200D01*
G01X139200Y124800D02*
X136250D01*
X135150Y125900D01*
G01X140000Y114000D02*
Y111000D01*
G01X126175Y138975D02*
X123450D01*
G01X126175Y132675D02*
X123450D01*
G01X126175Y145275D02*
X123450D01*
G01X121875Y148425D02*
X129200D01*
X130175Y147450D01*
Y145275D01*
G01X134477Y145276D02*
X130176D01*
X130175Y145275D01*
G01X121875Y142125D02*
X129200D01*
X130175Y141150D01*
Y138975D01*
G01X134477Y138977D02*
X130177D01*
X130175Y138975D01*
G01X121875Y135825D02*
X129200D01*
X130175Y134850D01*
Y132675D01*
G01X134477Y132678D02*
X130178D01*
X130175Y132675D01*
G01X126175Y151575D02*
X123450D01*
G01X126175Y161025D02*
X123450D01*
G01X126175Y165750D02*
X123450D01*
G01X134477Y170473D02*
X130177D01*
X130175Y170475D01*
G01X121875Y157875D02*
X129200D01*
X130175Y158850D01*
Y161025D01*
G01X134477Y161024D02*
X130176D01*
X130175Y161025D01*
G01X121875Y154725D02*
X129200D01*
X130175Y153750D01*
Y151575D01*
G01X134477Y151576D02*
X130176D01*
X130175Y151575D01*
G01X127575Y187800D02*
X123450D01*
G01X126175Y170475D02*
X123450D01*
G01X142000Y190500D02*
X139300Y187800D01*
X139200D01*
G01X135075D02*
X139200D01*
G01X140000Y209500D02*
Y212173D01*
X139173Y213000D01*
G01X145079D02*
Y207579D01*
X143000Y205500D01*
X140000D01*
G01X145079Y243000D02*
X145000Y242921D01*
Y241000D01*
X143500Y239500D01*
X140000D01*
G01Y235500D02*
Y233000D01*
X139173Y232173D01*
G01X123000Y256000D02*
Y253000D01*
G01X135000Y261250D02*
Y256000D01*
G01X129000Y290000D02*
Y294000D01*
G01Y277000D02*
X130968D01*
X132984Y279016D01*
G01X137000Y290000D02*
Y294000D01*
G01X133000Y290000D02*
Y294000D01*
G01X137000Y290000D02*
X133000D01*
G01Y294000D02*
X137000D01*
G01D02*
X136500Y294500D01*
Y299750D01*
X135000Y301250D01*
G01X133000Y294000D02*
X133500Y294500D01*
Y299750D01*
X135000Y301250D01*
G01X130000Y332000D02*
X135000Y327000D01*
Y320750D01*
G01X130000Y345000D02*
X139000D01*
X140000Y344000D01*
Y340250D01*
G01X125000Y348000D02*
X128000D01*
X130000Y346000D01*
Y345000D01*
G01X135000Y340250D02*
Y335000D01*
X143000Y327000D01*
G01X125000Y345000D02*
X123475D01*
X122500Y345975D01*
Y352000D01*
G01X125000Y340250D02*
Y345000D01*
G01X130000Y340250D02*
Y332000D01*
G01X125000Y352000D02*
X122500D01*
G01X145000Y42000D02*
Y45000D01*
G01X149000Y42000D02*
Y45000D01*
G01X153000Y62000D02*
Y59000D01*
G01X160000Y66000D02*
X155000D01*
X153000Y64000D01*
Y62000D01*
G01X165000Y66250D02*
X164750Y66000D01*
X160000D01*
G01X153000Y55000D02*
Y52000D01*
G01X157000Y55000D02*
Y52000D01*
G01X149016D02*
X149000Y52016D01*
Y55000D01*
G01X141000Y59000D02*
Y62000D01*
G01X153000Y103000D02*
X155000Y105000D01*
Y107000D01*
G01X153000Y114000D02*
X154000D01*
X155000Y113000D01*
Y111000D01*
G01X140776Y145276D02*
X140777Y145275D01*
X148650D01*
X150650Y143275D01*
Y138975D01*
G01X146650D02*
X140778D01*
X140776Y138977D01*
G01X146650Y165750D02*
Y161025D01*
G01D02*
X140777D01*
X140776Y161024D01*
G01X213229Y183075D02*
Y187771D01*
X206000Y195000D01*
X186500D01*
X178000Y186500D01*
Y173000D01*
X172000Y167000D01*
X155000D01*
X153750Y165750D01*
X150650D01*
G01Y156300D02*
Y151575D01*
G01Y165750D02*
Y161025D01*
G01X159674Y161024D02*
Y159625D01*
X158699Y158650D01*
X150650D01*
G01Y161025D02*
Y158650D01*
G01D02*
Y156300D01*
G01X146650Y151575D02*
Y156300D01*
G01D02*
X142351D01*
X140776Y154725D01*
G01X162225Y187800D02*
X158100D01*
G01X160000Y209500D02*
Y213000D01*
G01X154921D02*
Y208079D01*
X157500Y205500D01*
X160000D01*
G01X156000Y224500D02*
Y228000D01*
G01X148000Y224500D02*
Y228000D01*
G01X152000Y224500D02*
Y228000D01*
G01X160000Y224500D02*
Y228000D01*
G01Y239500D02*
Y243000D01*
G01Y235500D02*
Y232000D01*
G01X151850Y259600D02*
Y252500D01*
G01X141000Y290000D02*
X145500D01*
X148000Y292500D01*
G01X151850Y299600D02*
Y292500D01*
G01D02*
X148000D01*
G01X143000Y327000D02*
X144421Y325579D01*
X150760D01*
G01X162000Y340000D02*
X159000D01*
X158240Y339240D01*
Y335421D01*
G01X161000Y42000D02*
Y45000D01*
G01X165000Y42000D02*
Y45000D01*
G01Y59000D02*
Y62000D01*
G01X161000Y59000D02*
X165000D01*
G01X163600Y99800D02*
X165121Y98279D01*
Y92879D01*
X167500Y90500D01*
Y86500D01*
X169000Y85000D01*
G01X182000Y72000D02*
Y72025D01*
X181025Y73000D01*
X177000D01*
G01X182000Y77000D02*
X179000D01*
X177000Y79000D01*
Y81000D01*
G01X173000D02*
X177000D01*
G01X165000Y85000D02*
Y88000D01*
G01X181984Y83984D02*
X180968Y85000D01*
X177000D01*
G01X165000Y78000D02*
Y73750D01*
G01Y81000D02*
Y78000D01*
G01X177000Y96000D02*
X182000D01*
G01X169000Y100000D02*
X168900Y99900D01*
X165850D01*
X165750Y99800D01*
X163600D01*
G01X177000Y100000D02*
X182000D01*
G01X173000D02*
X177000D01*
G01X169000Y107000D02*
Y104000D01*
G01Y111000D02*
Y114000D01*
G01X171125Y145275D02*
X173850D01*
G01X171125Y132675D02*
X173850D01*
G01X171125Y138975D02*
X173850D01*
G01X167125Y145275D02*
X167124Y145276D01*
X162823D01*
G01Y138977D02*
X167123D01*
X167125Y138975D01*
G01Y132675D02*
X167122Y132678D01*
X162823D01*
G01X171125Y161025D02*
X173850D01*
G01X171125Y151575D02*
X173850D01*
G01X167125Y161025D02*
X167124Y161024D01*
X162823D01*
G01X167125Y151575D02*
X167124Y151576D01*
X162823D01*
G01X171125Y179925D02*
X173850D01*
G01X169725Y187800D02*
X173850D01*
G01X167125Y179925D02*
X167122Y179922D01*
X162823D01*
G01X164000Y224500D02*
Y228000D01*
G01X172000Y224500D02*
Y228000D01*
G01X176000Y224500D02*
Y228000D01*
G01X168000Y224500D02*
Y228000D01*
G01X225827Y185800D02*
X228000D01*
X229000Y186800D01*
Y196500D01*
X222500Y203000D01*
X188000D01*
X182000Y209000D01*
Y225337D01*
X179500Y227837D01*
G01X232125Y185800D02*
Y197375D01*
X223500Y206000D01*
X190000D01*
X185000Y211000D01*
Y227000D01*
X176000Y236000D01*
G01X200000Y57000D02*
Y53000D01*
G01Y61000D02*
X196000D01*
G01X195000Y93000D02*
Y90000D01*
G01X190000Y93000D02*
X195000D01*
G01X191000Y107000D02*
Y109250D01*
X189000Y111250D01*
G01X191000Y107000D02*
X187000D01*
G01D02*
Y109250D01*
X189000Y111250D01*
G01Y118750D02*
X188250Y118000D01*
X184000D01*
G01X200000Y224500D02*
Y228000D01*
G01Y238000D02*
Y232000D01*
G01X195000Y259000D02*
Y251614D01*
G01X190000Y267000D02*
X195000D01*
Y263000D01*
G01X190000Y267000D02*
Y263000D01*
G01Y271000D02*
X186000D01*
G01X210000Y32000D02*
Y27000D01*
G01X203750Y33000D02*
Y27500D01*
G01X205551Y53000D02*
X206260Y53709D01*
Y60079D01*
G01X213740Y69921D02*
Y75346D01*
X215394Y77000D01*
G01X217750Y95000D02*
X218000Y94750D01*
Y90000D01*
G01X214000Y83000D02*
X209000D01*
G01X204000Y80000D02*
Y83000D01*
G01D02*
X209000D01*
G01X210250Y95000D02*
X211500Y93750D01*
Y91500D01*
X214000Y89000D01*
Y87000D01*
G01X213225Y110200D02*
Y107500D01*
G01X212000Y100000D02*
Y96750D01*
X210250Y95000D01*
G01D02*
X209000Y96250D01*
Y100000D01*
G01X213225Y114200D02*
Y117000D01*
G01X225827Y189800D02*
X223800D01*
X222750Y188750D01*
Y184250D01*
X219400Y180900D01*
G01D02*
X217950D01*
G01X210000Y224500D02*
Y228000D01*
G01X220000Y224500D02*
Y228000D01*
G01X215000Y224500D02*
Y228000D01*
G01X210000Y238000D02*
Y232000D01*
G01X220000Y238000D02*
Y232000D01*
G01X215000Y263000D02*
X218000D01*
X220000Y265000D01*
G01X215000Y253000D02*
X218000D01*
X220000Y255000D01*
G01X215000Y288750D02*
X225000D01*
G01X211500Y273000D02*
X215000Y276500D01*
Y281250D01*
G01X218000Y354489D02*
X217000Y353489D01*
Y339000D01*
X218000Y338000D01*
X220000D01*
X221457Y336543D01*
Y311182D01*
G01X221668Y354489D02*
X218000D01*
G01X237000Y65000D02*
Y61000D01*
G01Y69000D02*
Y65000D01*
G01X221000Y61000D02*
Y65000D01*
G01X225000Y93000D02*
Y90000D01*
G01X231366Y91260D02*
Y95000D01*
G01D02*
Y98740D01*
G01X225000Y97000D02*
X227000D01*
X229000Y95000D01*
X231366D01*
G01X225000Y97000D02*
Y100000D01*
G01X227400Y110200D02*
X222675D01*
G01D02*
Y107475D01*
G01X240000Y107500D02*
X240625D01*
X241600Y108475D01*
Y110200D01*
G01X240000Y107500D02*
Y106500D01*
X237500Y104000D01*
Y100874D01*
X239634Y98740D01*
G01X241600Y110200D02*
X236850D01*
G01D02*
X232125D01*
G01D02*
Y107475D01*
G01Y114200D02*
Y116925D01*
G01X222675Y114200D02*
X227400D01*
G01X235275Y189800D02*
Y192525D01*
G01X225827Y189800D02*
Y192525D01*
G01X235275Y185800D02*
Y183075D01*
G01D02*
X232125D01*
G01X235275Y185800D02*
X232125D01*
G01X225827Y173622D02*
X226102Y173897D01*
G01X228102Y175897D02*
X232125Y179920D01*
Y183075D01*
G01Y185800D02*
Y183075D01*
G01X225827Y185800D02*
Y176772D01*
G01X225000Y224500D02*
Y228000D01*
G01X230000Y220500D02*
Y217000D01*
G01X223000Y250000D02*
Y247000D01*
G01X227000Y250000D02*
Y253000D01*
X225000Y255000D01*
G01X240000Y238000D02*
Y232000D01*
G01X235000Y238000D02*
Y232000D01*
G01Y253000D02*
Y250000D01*
G01X227000Y270000D02*
Y271968D01*
X225984Y272984D01*
G01X235000Y263000D02*
X232000D01*
X230000Y265000D01*
G01X235000Y257000D02*
X232000D01*
X230000Y255000D01*
G01X223000Y270000D02*
Y267000D01*
X225000Y265000D01*
G01X235000Y270000D02*
X232842D01*
X229921Y272921D01*
G01X235000Y267000D02*
Y270000D01*
G01X225000Y288750D02*
Y293000D01*
X226000Y294000D01*
X227000D01*
G01X235000Y288750D02*
Y294000D01*
G01Y281250D02*
X240250D01*
X242000Y283000D01*
G01X225000Y281250D02*
Y277842D01*
X229921Y272921D01*
G01X235000Y281250D02*
Y278000D01*
X229921Y272921D01*
G01X221457Y311182D02*
Y300543D01*
X224000Y298000D01*
X234566D01*
X236516Y299950D01*
G01X260137D02*
X236516D01*
G01X221428Y349509D02*
X225509D01*
X226000Y350000D01*
G01X221668Y354489D02*
X226000D01*
G01X241000Y65000D02*
Y61000D01*
G01Y69000D02*
Y65000D01*
G01X249000Y69000D02*
Y65000D01*
G01Y61000D02*
Y65000D01*
G01X245000D02*
Y69000D01*
G01Y61000D02*
Y65000D01*
G01X254764Y77000D02*
X253000Y75236D01*
Y70000D01*
X254000Y69000D01*
X257000D01*
G01X252795Y53000D02*
Y59795D01*
X254000Y61000D01*
X257000D01*
G01X262000Y93000D02*
Y87500D01*
X260000Y85500D01*
X250000D01*
X248500Y87000D01*
Y91500D01*
X247000Y93000D01*
G01X251025Y110200D02*
Y107475D01*
G01Y114200D02*
Y116925D01*
G01X241575Y189800D02*
Y192525D01*
G01Y179922D02*
Y183075D01*
G01Y185800D02*
Y183075D01*
G01X260000Y224500D02*
Y228000D01*
G01X255000Y224500D02*
Y228000D01*
G01X260000Y238000D02*
Y232000D01*
G01X250000Y238000D02*
Y232000D01*
G01X242000Y287000D02*
Y291000D01*
X245000Y294000D01*
G01X278543Y316300D02*
Y300543D01*
X276000Y298000D01*
X262087D01*
X260137Y299950D01*
G01X261000Y65000D02*
Y61000D01*
G01Y69000D02*
Y65000D01*
G01D02*
X264000D01*
X265000Y64000D01*
Y61000D01*
G01X260475Y110200D02*
Y107475D01*
G01X279800Y124800D02*
X282525D01*
G01X279800Y129525D02*
X282525D01*
G01X278400Y112200D02*
X282525D01*
G01X279800Y120075D02*
X282525D01*
G01X260475Y114200D02*
Y116925D01*
G01X270900Y112200D02*
X266775D01*
G01X275800Y120075D02*
X273075D01*
G01X279800Y134250D02*
X282525D01*
G01X275800Y148425D02*
X273075D01*
G01X275800Y143700D02*
X273075D01*
G01X279800Y148425D02*
Y143700D01*
G01Y148425D02*
X282525D01*
G01X279800Y143700D02*
X282525D01*
G01X279800Y157875D02*
X282525D01*
G01X270900Y187800D02*
X266775D01*
G01X278400D02*
X282525D01*
G01X265000Y224500D02*
Y228000D01*
G01X270000Y224500D02*
Y228000D01*
G01Y238000D02*
Y232000D01*
G01X280000Y262000D02*
X285000D01*
G01X280000Y283000D02*
Y280000D01*
G01D02*
Y277000D01*
G01Y295000D02*
X283000Y292000D01*
Y289000D01*
X284500Y287500D01*
X290000D01*
G01X264862Y301913D02*
Y315000D01*
G01X282000Y354489D02*
X283000Y353489D01*
Y339000D01*
X282000Y338000D01*
X280000D01*
X278543Y336543D01*
Y316300D01*
G01X266500Y337000D02*
Y342500D01*
X270753Y346753D01*
X278572D01*
G01X278332Y354489D02*
X282000D01*
G01X278332D02*
X274000D01*
G01X299000Y167000D02*
Y172000D01*
G01X296275Y225600D02*
X293000D01*
G01X305000Y262000D02*
X300000D01*
G01D02*
X295000D01*
G01X300000D02*
Y265032D01*
X299016Y266016D01*
G01X298000Y270000D02*
Y267032D01*
X299016Y266016D01*
G01X285000Y262000D02*
Y265000D01*
G01X295000Y252000D02*
X294000D01*
X292500Y253500D01*
Y257000D01*
X291500Y258000D01*
X290000D01*
G01X302000Y270000D02*
Y273000D01*
X300000Y275000D01*
G01X290000Y273000D02*
X293000D01*
X295000Y275000D01*
G01X300000Y302000D02*
Y305000D01*
G01X295000Y302000D02*
X300000D01*
G01X295000D02*
Y305000D01*
G01Y302000D02*
X292000D01*
X290256Y300256D01*
Y292000D01*
G01X285000Y302000D02*
Y305000D01*
G01X318000Y40000D02*
X315000D01*
G01Y53000D02*
X317000D01*
X320000Y50000D01*
G01X315000Y60000D02*
Y57000D01*
G01Y167000D02*
Y172000D01*
G01X310000Y163000D02*
X308000D01*
X307000Y164000D01*
Y166000D01*
X306000Y167000D01*
X304000D01*
G01D02*
Y172000D01*
G01X312450Y190350D02*
X317000D01*
G01X312450D02*
X308000D01*
G01X306575Y203550D02*
X312450D01*
G01D02*
X318325D01*
G01X312450Y228325D02*
X309725D01*
X309300Y228750D01*
G01X318750Y222450D02*
X324625D01*
G01X303000Y225600D02*
X300275D01*
G01X324625Y213000D02*
X312450D01*
G01X318750Y222450D02*
X316300Y220000D01*
X312450D01*
G01Y225000D02*
Y228325D01*
G01Y220000D02*
X304000D01*
X303000Y221000D01*
Y225600D01*
G01X312450Y232325D02*
Y235050D01*
G01X312500Y258000D02*
X310000D01*
G01X312500D02*
Y254000D01*
X314500Y252000D01*
X315000D01*
G01Y258000D02*
X312500D01*
G01X320000Y262000D02*
Y266000D01*
G01Y283750D02*
X318000Y285750D01*
Y290000D01*
G01X322000D02*
Y285750D01*
X320000Y283750D01*
G01X305000Y295000D02*
Y290000D01*
G01X310000Y276250D02*
X306250D01*
X305000Y275000D01*
G01Y298000D02*
Y295000D01*
G01Y302000D02*
Y305000D01*
G01X350000Y18000D02*
X340000D01*
G01D02*
X337000D01*
X335000Y20000D01*
Y25000D01*
G01Y29000D02*
X337000D01*
X338000Y28000D01*
Y24000D01*
X338750Y23250D01*
X343000D01*
G01X331201Y33000D02*
X334000D01*
X335000Y32000D01*
Y29000D01*
G01X328000Y40000D02*
Y43000D01*
X330000Y45000D01*
G01X335000Y52000D02*
X332000D01*
X330000Y50000D01*
G01X322047Y36000D02*
Y39953D01*
X322000Y40000D01*
G01X335000Y48000D02*
X338000D01*
X338953Y47047D01*
G01X343000Y30750D02*
Y43000D01*
X338953Y47047D01*
G01X335000Y40000D02*
X332000D01*
G01X340000Y167000D02*
Y172000D01*
G01X324000Y167000D02*
Y173000D01*
X326000Y175000D01*
X338000D01*
X340000Y173000D01*
Y172000D01*
G01X329000Y167000D02*
Y172000D01*
G01X335000Y163000D02*
Y158000D01*
G01X324625Y213000D02*
Y211000D01*
X323475Y209850D01*
X321900D01*
G01X328625Y222450D02*
X332000D01*
G01X328625Y213000D02*
X332000D01*
G01X340000Y329500D02*
Y333000D01*
G01X335000Y329500D02*
Y333000D01*
G01X353000Y23250D02*
Y19000D01*
X352000Y18000D01*
X350000D01*
G01X353000Y30750D02*
X343000D01*
G01X348000Y285000D02*
Y280000D01*
G01X350000Y325500D02*
X347500D01*
X345000Y323000D01*
Y307500D01*
G01X350000Y329500D02*
Y333000D01*
G01X355000Y329500D02*
Y333000D01*
G01X360000Y317500D02*
Y323000D01*
X357500Y325500D01*
X355000D01*
G01D02*
X350000D01*
G01X360000Y342000D02*
X352505D01*
G01D02*
X345000D01*
G01X377000Y27000D02*
Y30000D01*
G01X365000Y329500D02*
Y333000D01*
G01X370000Y329500D02*
Y333000D01*
G01X383000Y23000D02*
Y20000D01*
X18000Y87000D03*
X25000Y18000D03*
X39000Y22000D03*
Y30000D03*
X39063Y26063D03*
X25000Y28000D03*
X39000Y38000D03*
X25000Y43000D03*
X40000Y48000D03*
X25000Y38000D03*
X39000Y33937D03*
X40000Y59000D03*
X24000Y76000D03*
X40000Y140000D03*
Y145000D03*
X35000Y140000D03*
Y165000D03*
Y155000D03*
X40000Y182000D03*
Y188000D03*
Y201000D03*
Y197953D03*
Y208000D03*
X40025Y217000D03*
X34000Y223000D03*
X40000Y220000D03*
Y212000D03*
X22000Y236000D03*
X29000Y297000D03*
X37000Y291000D03*
X29000Y302950D03*
X34000Y300000D03*
Y303000D03*
X25000Y343000D03*
X28950Y347050D03*
X29000Y353000D03*
X50000Y30000D03*
Y19000D03*
X46063Y19063D03*
X48000Y48000D03*
X52000D03*
X45000Y59000D03*
X60000D03*
X50000D03*
X55000D03*
X57000Y78000D03*
X53000D03*
X57000Y95000D03*
X53000D03*
X46000Y98000D03*
X49000D03*
Y95000D03*
X46000D03*
X42000Y117000D03*
Y121000D03*
X60000Y135000D03*
X55000D03*
Y145000D03*
X50000D03*
X60000D03*
X45000D03*
X60000Y155000D03*
X45000D03*
X50000Y165000D03*
Y155000D03*
X60000Y165000D03*
X45000D03*
X57110Y173000D03*
X43000Y185000D03*
X54000Y173000D03*
X43000Y188000D03*
X60000Y173000D03*
X50000D03*
X43000Y195984D03*
Y201000D03*
Y208000D03*
X56142Y217000D03*
X43000Y212000D03*
X42000Y225500D03*
X56000Y220000D03*
X53000Y217000D03*
X47000D03*
Y249000D03*
X56000Y244000D03*
X47000Y239000D03*
Y260260D03*
Y267000D03*
Y275260D03*
Y282000D03*
X44000D03*
X41000D03*
X51000Y294000D03*
Y291000D03*
Y300000D03*
Y297000D03*
Y303000D03*
X75000Y23000D03*
Y18000D03*
X61000Y19000D03*
Y23000D03*
Y30000D03*
X75000Y33000D03*
Y38000D03*
Y43000D03*
X61000Y33937D03*
Y38000D03*
X71000Y78000D03*
X67000D03*
X77000D03*
X67500Y95000D03*
X70500Y98000D03*
X74000D03*
Y101000D03*
X61000Y95000D03*
X77000Y119000D03*
X63000Y141000D03*
Y145000D03*
X75000Y135000D03*
X73000Y145000D03*
X63000Y135000D03*
X68000Y145000D03*
X73000Y141000D03*
X68000Y135000D03*
X75000Y155000D03*
X65000Y165000D03*
Y155000D03*
X75000Y165000D03*
X72000Y173000D03*
X77000D03*
X67953Y173047D03*
X65000Y173000D03*
X75000Y205000D03*
X69000Y217000D03*
X77000Y220000D03*
X61000D03*
X69000D03*
X77000Y217000D03*
X61000D03*
X73000D03*
Y220000D03*
X65000Y249000D03*
X80000Y246000D03*
X65000D03*
X75000D03*
Y249000D03*
Y239000D03*
X80000Y242000D03*
X75000D03*
X80000Y239000D03*
Y249000D03*
X65000Y242000D03*
Y239000D03*
X61000D03*
Y249000D03*
X64000Y260260D03*
Y266000D03*
Y275260D03*
Y281000D03*
X69000Y300000D03*
Y291000D03*
X90000Y23000D03*
Y46000D03*
X96000Y34000D03*
X93000D03*
X90000D03*
Y61000D03*
Y64000D03*
X94055Y61055D03*
X97000Y75000D03*
X81000Y78000D03*
X89000Y104000D03*
X81000Y111000D03*
Y115000D03*
Y123000D03*
X97000Y130000D03*
X89000Y165000D03*
X85000Y155000D03*
X92000D03*
Y165000D03*
X95000Y180048D03*
X90000Y173000D03*
X95000Y190000D03*
X87000Y173000D03*
Y185000D03*
X90000Y190000D03*
X87000D03*
X95000Y175000D03*
X82000Y173000D03*
X95000Y210000D03*
X90000Y204000D03*
Y194000D03*
Y197000D03*
Y200000D03*
X87000Y194016D03*
Y200000D03*
Y204000D03*
X95000Y203000D03*
Y207000D03*
X87000D03*
Y228025D03*
X90000Y229000D03*
X84000Y227000D03*
X93000Y230000D03*
X87000Y212000D03*
X90000Y217000D03*
X81000Y220000D03*
Y217000D03*
X87000D03*
X95000Y249000D03*
X96000Y231000D03*
X90000Y242000D03*
X95000Y239000D03*
Y242000D03*
Y246000D03*
X90000Y249000D03*
Y239000D03*
X81000Y262000D03*
X90000Y269000D03*
X81000Y266000D03*
X100000Y269000D03*
X81000Y277000D03*
X90000Y281000D03*
X81000D03*
X86000Y289000D03*
Y292500D03*
X97000D03*
X93250D03*
X85161Y317805D03*
X87720D03*
X90280D03*
X87720Y344000D03*
X92000Y348000D03*
Y351000D03*
X118000Y69000D03*
X105000Y70000D03*
X109945Y61055D03*
X118000Y85000D03*
Y74000D03*
X118079Y78079D03*
X118000Y81000D03*
Y87921D03*
X113000Y75000D03*
Y97000D03*
X118000Y104000D03*
Y96000D03*
Y100000D03*
X113000Y130000D03*
X120300Y124800D03*
X120000Y114000D03*
X105000Y134000D03*
X120300Y145275D03*
Y138975D03*
Y132675D03*
Y170475D03*
Y161025D03*
Y151575D03*
X105000Y183000D03*
Y180000D03*
Y190000D03*
X120300Y179925D03*
Y187800D03*
X105000Y195000D03*
Y207000D03*
Y203000D03*
Y210000D03*
Y200000D03*
Y246000D03*
Y242000D03*
Y249000D03*
Y239000D03*
X108000Y246000D03*
X119000Y253000D03*
X115000D03*
X119000Y264000D03*
X119016Y267016D03*
X110000Y267000D03*
X106000Y286890D03*
Y275079D03*
Y280000D03*
X120000Y296000D03*
X111500D03*
X108500D03*
X115000Y316500D03*
X108500Y314000D03*
X111500D03*
X111201Y327000D03*
X120000Y313000D03*
X114350Y327000D03*
X105000Y345000D03*
X125000Y62000D03*
X132800Y52200D03*
X128700Y54100D03*
X137000Y62000D03*
X133000D03*
X129000D03*
Y66000D03*
X121000Y62000D03*
X137000Y52000D03*
X135000Y78000D03*
X129000Y76000D03*
X135000Y88000D03*
X129000Y80000D03*
X130000Y85000D03*
X125000Y104000D03*
X130000Y96000D03*
X140000Y103000D03*
X130000Y100000D03*
Y91000D03*
X123450Y124800D03*
X127500Y111200D03*
X137200Y116800D03*
X139200Y124800D03*
X130000Y114000D03*
X135000D03*
X140000D03*
X137626Y135828D03*
Y142127D03*
Y148426D03*
X123450Y138975D03*
Y132675D03*
Y145275D03*
X134477Y145276D03*
Y138977D03*
Y132678D03*
X137626D03*
Y145276D03*
X134477Y148426D03*
X137626Y138977D03*
X134477Y142127D03*
Y135828D03*
X137626Y154725D03*
X123450Y170475D03*
Y151575D03*
Y161025D03*
Y165750D03*
X134477Y164174D03*
X137626D03*
Y161024D03*
Y167324D03*
X134477Y170473D03*
Y161024D03*
Y151576D03*
Y154725D03*
X137626Y170473D03*
X123500Y174000D03*
X134477Y176772D03*
X123450Y187800D03*
X139200D03*
X123500Y176727D03*
X137626Y176772D03*
Y173623D03*
Y179922D03*
X133268Y202000D03*
X127362D03*
X136000Y216000D03*
X132000Y213000D03*
X139173D03*
X127500D03*
X136000D03*
X127362Y243000D03*
X133268D03*
X139173Y232173D03*
X123000Y243000D03*
X129000Y264000D03*
X123000Y253000D03*
X131000D03*
X135000Y256000D03*
X122953Y267000D03*
X123000Y264000D03*
X132984Y279016D03*
X137000Y279000D03*
Y283000D03*
X133000Y274000D03*
Y282953D03*
X129000Y294000D03*
X126000Y296000D03*
X133000Y294000D03*
X137000D03*
X122000Y326000D03*
X130000Y345000D03*
X125000D03*
X130000Y332000D03*
X160300Y23100D03*
X151300Y22900D03*
X157000Y45000D03*
X153700Y35200D03*
X153000Y45000D03*
X145000D03*
X149000D03*
X153000Y62000D03*
X160000Y66000D03*
X157000Y62000D03*
X145000Y52000D03*
X149000Y62000D03*
X145079Y61921D03*
X141000Y52000D03*
X153000D03*
X157000D03*
X149016D03*
X141000Y62000D03*
X153000Y103000D03*
X149000D03*
X160500D03*
X157000D03*
X145000D03*
X157000Y114000D03*
X153000D03*
X149000D03*
X145000D03*
X152000Y126000D03*
X160000Y126025D03*
X140776Y145276D03*
Y132678D03*
X159674Y148426D03*
X156524Y145276D03*
X159674Y142127D03*
Y135828D03*
X156524Y132678D03*
X140776Y135828D03*
Y138977D03*
X156524D03*
X159674Y145276D03*
Y132678D03*
Y138977D03*
X140776Y142127D03*
X156524Y161024D03*
X140776D03*
X159674Y154725D03*
X156524Y164174D03*
X140776D03*
Y167324D03*
X159674Y161024D03*
X140776Y154725D03*
X156524Y151576D03*
X159674D03*
X156524Y154725D03*
X140776Y170473D03*
X156524D03*
X150650Y190500D03*
X146650D03*
X158100Y187800D03*
X142000Y190500D03*
X156524Y179922D03*
X159674D03*
X148000Y180000D03*
X140776Y176772D03*
X156524D03*
X159674D03*
X140776Y173623D03*
X156000Y228000D03*
X160000Y213000D03*
X148000Y228000D03*
X148500Y213000D03*
X154921D03*
X152000Y228000D03*
X145079Y213000D03*
X160000Y228000D03*
Y216000D03*
X152000Y215984D03*
X154921Y243000D03*
X160000D03*
X145079D03*
X160000Y232000D03*
X148000Y252500D03*
X151850D03*
X144000Y287000D03*
Y283000D03*
X148000Y292500D03*
X151850D03*
X143000Y327000D03*
Y332000D03*
Y348000D03*
Y351000D03*
X169000Y45000D03*
X161000D03*
X165000D03*
X161100Y52100D03*
X165200Y52200D03*
X165000Y62000D03*
X170500Y87921D03*
X165000Y88000D03*
X170500Y75000D03*
X165000Y78000D03*
X163600Y99800D03*
X178000Y104000D03*
X169000Y93000D03*
Y104000D03*
X164000Y103000D03*
X160800Y114100D03*
X163000Y126000D03*
X164700Y114000D03*
X169000D03*
X173850Y145275D03*
Y132675D03*
Y138975D03*
X162823Y145276D03*
Y138977D03*
Y132678D03*
Y148426D03*
Y142127D03*
Y135828D03*
X173850Y161025D03*
Y151575D03*
X179000Y169500D03*
X162823Y161024D03*
Y151576D03*
Y173623D03*
X173850Y179925D03*
Y187800D03*
X162823Y179922D03*
X174000Y174000D03*
X166000Y213000D03*
Y216000D03*
X164000Y228000D03*
X172000D03*
X175500Y213000D03*
X176000Y228000D03*
X168000D03*
X172638Y213000D03*
X179500Y221000D03*
X172500Y216000D03*
X179500Y213000D03*
Y227837D03*
X166732Y243000D03*
X172638D03*
X176000Y232000D03*
Y236000D03*
X161000Y287000D03*
Y283000D03*
X170000Y327000D03*
X162000D03*
X178000D03*
X173000D03*
X162000Y340000D03*
X191000Y27000D03*
X195000D03*
X200000Y53000D03*
X196000Y69000D03*
X182000Y68000D03*
X196000Y61000D03*
X196079Y65000D03*
X198000Y83025D03*
Y80000D03*
X195000Y90000D03*
X182000Y72000D03*
Y88000D03*
Y77000D03*
Y80000D03*
X181984Y83984D03*
X198000Y87000D03*
X182000Y96000D03*
Y100000D03*
X195000Y110000D03*
Y100000D03*
X191000Y107000D03*
X187000D03*
Y93000D03*
X185000Y100000D03*
X184000Y118000D03*
X195000Y114000D03*
Y118000D03*
Y126000D03*
X181000Y128000D03*
X184000Y126000D03*
X195000Y130000D03*
Y142000D03*
X184000Y136000D03*
X181000Y146000D03*
X184000Y132000D03*
X195000Y134000D03*
X184000Y146000D03*
Y142127D03*
X181000Y142000D03*
Y136000D03*
Y132000D03*
Y160000D03*
X184000D03*
Y156000D03*
Y152000D03*
X181000D03*
X195000Y154000D03*
X184000Y166000D03*
X181000D03*
X195000Y168000D03*
Y164000D03*
X184000Y188000D03*
X195000Y176000D03*
Y188000D03*
Y172000D03*
X181000Y180000D03*
X195000D03*
Y184000D03*
X200000Y228000D03*
Y217000D03*
X197000D03*
X200000Y232000D03*
X188000Y236000D03*
Y232000D03*
X200000Y247000D03*
X190000Y263000D03*
X184000Y327000D03*
X189000D03*
X210000Y27000D03*
X203750Y27500D03*
X218000Y27000D03*
X203750Y40000D03*
X205551Y53000D03*
X209488D03*
X213425D03*
X217500Y65000D03*
X209000Y80000D03*
X211025Y77025D03*
X219331Y77000D03*
X215394D03*
X218000Y90000D03*
X204000Y80000D03*
Y90000D03*
X209000D03*
X204000Y93000D03*
X200855Y96000D03*
X201000Y93000D03*
X218000Y107000D03*
X213225Y107500D03*
X209000Y100000D03*
X212000D03*
X219528Y126378D03*
X213225Y117000D03*
X216378Y129528D03*
Y126378D03*
X217950Y112500D03*
X219528Y142126D03*
X216378Y148425D03*
Y135827D03*
X219528D03*
X219527Y148425D03*
X216378Y145276D03*
X219528D03*
Y138976D03*
X216378D03*
X219528Y132677D03*
X216378D03*
Y142126D03*
Y170472D03*
Y154724D03*
X219528Y157874D03*
Y170472D03*
X216378Y161024D03*
X219528Y164173D03*
Y151575D03*
X216378Y167323D03*
X219528Y161024D03*
X216378Y164173D03*
X219528Y167323D03*
X216378Y157874D03*
X219528Y154724D03*
X213228Y157874D03*
X213229Y183075D03*
X219528Y173622D03*
X216378D03*
X219500Y195500D03*
X216500D03*
Y192500D03*
X219450Y192525D03*
X213000Y217000D03*
X203000D03*
X210000Y228000D03*
X220000D03*
Y214000D03*
X215000Y228000D03*
X216500Y214000D03*
Y217000D03*
X220000D03*
X210000Y214000D03*
Y232000D03*
X220000D03*
X210000Y247000D03*
X220000D03*
X211500Y257000D03*
Y267000D03*
Y273000D03*
X218000Y299500D03*
X213000Y326250D03*
Y333750D03*
X218000Y354489D03*
X237000Y65000D03*
X221000D03*
X230000Y53000D03*
Y65000D03*
X225000Y53000D03*
X234000Y53047D03*
X221000Y53000D03*
X227000Y65000D03*
X231500Y77000D03*
X223268D03*
X225000Y90000D03*
X236000Y87000D03*
X239016Y77000D03*
X240000Y87000D03*
X225000Y100000D03*
X237000Y107500D03*
X240000Y103000D03*
X222675Y104000D03*
Y107475D03*
X232125D03*
X240000Y107500D03*
X227250Y107475D03*
X228976Y123228D03*
X232125Y116925D03*
X222677Y123228D03*
Y120079D03*
X232126D03*
X238426D03*
X232126Y129528D03*
X235276Y126378D03*
X232126D03*
X235276Y123228D03*
X238425Y129528D03*
X225827Y123228D03*
X238425D03*
X235276Y129528D03*
X228976Y126378D03*
Y120079D03*
X225827D03*
X228976Y129528D03*
X225827D03*
X232126Y123228D03*
X227400Y117000D03*
X235276Y120079D03*
X222677Y126378D03*
Y129528D03*
X238425Y126378D03*
Y135827D03*
Y142126D03*
X228977Y132677D03*
X232126Y138976D03*
X228977Y142126D03*
X222677Y132677D03*
X235276Y138977D03*
X222677Y145276D03*
X225827D03*
Y138977D03*
X238425Y148426D03*
X228976D03*
X232126Y145276D03*
Y132677D03*
X238425Y138975D03*
X222677Y138977D03*
X238426Y132677D03*
X235276D03*
X228977Y138976D03*
X238425Y145276D03*
X228976Y135827D03*
X235276Y145276D03*
X228977Y164173D03*
X235276Y170472D03*
X225827Y164173D03*
X232126Y170472D03*
X238426D03*
X222677Y157874D03*
Y170472D03*
Y151624D03*
X238426Y154724D03*
X238425Y151575D03*
X235276Y157874D03*
Y151575D03*
X238425Y157874D03*
X235276Y164173D03*
X232126D03*
X225827Y170472D03*
X222677Y164173D03*
X238425Y167323D03*
X238426Y164173D03*
X228977Y154724D03*
X228976Y151575D03*
Y161023D03*
X225827Y157874D03*
Y151575D03*
X228976Y157874D03*
X238425Y161023D03*
X232126Y157874D03*
Y151574D03*
X228976Y170472D03*
X222677Y176772D03*
Y173622D03*
X235276Y179921D03*
X238425Y173622D03*
X228976D03*
X222677Y179921D03*
X235275Y183075D03*
X225827Y173622D03*
Y176772D03*
X235276D03*
X235275Y192525D03*
X225827D03*
Y195500D03*
X235275D03*
X225000Y228000D03*
X230000Y217000D03*
Y214000D03*
X240000Y228000D03*
Y225000D03*
X235000D03*
Y228000D03*
X238000Y217000D03*
Y214000D03*
X230000Y228000D03*
X223000Y247000D03*
X240000Y232000D03*
X235000D03*
Y247000D03*
X225984Y247016D03*
X229000Y232000D03*
Y247000D03*
X235000Y250000D03*
X226000Y232000D03*
X240000Y247000D03*
Y258000D03*
X235000Y270000D03*
X225984Y272984D03*
X229921Y272921D03*
X227000Y294000D03*
X235000D03*
X226476Y306000D03*
X237500Y315000D03*
X226000Y317000D03*
Y325000D03*
Y335000D03*
Y350000D03*
Y340000D03*
X236000D03*
X231000D03*
X226000Y354489D03*
X241000Y27000D03*
X245000D03*
X241000Y65000D03*
X249000D03*
X245000D03*
X240984Y53000D03*
X244921D03*
X252795D03*
X248858Y53142D03*
X256732Y53000D03*
X254764Y81000D03*
X250827Y77000D03*
X242953D03*
X246890D03*
X251000Y81000D03*
X254764Y77000D03*
X243000Y81000D03*
X244500Y87000D03*
X258701Y77000D03*
X251025Y107475D03*
X260475D03*
X244500Y103000D03*
X255750Y107475D03*
X257323Y120079D03*
X244724Y126378D03*
X251025Y116925D03*
X260472Y129528D03*
X251024Y126378D03*
X247874D03*
X251024Y120079D03*
X244724D03*
X247874D03*
X254173Y126378D03*
X260472D03*
X257323Y129528D03*
X251024Y123228D03*
X244724Y129528D03*
X251024D03*
X254173Y123228D03*
Y129528D03*
X260472Y123228D03*
X260475Y116925D03*
X257323Y126378D03*
X247874Y123228D03*
X257323D03*
X254173Y120079D03*
X247874Y129528D03*
X260472Y120079D03*
X244725Y123228D03*
X244724Y135827D03*
X254173Y145276D03*
Y135826D03*
X251023Y132677D03*
X254173Y138976D03*
X247874Y132677D03*
X244724Y148426D03*
X244725Y142125D03*
X260472Y132677D03*
X257323Y145276D03*
X244724Y132677D03*
X241575Y138975D03*
X251023Y138977D03*
X251024Y145276D03*
X244724Y138977D03*
X247874Y138976D03*
X257323Y132677D03*
X244724Y145276D03*
X260472Y135827D03*
Y138976D03*
X257323D03*
X260472Y142126D03*
X257323D03*
X244724Y167323D03*
X251024Y164173D03*
X254173Y161024D03*
X254174Y157874D03*
X254173Y151575D03*
X251024D03*
X257323Y170472D03*
X251024D03*
X247874D03*
X254173Y154724D03*
X260472Y161024D03*
X257323Y154724D03*
X254173Y167322D03*
X244724Y154724D03*
Y151575D03*
Y157874D03*
X257323D03*
Y161024D03*
X244724Y170472D03*
X247874Y164173D03*
X257323Y167323D03*
X251024Y157874D03*
X247874Y151575D03*
X244724Y164173D03*
Y161024D03*
X257323Y164173D03*
X260472D03*
Y151575D03*
X257323D03*
X260472Y167323D03*
Y157874D03*
Y170472D03*
X254173D03*
X260472Y173622D03*
X241575Y176772D03*
X247874D03*
X254173Y179921D03*
X257323D03*
X251024Y173622D03*
X257323Y176772D03*
X254173Y173622D03*
X247874D03*
X244724D03*
X257323D03*
X241575Y183075D03*
Y179922D03*
X254173Y176772D03*
X260472D03*
X246300Y192525D03*
X260475D03*
X255750Y192500D03*
X251025Y192525D03*
X241575D03*
X260000Y228000D03*
X255000D03*
X245000Y217000D03*
Y214000D03*
X248500Y217000D03*
X260000D03*
X255000D03*
X260000Y232000D03*
X250000D03*
Y250000D03*
X260000Y247000D03*
X250000D03*
Y270000D03*
Y262000D03*
Y254000D03*
Y258000D03*
Y266000D03*
X251000Y288000D03*
Y282000D03*
Y285000D03*
X245000Y294000D03*
X251000D03*
Y291000D03*
X242500Y315000D03*
X241000Y350000D03*
X245000Y340000D03*
X255000D03*
X241000D03*
X252000Y354489D03*
X248000D03*
X261000Y65000D03*
X264606Y53000D03*
X260669D03*
X268543D03*
X268000Y90000D03*
X274449Y77000D03*
X266575D03*
X262638D03*
X270512D03*
X273000Y106000D03*
Y100000D03*
X268000D03*
X263622Y123228D03*
Y120079D03*
Y129528D03*
X266772D03*
X269921Y120079D03*
X266772Y123228D03*
X269921Y126378D03*
X263622D03*
X266775Y112200D03*
X273075Y120075D03*
X266772Y126378D03*
Y120079D03*
X269921Y129528D03*
X273075Y148425D03*
Y143700D03*
X266772Y132677D03*
X263622Y135827D03*
Y132677D03*
X269921D03*
X263622Y142126D03*
Y138976D03*
X266772Y170472D03*
X263622Y164173D03*
X266772Y167323D03*
X263622Y154724D03*
X273075Y157875D03*
X263622Y151575D03*
Y161024D03*
X266772Y164173D03*
X263622Y157874D03*
Y167323D03*
Y170472D03*
X266775Y187800D03*
X269922Y173622D03*
X263622Y179921D03*
X266772Y176772D03*
Y179921D03*
Y173622D03*
X263622Y176772D03*
Y173622D03*
X270000Y193000D03*
X267000D03*
X265000Y228000D03*
X270000D03*
X274000D03*
Y217000D03*
X265000D03*
X270000D03*
Y232000D03*
Y247000D03*
X263000Y267000D03*
X280000Y270000D03*
Y255000D03*
Y290000D03*
Y280000D03*
Y295000D03*
X263000Y293000D03*
X264862Y315000D03*
X264000Y350000D03*
X269000Y340000D03*
X264000D03*
X266500Y337000D03*
X274000Y340000D03*
Y354489D03*
X285000Y77000D03*
X289000D03*
X286000Y124800D03*
X282525D03*
Y129525D03*
X295000Y120000D03*
X282525Y112200D03*
Y120075D03*
Y134250D03*
X295000Y140000D03*
X282525Y148425D03*
Y143700D03*
X295000Y144000D03*
X299000D03*
Y140000D03*
X282525Y157875D03*
X295000Y169000D03*
X290000Y161000D03*
X295000D03*
X290000Y156000D03*
Y165000D03*
X282500D03*
X286000D03*
X290000Y169000D03*
X299000Y158000D03*
X295000Y165000D03*
X299000Y172000D03*
X282525Y175200D03*
Y187800D03*
Y179925D03*
X286000Y188000D03*
X290000Y173000D03*
X286000D03*
Y194000D03*
Y191000D03*
X293000Y204000D03*
Y208000D03*
Y225600D03*
X296000Y216000D03*
X293000D03*
Y231500D03*
X296000D03*
X299016Y266016D03*
X285000Y265000D03*
X300000Y255000D03*
X285000D03*
X290000Y265000D03*
X295000Y252000D03*
X290000Y255000D03*
X295000D03*
X286000Y290000D03*
X286079Y284921D03*
X286047Y277047D03*
X285000Y310000D03*
X299000Y295000D03*
X293000D03*
X296000D03*
X300000Y305000D03*
X295000D03*
X290256Y292000D03*
X285000Y305000D03*
X290000D03*
X282000Y354489D03*
X315000Y40000D03*
Y60000D03*
X320000Y85000D03*
X310000D03*
X315000D03*
X305000Y88000D03*
X315000Y95000D03*
X320000Y100000D03*
Y95000D03*
X310000D03*
X305000Y103000D03*
X315000Y100000D03*
X305000Y115000D03*
Y130000D03*
X320000D03*
X315000Y125000D03*
X310000Y130000D03*
X315000D03*
X315500Y143000D03*
X315000Y140000D03*
X310000D03*
X320000Y143000D03*
Y158000D03*
X304000D03*
X320000Y165000D03*
X307000Y151000D03*
Y158000D03*
X315000D03*
Y172000D03*
X308000Y190350D03*
X317000D03*
X304000Y172000D03*
X318000D03*
X307000D03*
X305000Y188000D03*
X315600Y206700D03*
X303000D03*
X320000Y200000D03*
X306150Y206700D03*
X318750D03*
X315600Y209850D03*
X318750D03*
X309300Y206700D03*
X305000Y200000D03*
X303000Y228750D03*
X306150Y216150D03*
X318750Y225600D03*
Y228750D03*
X306150D03*
Y222450D03*
Y225600D03*
X309300Y222450D03*
Y225600D03*
X315600Y228750D03*
Y225600D03*
X309300Y228750D03*
X318750Y222450D03*
X303000Y225600D03*
X306150Y231900D03*
X318750D03*
X303000D03*
X312450Y235050D03*
X309300Y231900D03*
X315600D03*
X310000Y255000D03*
X315000Y252000D03*
X320000Y266000D03*
Y270000D03*
X305000Y255000D03*
X315000D03*
X310000Y270000D03*
X315000D03*
X320000Y255000D03*
X318000Y290000D03*
X315000Y275000D03*
X302000Y295000D03*
X305000D03*
Y305000D03*
X310000D03*
Y295000D03*
X325000Y8391D03*
X340000Y18000D03*
X325000Y11000D03*
X338890Y43110D03*
X322047Y36000D03*
X338953Y47047D03*
X331201Y33000D03*
X335000Y40000D03*
X324000Y70000D03*
X330000D03*
X323000Y140000D03*
Y143000D03*
X329000Y158000D03*
X335000D03*
X340000D03*
Y151000D03*
X332000Y158000D03*
X324000D03*
X340000Y172000D03*
X337000D03*
Y180000D03*
X329000Y172000D03*
X340000Y179925D03*
X332000Y172000D03*
X321900Y206700D03*
X332000Y200000D03*
X321900Y209850D03*
X332000Y222450D03*
Y213000D03*
X321900Y228750D03*
Y225600D03*
Y231900D03*
X330000Y245000D03*
X324000Y242000D03*
X330000D03*
X322000Y290000D03*
X340000Y333000D03*
X335000D03*
X350000Y8000D03*
Y18000D03*
Y11000D03*
X346000Y126000D03*
Y129000D03*
X358000Y146000D03*
X346000Y132000D03*
Y135000D03*
X343000Y158000D03*
X346000D03*
X343000Y151000D03*
X346000D03*
X343000Y163000D03*
X342000Y200000D03*
Y196000D03*
X345000Y265000D03*
X348000Y280000D03*
X350000Y333000D03*
X345000Y342000D03*
X360000D03*
X355000Y333000D03*
X377000Y30000D03*
X371000Y70000D03*
Y67000D03*
Y73000D03*
X368000Y122000D03*
Y159000D03*
X365000Y333000D03*
X370000D03*
X383000Y20000D03*
X381000Y280000D03*
G54D23*
X60000Y111000D03*
Y107000D03*
X56000Y111000D03*
Y107000D03*
X52000Y111000D03*
Y107000D03*
X60000Y123000D03*
Y115000D03*
Y119000D03*
X56000Y123000D03*
Y115000D03*
Y119000D03*
X52000Y123000D03*
Y115000D03*
Y119000D03*
X60000Y190000D03*
Y195000D03*
Y200000D03*
X64000Y111000D03*
Y107000D03*
X68000Y111000D03*
Y107000D03*
X64000Y123000D03*
Y115000D03*
Y119000D03*
X68000Y123000D03*
Y115000D03*
Y119000D03*
X65000Y190000D03*
X70000D03*
X65000Y195000D03*
Y200000D03*
X70000Y195000D03*
Y200000D03*
X115000Y285000D03*
X120000D03*
X115000Y280000D03*
X120000D03*
X115000Y275000D03*
X120000D03*
X140000Y78000D03*
Y83000D03*
Y88000D03*
Y73000D03*
Y93000D03*
X125000Y285000D03*
Y280000D03*
Y275000D03*
X145000Y73000D03*
X150000D03*
X145000Y78000D03*
X150000D03*
X145000Y83000D03*
X150000D03*
X145000Y88000D03*
X150000D03*
X155000Y73000D03*
X160000D03*
X155000Y78000D03*
X160000D03*
X155000Y83000D03*
X160000D03*
X155000Y88000D03*
X160000D03*
X150000Y93000D03*
X145000D03*
X160000D03*
X155000D03*
X220000Y255000D03*
Y260000D03*
Y265000D03*
X225000Y255000D03*
Y260000D03*
Y265000D03*
X230000Y255000D03*
Y260000D03*
Y265000D03*
X295000Y275000D03*
Y280000D03*
Y285000D03*
X300000Y275000D03*
Y280000D03*
Y285000D03*
X320000Y50000D03*
Y45000D03*
Y55000D03*
X305000Y275000D03*
Y280000D03*
Y285000D03*
X330000Y50000D03*
Y45000D03*
X325000Y50000D03*
Y45000D03*
X330000Y55000D03*
X325000D03*
G54D60*
X330000Y342500D03*
X375000D03*
G54D51*
X221428Y341241D03*
Y343997D03*
Y346753D03*
Y349509D03*
X278572Y343997D03*
Y341241D03*
Y349509D03*
Y346753D03*
G54D24*
X54000Y314000D03*
G54D15*
X23000Y100500D03*
Y221500D03*
X322000Y330500D03*
X383000D03*
G54D33*
X86500Y328000D03*
X91500D03*
X89000Y330500D03*
X91500Y333000D03*
X86500D03*
G54D42*
X166142Y342500D03*
X181142D03*
G54D70*
G01X18000Y80000D02*
X15050D01*
X8200Y73150D01*
G01X18000Y80000D02*
Y76000D01*
X20850Y73150D01*
X33800D01*
G01X24000Y84000D02*
Y87000D01*
X20150Y90850D01*
X8200D01*
G01X12000Y271500D02*
X3000Y262500D01*
Y225500D01*
X30000Y198500D01*
Y156000D01*
X36000Y150000D01*
X67000D01*
X70500Y146500D01*
Y125500D01*
X77000Y119000D01*
G01X40025Y217000D02*
X37000D01*
X32000Y222000D01*
Y223500D01*
X26500Y229000D01*
X19000D01*
X18000Y228000D01*
X10000D01*
X6000Y232000D01*
Y258500D01*
X6500Y259000D01*
X8500D01*
X9000Y258500D01*
Y254500D01*
X12000Y251500D01*
G01X40000Y212000D02*
X31000Y221000D01*
Y223000D01*
X26000Y228000D01*
X19500D01*
X18500Y227000D01*
X9000D01*
X5000Y231000D01*
Y259500D01*
X12000Y266500D01*
G01X17000Y251500D02*
X19500D01*
X20000Y252000D01*
Y254000D01*
X20500Y254500D01*
X23500D01*
X24000Y254000D01*
Y233000D01*
X32000Y225000D01*
X37500D01*
X42000Y220500D01*
Y213000D01*
X43000Y212000D01*
G01X17000Y256500D02*
X23500D01*
X26000Y254000D01*
Y245000D01*
X29500Y241500D01*
G01X33000Y18000D02*
X45000D01*
X46063Y19063D01*
G01X39000Y30000D02*
X36000Y33000D01*
X33000D01*
G01X29000Y38000D02*
Y33000D01*
G01X25000Y38000D02*
X29000D01*
G01X33000D02*
X34937D01*
X39000Y33937D01*
G01X24000Y84000D02*
X26950D01*
X33800Y90850D01*
G01X35000Y158000D02*
X40000D01*
G01X35000Y155000D02*
Y158000D01*
G01X40000Y188000D02*
X38000Y190000D01*
Y199000D01*
X40000Y201000D01*
G01X44000Y282000D02*
X42000Y280000D01*
X28000D01*
X26000Y278000D01*
Y270000D01*
X29500Y266500D01*
G01X41000Y282000D02*
X27000D01*
X24000Y279000D01*
Y262000D01*
X29500Y256500D01*
G01X29000Y297000D02*
X26000D01*
X25000Y298000D01*
G01Y348000D02*
Y343000D01*
G01D02*
X31000D01*
X33000Y345000D01*
Y348000D01*
G01X29000Y353000D02*
X28000Y352000D01*
X25000D01*
G01X50000Y158000D02*
X55000D01*
G01X50000D02*
Y155000D01*
G01X55000Y162000D02*
X60000D01*
G01X45000D02*
X40000D01*
G01X45000Y165000D02*
Y162000D01*
G01Y178000D02*
Y165000D01*
G01X43000Y185000D02*
X45000Y187000D01*
Y194000D01*
X43016Y195984D01*
X43000D01*
G01X54000Y173000D02*
X55000Y174000D01*
Y178000D01*
G01X43000Y188000D02*
Y191000D01*
X40000Y194000D01*
Y197953D01*
G01X50000Y173000D02*
Y178000D01*
G01X47000Y208000D02*
X43000D01*
G01X58000Y212000D02*
Y215142D01*
X56142Y217000D01*
G01X53000Y212000D02*
Y217000D01*
G01X51000Y266000D02*
X48000D01*
X47000Y267000D01*
G01X51000Y281000D02*
X48000D01*
X47000Y282000D01*
G01X67000Y23000D02*
X61000D01*
G01X67000Y28000D02*
X63000D01*
X61000Y30000D01*
G01X67000Y33000D02*
Y28000D01*
G01Y38000D02*
X65000D01*
X61000Y34000D01*
Y33937D01*
G01Y38000D02*
Y39000D01*
X65000Y43000D01*
X67000D01*
G01X75000Y135000D02*
X82000Y128000D01*
X88000D01*
G01X60000Y135000D02*
Y138000D01*
G01X65000Y158000D02*
X70000D01*
G01X65000D02*
Y155000D01*
G01X70000Y162000D02*
X75000D01*
G01D02*
Y165000D01*
G01Y178000D02*
Y165000D01*
G01X60000Y162000D02*
Y165000D01*
G01X77000Y208000D02*
Y173000D01*
G01X65000D02*
Y178000D01*
G01X72000Y208000D02*
Y205860D01*
X72860Y205000D01*
X75000D01*
G01X90000Y217000D02*
X88000Y215000D01*
X71000D01*
X69000Y217000D01*
G01X77000Y220000D02*
X74000Y223000D01*
X63000D01*
X61000Y221000D01*
Y220000D01*
G01X81000D02*
X77000D01*
G01X73000Y217000D02*
X71000Y219000D01*
Y221000D01*
X70000Y222000D01*
X63922D01*
X62574Y220652D01*
Y218574D01*
X61000Y217000D01*
G01X68000Y266000D02*
X64000D01*
G01X76000D02*
X81000D01*
G01X68000Y281000D02*
X64000D01*
G01X76000D02*
X81000D01*
G01X90000Y26000D02*
Y23000D01*
G01X96000Y26000D02*
X90000D01*
G01Y46000D02*
Y42000D01*
G01D02*
X96000D01*
G01Y30000D02*
Y34000D01*
G01D02*
Y38000D01*
G01X90000Y30000D02*
X92025D01*
X93000Y30975D01*
Y34000D01*
G01X90000Y38000D02*
Y34000D01*
G01X92000Y128000D02*
X94525D01*
X95000Y127525D01*
Y120000D01*
G01X81000Y111000D02*
X85000D01*
X86000Y110000D01*
G01X89000Y165000D02*
Y163000D01*
X88000Y162000D01*
X85000D01*
G01X95000Y180048D02*
X93000Y178048D01*
Y169000D01*
X89000Y165000D01*
G01X80000Y162000D02*
Y164000D01*
X81000Y165000D01*
X82000D01*
X90000Y173000D01*
G01X95000Y190000D02*
X92000Y187000D01*
Y175000D01*
X90000Y173000D01*
G01Y178000D02*
Y176000D01*
X87000Y173000D01*
G01X90000Y204000D02*
X92000Y202000D01*
Y196000D01*
X90000Y194000D01*
G01X87000Y200000D02*
X85000Y198000D01*
Y192000D01*
X87000Y190000D01*
G01X81000Y266000D02*
X83000Y264000D01*
X104000D01*
X109000Y269000D01*
X114000D01*
X119000Y264000D01*
G01X81000Y281000D02*
X84000Y278000D01*
Y270000D01*
X88000Y266000D01*
X104000D01*
X108000Y270000D01*
X116032D01*
X119016Y267016D01*
G01X118000Y85000D02*
X117975Y84975D01*
X114025D01*
X113000Y86000D01*
Y90000D01*
X112000Y91000D01*
X110000D01*
G01Y88000D02*
Y91000D01*
G01Y84000D02*
Y81000D01*
G01X118000Y74000D02*
X116000Y76000D01*
Y79000D01*
X114000Y81000D01*
X110000D01*
G01D02*
Y78000D01*
G01X105000Y74000D02*
Y70000D01*
G01X110000Y74000D02*
X105000D01*
G01Y134000D02*
Y94000D01*
X106000Y93000D01*
X110000D01*
G01Y91000D02*
Y93000D01*
G01X125000Y59000D02*
Y62000D01*
G01X133000Y55000D02*
Y52400D01*
X132800Y52200D01*
G01X129000Y55000D02*
Y54400D01*
X128700Y54100D01*
G01X130000Y85000D02*
X128500Y83500D01*
Y82500D01*
X127250Y81250D01*
X125000D01*
G01Y96000D02*
X130000D01*
G01X130175Y165750D02*
X132901D01*
X134477Y164174D01*
G01X132000Y213000D02*
X135000Y216000D01*
X136000D01*
G01Y213000D02*
X134000Y211000D01*
X129500D01*
X127500Y213000D01*
G01X123000Y260000D02*
Y264000D01*
G01X129000Y281000D02*
X135000D01*
X137000Y279000D01*
G01Y286000D02*
Y283000D01*
G01X141000Y286000D02*
X137000D01*
G01X133000D02*
X129000D01*
G01X133000Y282953D02*
Y286000D01*
G01X157000Y42000D02*
Y45000D01*
G01X149000Y38000D02*
X145000D01*
G01X153000D02*
X149000D01*
G01X161000D02*
X157000D01*
G01D02*
X155362D01*
X154900Y38462D01*
Y45900D01*
X153800Y47000D01*
X142400D01*
X141000Y45600D01*
Y42000D01*
G01X153000D02*
Y45000D01*
G01X203750Y40000D02*
X196800D01*
X188600Y48200D01*
X148575D01*
X148100Y48675D01*
Y48900D01*
X145000Y52000D01*
G01X157000Y59000D02*
Y62000D01*
G01X145000Y55000D02*
Y52000D01*
G01X149000Y59000D02*
Y62000D01*
G01X145079Y61921D02*
X145000Y61842D01*
Y59000D01*
G01X141000Y52000D02*
Y55000D01*
G01X219528Y132677D02*
Y131128D01*
X217954Y129554D01*
Y122454D01*
X215800Y120300D01*
Y108800D01*
X214799Y107799D01*
Y106848D01*
X212651Y104700D01*
X181300D01*
X167926Y118074D01*
X166152D01*
X165952Y118274D01*
X164648D01*
X164448Y118074D01*
X161700D01*
X161674Y118100D01*
X150100D01*
X147000Y115000D01*
Y105000D01*
X145000Y103000D01*
G01X150650Y187800D02*
Y190500D01*
G01X146650Y187800D02*
Y190500D01*
G01X175500Y213000D02*
Y204000D01*
X174500Y203000D01*
X149500D01*
X148500Y204000D01*
Y213000D01*
G01X156000Y220500D02*
X160000D01*
G01X148000D02*
X152000D01*
G01D02*
Y215984D01*
G01X140000Y320750D02*
Y321500D01*
X140500Y322000D01*
X157740D01*
X158240Y322500D01*
Y325579D01*
G01X162000Y327000D02*
Y329000D01*
X161000Y330000D01*
X156000D01*
X154500Y331500D01*
Y335421D01*
G01X165000Y38000D02*
X161000D01*
G01X182000Y68000D02*
X181000Y69000D01*
X177000D01*
G01X161000Y55000D02*
Y52200D01*
X161100Y52100D01*
G01X165000Y55000D02*
Y52400D01*
X165200Y52200D01*
G01X262638Y77000D02*
X263691Y75947D01*
X264053D01*
X266969Y73031D01*
Y52069D01*
X263100Y48200D01*
X192800D01*
X170500Y70500D01*
Y75000D01*
G01Y87921D02*
X170579Y88000D01*
X172000D01*
X173000Y87000D01*
Y85000D01*
G01X169000Y81000D02*
Y79000D01*
X170500Y77500D01*
Y75000D01*
G01X169000Y93000D02*
Y96000D01*
G01D02*
X173000D01*
G01X179000Y169500D02*
Y166500D01*
X178500Y166000D01*
X176500D01*
X176000Y165500D01*
Y148500D01*
X176500Y148000D01*
X188500D01*
X189000Y148500D01*
Y151500D01*
X188500Y152000D01*
X187500D01*
X187000Y152500D01*
Y156000D01*
G01X181000Y166000D02*
Y164500D01*
X180500Y164000D01*
X178000D01*
X177500Y163500D01*
Y157800D01*
X177800Y157500D01*
X178700D01*
X179000Y157800D01*
Y161700D01*
X179300Y162000D01*
X186500D01*
X187000Y162500D01*
Y164000D01*
G01X164000Y220500D02*
X168000D01*
G01X166000Y213000D02*
X168000Y215000D01*
Y220500D01*
G01X166000Y216000D02*
X164500D01*
X160000Y220500D01*
G01X172000D02*
X176000D01*
G01X172500Y216000D02*
X172000Y216500D01*
Y220500D01*
G01X260669Y53000D02*
X257469Y49800D01*
X194200D01*
X185000Y59000D01*
Y77000D01*
X182000Y80000D01*
G01X196079Y65000D02*
X201000Y69921D01*
X206260D01*
G01X185000Y100000D02*
Y92500D01*
X195000Y82500D01*
Y79000D01*
X199000Y75000D01*
X208500D01*
X210000Y73500D01*
Y69921D01*
G01X190000Y97000D02*
Y99000D01*
X191000Y100000D01*
X195000D01*
G01Y97000D02*
X197000D01*
X203000Y103000D01*
X213000D01*
X215426Y105426D01*
X215504D01*
X216426Y106348D01*
Y107652D01*
X217211Y108437D01*
Y110273D01*
X217950Y111012D01*
Y112500D01*
G01X198000Y110000D02*
X195000D01*
G01X198000Y114000D02*
X195000D01*
G01X198000Y118000D02*
X195000D01*
G01X198000Y126000D02*
X195000D01*
G01X184000D02*
X191000D01*
X195000Y122000D01*
X198000D01*
G01X181000Y136000D02*
Y139500D01*
X181500Y140000D01*
X186500D01*
X187000Y139500D01*
Y128500D01*
X187500Y128000D01*
X188500D01*
X189000Y128500D01*
Y139500D01*
X189500Y140000D01*
X190500D01*
X191000Y139500D01*
Y128500D01*
X191500Y128000D01*
X192500D01*
X193000Y128500D01*
Y137500D01*
X193500Y138000D01*
X198000D01*
G01Y142000D02*
X195000D01*
G01X198000Y134000D02*
X195000D01*
G01X184000Y146000D02*
X191000D01*
X195000Y150000D01*
X198000D01*
G01Y130000D02*
X195000D01*
G01X184000Y142127D02*
X191127D01*
X195000Y146000D01*
X198000D01*
G01X181000Y160000D02*
X183000Y158000D01*
X198000D01*
G01Y154000D02*
X195000D01*
G01X187000Y168000D02*
Y179500D01*
X186500Y180000D01*
X184500D01*
X184000Y179500D01*
Y166000D01*
G01X198000Y168000D02*
X195000D01*
G01X198000Y164000D02*
X195000D01*
G01X191000Y168000D02*
Y169500D01*
X191500Y170000D01*
X192750D01*
X193250Y169500D01*
Y162500D01*
X193750Y162000D01*
X212000D01*
X216126Y157874D01*
X216378D01*
G01X191000Y156000D02*
Y153000D01*
X192000Y152000D01*
X216804D01*
X219528Y154724D01*
G01X213228Y157874D02*
Y159272D01*
X211500Y161000D01*
X193750D01*
X193250Y160500D01*
Y159500D01*
X192750Y159000D01*
X190500D01*
X190000Y159500D01*
Y163000D01*
X191000Y164000D01*
G01X198000Y192000D02*
X188000D01*
X184000Y188000D01*
G01X198000Y176000D02*
X195000D01*
G01X198000Y188000D02*
X195000D01*
G01X198000Y172000D02*
X195000D01*
G01X198000Y180000D02*
X195000D01*
G01X198000Y184000D02*
X195000D01*
G01X218000Y31250D02*
Y27000D01*
G01X203750Y37000D02*
Y40000D01*
G01Y37000D02*
X209000D01*
X210000Y38000D01*
G01D02*
X210750Y38750D01*
X218000D01*
G01X221000Y53000D02*
X217000D01*
X213740Y56260D01*
Y60079D01*
G01X221000Y57000D02*
X219000D01*
X218000Y58000D01*
Y62000D01*
X215000Y65000D01*
X211000D01*
X210000Y66000D01*
Y69921D01*
G01X204000Y90000D02*
Y87000D01*
G01X209000Y90000D02*
Y87000D01*
G01X219528Y142126D02*
X217954Y140552D01*
X214052D01*
X208000Y134500D01*
Y125500D01*
X207500Y125000D01*
X205000D01*
X204500Y125500D01*
Y127500D01*
X204000Y128000D01*
X201300D01*
X201000Y128300D01*
Y129000D01*
X202000Y130000D01*
G01X222675Y104000D02*
X220485Y106190D01*
Y108030D01*
X220000Y108515D01*
Y117250D01*
X219528Y117722D01*
Y126378D01*
G01X202000Y118000D02*
X201000Y117000D01*
Y116300D01*
X201300Y116000D01*
X204000D01*
X204500Y116500D01*
Y118500D01*
X205000Y119000D01*
X207000D01*
X211000Y123000D01*
Y131500D01*
X215327Y135827D01*
X216378D01*
G01X202000Y110000D02*
X204000D01*
X207000Y113000D01*
Y116000D01*
X213000Y122000D01*
Y129000D01*
X215102Y131102D01*
X217102D01*
X217952Y131952D01*
Y134251D01*
X219528Y135827D01*
G01X202000Y134000D02*
X201000Y133000D01*
Y132038D01*
X201300Y131738D01*
X203762D01*
X204500Y131000D01*
Y129300D01*
X204800Y129000D01*
X206789D01*
X207089Y129300D01*
Y135589D01*
X215202Y143702D01*
X217954D01*
X219528Y145276D01*
G01Y138976D02*
X217953Y137401D01*
X214901D01*
X210000Y132500D01*
Y124000D01*
X206000Y120000D01*
X201300D01*
X201000Y120300D01*
Y121000D01*
X202000Y122000D01*
G01Y126000D02*
X201000Y125000D01*
Y124300D01*
X201300Y124000D01*
X204200D01*
X204500Y123700D01*
Y122500D01*
X205000Y122000D01*
X206500D01*
X209000Y124500D01*
Y133500D01*
X214476Y138976D01*
X216378D01*
G01X202000Y114000D02*
X201000Y113000D01*
Y112300D01*
X201300Y112000D01*
X204000D01*
X206000Y114000D01*
Y116500D01*
X212000Y122500D01*
Y130000D01*
X214677Y132677D01*
X216378D01*
G01Y148425D02*
X213300D01*
X213000Y148125D01*
Y147300D01*
X212700Y147000D01*
X204800D01*
X204500Y146700D01*
Y145800D01*
X204800Y145500D01*
X209700D01*
X210000Y145200D01*
Y144300D01*
X209700Y144000D01*
X201300D01*
X201000Y144300D01*
Y145000D01*
X202000Y146000D01*
G01X219527Y148425D02*
X217953Y146851D01*
X214551D01*
X210700Y143000D01*
X204800D01*
X204500Y142700D01*
Y141800D01*
X204800Y141500D01*
X205700D01*
X206000Y141200D01*
Y140300D01*
X205700Y140000D01*
X201300D01*
X201000Y140300D01*
Y141000D01*
X202000Y142000D01*
G01Y138000D02*
X201000Y137000D01*
Y136300D01*
X201300Y136000D01*
X204200D01*
X204500Y135700D01*
Y132800D01*
X204800Y132500D01*
X205700D01*
X206000Y132800D01*
Y137700D01*
X206300Y138000D01*
X207700D01*
X208000Y138300D01*
Y139700D01*
X207700Y140000D01*
X207300D01*
X207000Y140300D01*
Y141200D01*
X207300Y141500D01*
X211000D01*
X214776Y145276D01*
X216378D01*
G01X202000Y150000D02*
X201000Y149000D01*
Y148300D01*
X201300Y148000D01*
X209700D01*
X210000Y148300D01*
Y149200D01*
X209700Y149500D01*
X204800D01*
X204500Y149800D01*
Y150700D01*
X204800Y151000D01*
X219228D01*
X219528Y151300D01*
Y151575D01*
G01X202000Y154000D02*
X201000Y155000D01*
Y155700D01*
X201300Y156000D01*
X210200D01*
X210500Y155700D01*
Y154800D01*
X210200Y154500D01*
X204800D01*
X204500Y154200D01*
Y153300D01*
X204800Y153000D01*
X216078D01*
X216378Y153300D01*
Y154724D01*
G01X202000Y158000D02*
X201000Y159000D01*
Y159700D01*
X201300Y160000D01*
X210700D01*
X211000Y159700D01*
Y159300D01*
X210700Y159000D01*
X204800D01*
X204500Y158700D01*
Y158300D01*
X204800Y158000D01*
X211200D01*
X211500Y157700D01*
Y156598D01*
X211800Y156298D01*
X217952D01*
X219528Y157874D01*
G01X216378Y161024D02*
X214676D01*
X212700Y163000D01*
X204800D01*
X204500Y163300D01*
Y164200D01*
X204800Y164500D01*
X210200D01*
X210500Y164800D01*
Y165700D01*
X210200Y166000D01*
X201300D01*
X201000Y165700D01*
Y165000D01*
X202000Y164000D01*
G01X219528Y164173D02*
X217952Y165749D01*
X214751D01*
X207000Y173500D01*
Y181700D01*
X206700Y182000D01*
X205800D01*
X205500Y181700D01*
Y178300D01*
X205200Y178000D01*
X201300D01*
X201000Y177700D01*
Y177000D01*
X202000Y176000D01*
G01X216378Y167323D02*
X214677D01*
X208000Y174000D01*
Y184200D01*
X207700Y184500D01*
X204800D01*
X204500Y184200D01*
Y182300D01*
X204200Y182000D01*
X201300D01*
X201000Y181700D01*
Y181000D01*
X202000Y180000D01*
G01X219528Y161024D02*
Y162299D01*
X219228Y162599D01*
X214901D01*
X210500Y167000D01*
X204886D01*
X204586Y167300D01*
Y168200D01*
X204886Y168500D01*
X207700D01*
X208000Y168800D01*
Y169500D01*
X207500Y170000D01*
X201300D01*
X201000Y169700D01*
Y169000D01*
X202000Y168000D01*
G01X216378Y164173D02*
X214827D01*
X208000Y171000D01*
X204800D01*
X204500Y171300D01*
Y172200D01*
X204800Y172500D01*
X205700D01*
X206000Y172800D01*
Y176700D01*
X205700Y177000D01*
X204800D01*
X204500Y176700D01*
Y174300D01*
X204200Y174000D01*
X201300D01*
X201000Y173700D01*
Y173000D01*
X202000Y172000D01*
G01X219528Y167323D02*
X217953Y168898D01*
X214602D01*
X209000Y174500D01*
Y185000D01*
X208500Y185500D01*
X207211D01*
X206711Y186000D01*
X201300D01*
X201000Y185700D01*
Y185000D01*
X202000Y184000D01*
G01X216378Y170472D02*
X214528D01*
X210000Y175000D01*
Y185500D01*
X209000Y186500D01*
X207500D01*
X204000Y190000D01*
X201300D01*
X201000Y189700D01*
Y189000D01*
X202000Y188000D01*
G01Y192000D02*
X203500D01*
X208000Y187500D01*
X210000D01*
X211000Y186500D01*
Y175500D01*
X214454Y172046D01*
X217030D01*
X218604Y170472D01*
X219528D01*
G01X216500Y217000D02*
Y219000D01*
X215000Y220500D01*
G01X200000D02*
Y217000D01*
G01X210000Y220500D02*
Y214000D01*
G01X200000Y242000D02*
Y247000D01*
G01X210000Y242000D02*
Y247000D01*
G01X215000Y257000D02*
X211500D01*
G01Y267000D02*
X215000D01*
G01X203850Y317800D02*
Y292200D01*
G01X237000Y57000D02*
Y54500D01*
X235547Y53047D01*
X234000D01*
G01X237000Y73000D02*
Y74984D01*
X239016Y77000D01*
G01X241600Y114200D02*
Y116905D01*
X238426Y120079D01*
G01X251000Y81000D02*
X246500Y85500D01*
Y90000D01*
X245000Y91500D01*
Y99000D01*
X246500Y100500D01*
Y104000D01*
X245000Y105500D01*
Y117500D01*
X243000Y119500D01*
Y122000D01*
X240198Y124802D01*
X234626D01*
X233702Y125726D01*
Y127952D01*
X232126Y129528D01*
G01X315000Y140000D02*
X313000Y138000D01*
X287000D01*
X284448Y140552D01*
X259552D01*
X258898Y139898D01*
Y136898D01*
X252599Y130599D01*
Y128876D01*
X251677Y127954D01*
X239999D01*
X238425Y129528D01*
G01X228976D02*
X230552Y127952D01*
Y122576D01*
X231474Y121654D01*
X235928D01*
X236850Y120732D01*
Y114200D01*
G01X230000Y214000D02*
X225000Y219000D01*
Y220500D01*
G01X220000Y217000D02*
Y220500D01*
G01X260000Y217000D02*
X258000Y215000D01*
X253500D01*
X249500Y219000D01*
X240000D01*
X238000Y217000D01*
G01Y214000D02*
X248600Y203400D01*
Y180119D01*
X253521Y175198D01*
X254823D01*
X255747Y174274D01*
Y172972D01*
X256671Y172048D01*
X257973D01*
X258897Y171124D01*
Y159103D01*
X260126Y157874D01*
X260472D01*
G01X230000Y224500D02*
Y228000D01*
G01X235000Y247000D02*
Y242000D01*
G01X220000D02*
Y247000D01*
G01X226476Y306000D02*
Y301913D01*
G01X221428Y346753D02*
X234247D01*
X241000Y340000D01*
G01X221428Y343997D02*
X232003D01*
X236000Y340000D01*
G01X221428Y341241D02*
X225015D01*
X225774Y342000D01*
X229000D01*
X231000Y340000D01*
G01X241000Y57000D02*
X240984Y56984D01*
Y53000D01*
G01X244921D02*
Y56921D01*
X245000Y57000D01*
G01X249000D02*
X248858Y56858D01*
Y53142D01*
G01X257000Y57000D02*
X256732Y56732D01*
Y53000D01*
G01X249000Y73000D02*
Y75173D01*
X250827Y77000D01*
G01X241000Y73000D02*
Y75047D01*
X242953Y77000D01*
G01X245000Y73000D02*
Y75110D01*
X246890Y77000D01*
G01X257000Y73000D02*
Y75299D01*
X258701Y77000D01*
G01X239634Y91260D02*
X240000Y90894D01*
Y87000D01*
G01Y103000D02*
X243500Y106500D01*
Y113500D01*
X242800Y114200D01*
X241600D01*
G01X247000Y97000D02*
Y99000D01*
X248000Y100000D01*
Y104000D01*
X246500Y105500D01*
Y118303D01*
X244724Y120079D01*
G01X254500Y90100D02*
Y93500D01*
X252000Y96000D01*
X248000D01*
X247000Y97000D01*
G01X254500Y99900D02*
X261000D01*
X262000Y98900D01*
Y97000D01*
G01X247874Y120079D02*
X247500Y119705D01*
Y106000D01*
X249000Y104500D01*
Y100900D01*
X250000Y99900D01*
X254500D01*
G01X249448Y118511D02*
Y121653D01*
X248981Y122121D01*
X247874Y123228D01*
G01X255750Y114200D02*
X255749Y114201D01*
Y123880D01*
X254827Y124802D01*
X246300D01*
X244724Y126378D01*
G01X268000Y100000D02*
Y106000D01*
X263912Y110088D01*
Y117377D01*
X262046Y119243D01*
Y127030D01*
X261124Y127952D01*
X261002D01*
X261000Y127954D01*
X255747D01*
X254173Y129528D01*
G01X268000Y97000D02*
X266000Y99000D01*
Y106000D01*
X263000Y109000D01*
Y117000D01*
X261501Y118499D01*
X259501D01*
X258897Y119103D01*
Y121654D01*
X257323Y123228D01*
G01X251000Y282000D02*
X272038Y260962D01*
Y237962D01*
X277000Y233000D01*
Y208000D01*
X290324Y194676D01*
Y177324D01*
X287574Y174574D01*
Y172019D01*
X285430Y169875D01*
X279930D01*
X279555Y169500D01*
X279500D01*
X266298Y156298D01*
X258798D01*
X257323Y154823D01*
Y154724D01*
G01X248500Y217000D02*
X253500Y212000D01*
Y180594D01*
X254173Y179921D01*
G01X251025Y185800D02*
Y180475D01*
X253153Y178347D01*
X255749D01*
X257323Y179921D01*
G01X255750Y185800D02*
Y183750D01*
X259000Y180500D01*
Y179372D01*
X257323Y177695D01*
Y176772D01*
G01X254173Y173622D02*
X253378D01*
X246300Y180700D01*
Y185800D01*
G01X260475D02*
Y179475D01*
X258898Y177898D01*
Y175197D01*
X257323Y173622D01*
G01X246300Y189800D02*
Y192525D01*
G01X255750Y189800D02*
Y192500D01*
G01X251025Y189800D02*
Y192525D01*
G01X255000Y217000D02*
Y220500D01*
G01X240000Y242000D02*
Y247000D01*
G01X250000Y242000D02*
Y247000D01*
G01X290000Y161000D02*
X291574Y162574D01*
Y170574D01*
X293000Y172000D01*
Y196000D01*
X281000Y208000D01*
Y235000D01*
X275000Y241000D01*
Y264000D01*
X251000Y288000D01*
G01Y294000D02*
X278000Y267000D01*
Y244000D01*
X285000Y237000D01*
Y208000D01*
X295000Y198000D01*
Y171422D01*
X293426Y169848D01*
Y162574D01*
X295000Y161000D01*
G01X290000Y156000D02*
X292500Y158500D01*
Y170211D01*
X294000Y171711D01*
Y197000D01*
X283000Y208000D01*
Y236000D01*
X276500Y242500D01*
Y265500D01*
X251000Y291000D01*
G01Y285000D02*
X273500Y262500D01*
Y239500D01*
X279000Y234000D01*
Y208000D01*
X292000Y195000D01*
Y172500D01*
X290500Y171000D01*
X288500D01*
X286000Y168500D01*
X280500D01*
X263622Y151622D01*
Y151575D01*
G01X265000Y57000D02*
X261000D01*
G01X260669Y53000D02*
Y56669D01*
X261000Y57000D01*
G01X285000Y77000D02*
Y69457D01*
X268543Y53000D01*
G01X261000Y73000D02*
Y75362D01*
X262638Y77000D01*
G01X270512D02*
Y90488D01*
X268000Y93000D01*
G01X289000Y77000D02*
Y83000D01*
X282000Y90000D01*
X274000D01*
X273000Y91000D01*
Y93000D01*
G01X268000Y97000D02*
X273000D01*
G01X286000Y124800D02*
X283700Y122500D01*
X269500D01*
X268654Y121654D01*
X265196D01*
X263622Y123228D01*
G01X323000Y140000D02*
X315000Y132000D01*
X272898D01*
X272000Y131102D01*
X268102D01*
X266772Y129772D01*
Y129528D01*
G01X275800Y129525D02*
X273068D01*
X269921Y126378D01*
G01X275800Y124800D02*
X270575D01*
X270573Y124802D01*
X268348D01*
X266772Y126378D01*
G01X323000Y143000D02*
X313000Y133000D01*
X288000D01*
X283000Y138000D01*
X268021D01*
X264274Y134253D01*
X262253D01*
X260677Y132677D01*
X260472D01*
G01X275800Y134250D02*
X270574D01*
X270573Y134251D01*
X268346D01*
X266772Y132677D01*
G01X320000Y143000D02*
Y142000D01*
X312000Y134000D01*
X289000D01*
X284000Y139000D01*
X265872D01*
X264274Y137402D01*
X262046D01*
X260472Y138976D01*
G01X275800Y157875D02*
X273075D01*
G01X266772Y170472D02*
X278527D01*
X278930Y170875D01*
X278985D01*
X279360Y171250D01*
X281250D01*
X288949Y178949D01*
Y191051D01*
X286000Y194000D01*
G01X260472Y173622D02*
X260622D01*
X262046Y175046D01*
Y182000D01*
X262500Y182454D01*
Y211000D01*
X263500Y212000D01*
X267000D01*
X268000Y211000D01*
Y207000D01*
X269000Y206000D01*
X271000D01*
X272000Y207000D01*
Y218000D01*
X274000Y220000D01*
Y228000D01*
G01X263622Y179921D02*
X264000Y180299D01*
Y202000D01*
X265000Y203000D01*
X268000D01*
X269000Y202000D01*
Y199500D01*
X270000Y198500D01*
X273000D01*
X274000Y199500D01*
Y217000D01*
G01X275800Y175200D02*
X275798Y175198D01*
X273000D01*
X271426Y176772D01*
X266772D01*
G01Y179921D02*
X266776Y179925D01*
X275800D01*
G01X267000Y193000D02*
X265201Y191201D01*
Y187151D01*
X265198Y187148D01*
Y180208D01*
X265196Y180206D01*
Y174804D01*
X266378Y173622D01*
X266772D01*
G01X260475Y189800D02*
Y192525D01*
G01X260000Y217000D02*
Y220500D01*
G01X265000Y217000D02*
Y220500D01*
G01X270000Y217000D02*
Y220500D01*
G01X260000Y242000D02*
Y247000D01*
G01X270000Y242000D02*
Y247000D01*
G01X278572Y343997D02*
X272997D01*
X269000Y340000D01*
G01X278572Y349509D02*
X269509D01*
X264000Y344000D01*
Y340000D01*
G01X278572Y341241D02*
X275241D01*
X274000Y340000D01*
G01X302575Y203550D02*
Y200575D01*
X301000Y199000D01*
Y143000D01*
X300000Y142000D01*
X297000D01*
X295000Y144000D01*
G01X299000D02*
Y155500D01*
X298500Y156000D01*
X297500D01*
X297000Y155500D01*
Y146500D01*
X296500Y146000D01*
X295500D01*
X295000Y146500D01*
Y158000D01*
X295500Y158500D01*
X296500D01*
X297000Y159000D01*
Y175000D01*
X299000Y177000D01*
Y222500D01*
X299500Y223000D01*
X300500D01*
X301000Y222500D01*
Y209500D01*
X301500Y209000D01*
X303000D01*
X303500Y209500D01*
Y213500D01*
X304000Y214000D01*
X305000D01*
X305500Y213500D01*
Y209500D01*
X306000Y209000D01*
X307000D01*
X307500Y209500D01*
Y213500D01*
X308000Y214000D01*
X308800D01*
X309300Y213500D01*
Y206700D01*
G01X305000Y200000D02*
X302000Y197000D01*
Y141000D01*
X301000Y140000D01*
X299000D01*
G01Y163000D02*
Y158000D01*
G01X279800Y175200D02*
X282525D01*
G01X286000Y191000D02*
X287574Y189426D01*
Y180249D01*
X282525Y175200D01*
G01X279800Y179925D02*
X282525D01*
G01X286000Y188000D02*
Y183400D01*
X282525Y179925D01*
G01X285000Y248000D02*
Y246000D01*
X288000Y243000D01*
X318000D01*
X336000Y225000D01*
X365000D01*
X371000Y219000D01*
Y162500D01*
X372000Y161500D01*
Y125500D01*
X377500Y120000D01*
G01X290000Y248000D02*
Y246000D01*
X292000Y244000D01*
X319000D01*
X337000Y226000D01*
X366000D01*
X372000Y220000D01*
Y163500D01*
X373000Y162500D01*
Y134500D01*
X377500Y130000D01*
G01X368000Y159000D02*
Y212000D01*
X365000Y215000D01*
X344000D01*
X317375Y241625D01*
X284375D01*
X280000Y246000D01*
Y248000D01*
G01X285000Y255000D02*
Y252000D01*
G01Y258000D02*
Y255000D01*
G01X290000Y262000D02*
Y265000D01*
G01Y255000D02*
Y252000D01*
G01X295000Y258000D02*
Y255000D01*
G01X280000Y252000D02*
Y255000D01*
G01Y258000D02*
Y255000D01*
G01Y287000D02*
Y290000D01*
G01X290000Y283500D02*
X287500D01*
X286079Y284921D01*
G01X286047Y277047D02*
X289953D01*
X290000Y277000D01*
G01X280000Y270000D02*
Y273000D01*
G01X299000Y295000D02*
X300000Y296000D01*
Y298000D01*
G01X285000D02*
Y295000D01*
X286000Y294000D01*
Y290000D01*
G01X293000Y295000D02*
Y296000D01*
X295000Y298000D01*
G01X307000Y151000D02*
Y143000D01*
X310000Y140000D01*
G01X307000Y158000D02*
X310500D01*
X325000Y143500D01*
Y129000D01*
X324000Y128000D01*
Y70000D01*
G01X352500Y80000D02*
X347000Y85500D01*
Y102000D01*
X343000Y106000D01*
X337000D01*
X336000Y107000D01*
Y145000D01*
X329000Y152000D01*
X323000D01*
X318000Y157000D01*
Y159000D01*
X320000Y161000D01*
Y165000D01*
G01X362500Y70000D02*
X357500Y65000D01*
X350000D01*
X345000Y70000D01*
Y101000D01*
X342000Y104000D01*
X337000D01*
X334000Y107000D01*
Y143000D01*
X327000Y150000D01*
X323000D01*
X316625Y156375D01*
Y159625D01*
X318000Y161000D01*
Y172000D01*
G01X307000Y158000D02*
X304000Y161000D01*
Y163000D01*
G01X330000Y70000D02*
X326000Y74000D01*
Y144500D01*
X313000Y157500D01*
Y166000D01*
X312000Y167000D01*
X310000D01*
G01X307000Y172000D02*
X310000Y169000D01*
Y167000D01*
G01X315000Y158000D02*
Y163000D01*
G01X303000Y206700D02*
Y203975D01*
X302575Y203550D01*
G01X362500Y170000D02*
X358000Y174500D01*
X352500D01*
X335000Y192000D01*
Y203000D01*
X329726Y208274D01*
X320324D01*
X318750Y206700D01*
G01X377500Y160000D02*
X373000Y164500D01*
Y227000D01*
X365000Y235000D01*
X345000D01*
X333000Y247000D01*
X314000D01*
X312000Y245000D01*
X306000D01*
X305000Y246000D01*
Y248000D01*
G01X377500Y170000D02*
X381500Y174000D01*
Y233500D01*
X379000Y236000D01*
X346000D01*
X334000Y248000D01*
X310000D01*
G01Y252000D02*
Y255000D01*
G01X300000Y258000D02*
Y255000D01*
G01X305000D02*
Y252000D01*
G01Y258000D02*
Y255000D01*
G01X315000D02*
X316500D01*
X317500Y256000D01*
Y257500D01*
X318000Y258000D01*
X320000D01*
G01X310000Y262000D02*
Y270000D01*
G01X315000Y262000D02*
Y270000D01*
G01X310000Y305000D02*
Y302000D01*
G01X377500Y140000D02*
X383500Y146000D01*
Y272500D01*
X379000Y277000D01*
X333000D01*
X325000Y285000D01*
Y291000D01*
X321000Y295000D01*
X310000D01*
G01Y298000D02*
Y295000D01*
G01X377500Y90000D02*
X372500Y85000D01*
X361000D01*
X358500Y87500D01*
Y102000D01*
X354500Y106000D01*
X349000D01*
X348000Y107000D01*
Y136000D01*
X346000Y138000D01*
Y141000D01*
X337500Y149500D01*
Y171500D01*
X337000Y172000D01*
G01Y180000D02*
X334000Y177000D01*
X325000D01*
X322000Y174000D01*
Y160000D01*
X320000Y158000D01*
G01Y200000D02*
Y165000D01*
G01X329000Y163000D02*
Y161000D01*
X332000Y158000D01*
G01Y172000D02*
X335000Y169000D01*
Y167000D01*
G01X324000Y163000D02*
Y158000D01*
G01X352500Y160000D02*
X348000Y164500D01*
Y175500D01*
X332000Y191500D01*
Y200000D01*
G01X321900Y206700D02*
Y203975D01*
X322325Y203550D01*
G01X352500Y70000D02*
X356500Y74000D01*
Y101500D01*
X354000Y104000D01*
X349000D01*
X346000Y107000D01*
Y126000D01*
G01X362500Y120000D02*
X369500D01*
X370000Y119500D01*
Y92500D01*
X369500Y92000D01*
X367500D01*
X367000Y92500D01*
Y103500D01*
X366500Y104000D01*
X359000D01*
X358500Y104500D01*
Y143025D01*
X357525Y144000D01*
X348000D01*
X343000Y149000D01*
Y151000D01*
G01X352500Y100000D02*
X351000D01*
X344000Y107000D01*
Y127000D01*
X346000Y129000D01*
G01X352500Y130000D02*
Y134000D01*
X348000Y138500D01*
Y141000D01*
X340000Y149000D01*
Y151000D01*
G01X362500Y140000D02*
Y145700D01*
X362800Y146000D01*
X366200D01*
X366500Y145700D01*
Y136300D01*
X366200Y136000D01*
X360300D01*
X360000Y135700D01*
Y134300D01*
X360300Y134000D01*
X366200D01*
X366500Y133700D01*
Y124300D01*
X366800Y124000D01*
X367700D01*
X368000Y124300D01*
Y153000D01*
X367000Y154000D01*
X358800D01*
X358500Y153700D01*
Y148300D01*
X358200Y148000D01*
X357300D01*
X357000Y148300D01*
Y153700D01*
X356700Y154000D01*
X346300D01*
X346000Y153700D01*
Y151000D01*
G01X340000Y179925D02*
X340075D01*
X346000Y174000D01*
Y160500D01*
X350500Y156000D01*
X367000D01*
X370000Y153000D01*
Y124000D01*
X373000Y121000D01*
Y97000D01*
X375000Y95000D01*
X380000D01*
X382500Y92500D01*
Y75000D01*
X377500Y70000D01*
G01X343000Y163000D02*
X340000D01*
G01X348000Y289000D02*
X341500D01*
X341000Y288500D01*
G01X377000Y23000D02*
Y18050D01*
X371150Y12200D01*
G01Y37800D02*
Y25850D01*
X374000Y23000D01*
X377000D01*
G01X362500Y90000D02*
X370500D01*
X371500Y91000D01*
Y120000D01*
X369500Y122000D01*
X368000D01*
G01X381000Y289000D02*
X374500D01*
X374000Y288500D01*
G01X383000Y27000D02*
Y31950D01*
X388850Y37800D01*
G01Y12200D02*
Y24150D01*
X386000Y27000D01*
X383000D01*
G01X381000Y285000D02*
Y280000D01*
G54D52*
X221668Y354489D03*
X278332D03*
G54D25*
X69000Y83250D03*
Y90750D03*
X82000Y178250D03*
Y185750D03*
X100000Y301250D03*
Y308750D03*
X110000Y301250D03*
Y308750D03*
X120000D03*
Y301250D03*
X135000Y66250D03*
Y73750D03*
Y261250D03*
Y268750D03*
Y301250D03*
Y308750D03*
X145000Y261250D03*
Y268750D03*
Y301250D03*
Y308750D03*
X165000Y66250D03*
Y73750D03*
X189000Y111250D03*
Y118750D03*
X218000Y31250D03*
Y38750D03*
X217950Y180900D03*
Y188400D03*
X215000Y281250D03*
Y288750D03*
X235000D03*
Y281250D03*
X225000Y288750D03*
Y281250D03*
X312450Y190350D03*
Y197850D03*
X310000Y276250D03*
Y283750D03*
X320000D03*
Y276250D03*
X353000Y23250D03*
Y30750D03*
X343000Y23250D03*
Y30750D03*
G54D16*
X10000Y123500D03*
Y198500D03*
G54D34*
X105000Y12236D03*
Y39795D03*
G54D43*
X195000Y251614D03*
Y278386D03*
G54D61*
X352505Y342000D03*
Y353000D03*
G54D62*
G01X132600Y25700D02*
X134500D01*
X134600Y25600D01*
X135900D01*
X138450Y23050D01*
G01D02*
Y31550D01*
X138000Y32000D01*
G01X138450Y22900D02*
Y23050D01*
G01X132600Y21700D02*
Y16715D01*
X137015Y12300D01*
X138000D01*
G01X141000Y38000D02*
X135900D01*
X132000Y41900D01*
G01X145950Y22900D02*
X151300D01*
G01X153700Y35200D02*
Y37300D01*
X153000Y38000D01*
G01X160300Y23100D02*
X160600Y23400D01*
X165450D01*
G01X179300Y25200D02*
Y30100D01*
X177400Y32000D01*
G01X172950Y23400D02*
X176792D01*
X177492Y24100D01*
X178200D01*
X179300Y25200D01*
G01Y21200D02*
Y17970D01*
X177400Y16070D01*
Y12300D01*
G01X169000Y42000D02*
Y45000D01*
G01Y38000D02*
X175730D01*
X179630Y41900D01*
X183400D01*
G01X262000Y93000D02*
X263500D01*
X264500Y94000D01*
Y99999D01*
X259999Y104500D01*
X251000D01*
X248925Y106575D01*
Y117988D01*
X249448Y118511D01*
G01X251025Y114200D02*
X252800D01*
X253300Y113700D01*
Y110700D01*
X253800Y110200D01*
X255750D01*
G54D35*
X110000Y320750D03*
X105000D03*
X115000D03*
X120000D03*
X105000Y340250D03*
X110000D03*
X115000D03*
X120000D03*
X125000Y320750D03*
X130000D03*
X140000D03*
X135000D03*
X125000Y340250D03*
X130000D03*
X135000D03*
X140000D03*
G54D26*
X77000Y310000D03*
X77500Y350000D03*
X168000Y260000D03*
Y300000D03*
G54D44*
X196142Y342500D03*
G54D17*
X13900Y143000D03*
X8000Y152000D03*
Y146000D03*
Y140000D03*
X13900Y149000D03*
Y161000D03*
X8000Y170000D03*
X13900Y155000D03*
X8000Y164000D03*
Y158000D03*
X13900Y167000D03*
Y179000D03*
Y173000D03*
X8000Y182000D03*
Y176000D03*
G54D53*
X255130Y24330D03*
X306870D03*
G54D63*
G01X87000Y185000D02*
X86250Y185750D01*
X82000D01*
G01Y178250D02*
Y178000D01*
G01D02*
Y173000D01*
G01X290256Y292000D02*
X292000D01*
X294000Y290000D01*
X305000D01*
G01X312450Y203550D02*
Y213000D01*
G01Y197850D02*
Y203550D01*
G01Y220000D02*
Y225000D01*
G01Y213000D02*
Y220000D01*
G01X320000Y276250D02*
Y270000D01*
G01D02*
Y266000D01*
G01Y283750D02*
X310000D01*
G01X318000Y290000D02*
X322000D01*
G01X310000Y283750D02*
Y290000D01*
G01X305000D02*
X310000D01*
G01D02*
X318000D01*
G54D36*
X129700Y8400D03*
X185700D03*
G54D45*
X218000Y9937D03*
G54D54*
X254500Y90100D03*
Y99900D03*
G54D18*
X15000Y290000D03*
X25000D03*
X77500Y327500D03*
X100000Y140000D03*
X90000Y260000D03*
X100000D03*
X119700Y119700D03*
X110000Y140000D03*
X127300Y118200D03*
X168000Y250000D03*
Y290000D03*
X190000Y72000D03*
Y62000D03*
Y82000D03*
X221000Y85000D03*
X280000D03*
Y95000D03*
X340000Y270000D03*
G54D27*
X77000Y300000D03*
X77500Y340000D03*
X168000Y270000D03*
Y310000D03*
G54D64*
G01X6000Y-60000D02*
Y-52000D01*
X8400D01*
X9200Y-52400D01*
X9800Y-53333D01*
X10000Y-54400D01*
X9800Y-55467D01*
X9300Y-56267D01*
X8400Y-56667D01*
X6000D01*
G01X16000Y-52000D02*
Y-60000D01*
G01X13700Y-52000D02*
X18300D01*
G01X22800D02*
X25200D01*
G01X24000D02*
Y-60000D01*
G01X22800D02*
X25200D01*
G01X46100Y-53333D02*
X46700Y-52533D01*
X47400Y-52133D01*
X48200Y-52000D01*
X49200Y-52267D01*
X49900Y-52933D01*
X50100Y-53733D01*
X50000Y-54534D01*
X49600Y-55200D01*
X47600Y-56533D01*
X46700Y-57467D01*
X46100Y-58800D01*
X45900Y-60000D01*
X50100D01*
G01X54200Y-60267D02*
X57800Y-52000D01*
G01X65200Y-60000D02*
Y-52000D01*
X61500Y-57733D01*
X66500D01*
G01X70200Y-60267D02*
X73800Y-52000D01*
G01X78100Y-53333D02*
X78700Y-52533D01*
X79400Y-52133D01*
X80200Y-52000D01*
X81200Y-52267D01*
X81900Y-52933D01*
X82100Y-53733D01*
X82000Y-54534D01*
X81600Y-55200D01*
X79600Y-56533D01*
X78700Y-57467D01*
X78100Y-58800D01*
X77900Y-60000D01*
X82100D01*
G01X88000Y-52000D02*
X87200Y-52267D01*
X86600Y-52933D01*
X86200Y-53733D01*
X85900Y-54800D01*
X85800Y-56000D01*
X85900Y-57200D01*
X86200Y-58267D01*
X86600Y-59067D01*
X87200Y-59733D01*
X88000Y-60000D01*
X88800Y-59733D01*
X89400Y-59067D01*
X89800Y-58267D01*
X90100Y-57200D01*
X90200Y-56000D01*
X90100Y-54800D01*
X89800Y-53733D01*
X89400Y-52933D01*
X88800Y-52267D01*
X88000Y-52000D01*
G01X96000Y-60000D02*
Y-52000D01*
X94800Y-53600D01*
G01Y-60000D02*
X97200D01*
G01X101800Y-58800D02*
X102400Y-59467D01*
X103100Y-59867D01*
X104000Y-60000D01*
X104900Y-59733D01*
X105600Y-59200D01*
X106100Y-58267D01*
X106200Y-57200D01*
X106000Y-56133D01*
X105500Y-55467D01*
X104800Y-54933D01*
X104100Y-54800D01*
X103400Y-54933D01*
X102500Y-55467D01*
X102800Y-52000D01*
X105500D01*
G01X6000Y-22000D02*
Y-30000D01*
X10000D01*
G01X13500D02*
X16000Y-22000D01*
X18500Y-30000D01*
G01X17600Y-27200D02*
X14400D01*
G01X24000Y-30000D02*
Y-26400D01*
X22000Y-22000D01*
G01X26000D02*
X24000Y-26400D01*
G01X34000Y-30000D02*
X30000D01*
Y-22000D01*
X34000D01*
G01X32400Y-25867D02*
X30000D01*
G01X38000Y-30000D02*
Y-22000D01*
X40500D01*
X41300Y-22400D01*
X41800Y-22933D01*
X42000Y-24000D01*
X41800Y-25067D01*
X41200Y-25733D01*
X40500Y-26133D01*
X38000D01*
G01X40500D02*
X42000Y-30000D01*
G01X54100Y-26667D02*
X54800Y-25733D01*
X55400Y-25200D01*
X56200Y-24933D01*
X56900Y-25200D01*
X57400Y-25733D01*
X57800Y-26533D01*
X57900Y-27467D01*
X57800Y-28267D01*
X57400Y-29067D01*
X56800Y-29733D01*
X56100Y-30000D01*
X55300Y-29733D01*
X54600Y-28934D01*
X54200Y-27733D01*
X54100Y-26400D01*
X54300Y-24667D01*
X54600Y-23733D01*
X55100Y-22800D01*
X55800Y-22133D01*
X56500Y-22000D01*
X57200Y-22267D01*
X57700Y-22933D01*
G01X71500Y-32667D02*
X70500Y-31333D01*
X70000Y-30000D01*
Y-24667D01*
X70500Y-23333D01*
X71500Y-22000D01*
G01X80800Y-25733D02*
X81200Y-25333D01*
X81500Y-24667D01*
X81700Y-23733D01*
X81500Y-22933D01*
X81100Y-22400D01*
X80400Y-22000D01*
X77700D01*
Y-30000D01*
X81000D01*
X81700Y-29467D01*
X82100Y-28667D01*
X82300Y-27733D01*
X82100Y-26800D01*
X81500Y-26000D01*
X80800Y-25733D01*
X77700D01*
G01X88000Y-30000D02*
X87200Y-29867D01*
X86500Y-29333D01*
X85900Y-28533D01*
X85500Y-27600D01*
X85300Y-26533D01*
Y-25467D01*
X85500Y-24400D01*
X85900Y-23467D01*
X86500Y-22667D01*
X87200Y-22133D01*
X88000Y-22000D01*
X88800Y-22133D01*
X89500Y-22667D01*
X90100Y-23467D01*
X90500Y-24400D01*
X90700Y-25467D01*
Y-26533D01*
X90500Y-27600D01*
X90100Y-28533D01*
X89500Y-29333D01*
X88800Y-29867D01*
X88000Y-30000D01*
G01X96000Y-22000D02*
Y-30000D01*
G01X93700Y-22000D02*
X98300D01*
G01X104000D02*
Y-30000D01*
G01X101700Y-22000D02*
X106300D01*
G01X112000Y-30000D02*
X111200Y-29867D01*
X110500Y-29333D01*
X109900Y-28533D01*
X109500Y-27600D01*
X109300Y-26533D01*
Y-25467D01*
X109500Y-24400D01*
X109900Y-23467D01*
X110500Y-22667D01*
X111200Y-22133D01*
X112000Y-22000D01*
X112800Y-22133D01*
X113500Y-22667D01*
X114100Y-23467D01*
X114500Y-24400D01*
X114700Y-25467D01*
Y-26533D01*
X114500Y-27600D01*
X114100Y-28533D01*
X113500Y-29333D01*
X112800Y-29867D01*
X112000Y-30000D01*
G01X117400D02*
Y-22000D01*
X120000Y-28667D01*
X122600Y-22000D01*
Y-30000D01*
G01X133900Y-28934D02*
X134700Y-29600D01*
X135600Y-30000D01*
X136400D01*
X137200Y-29600D01*
X137800Y-28934D01*
X138100Y-28000D01*
X137900Y-27067D01*
X137400Y-26267D01*
X136500Y-25733D01*
X135300Y-25467D01*
X134600Y-24933D01*
X134300Y-24000D01*
X134500Y-23067D01*
X135000Y-22400D01*
X135700Y-22000D01*
X136400D01*
X137100Y-22267D01*
X137700Y-22933D01*
G01X142800Y-22000D02*
X145200D01*
G01X144000D02*
Y-30000D01*
G01X142800D02*
X145200D01*
G01X149800D02*
Y-22000D01*
X151800D01*
X152600Y-22400D01*
X153200Y-22933D01*
X153700Y-23733D01*
X154100Y-24667D01*
X154200Y-26000D01*
X154100Y-27333D01*
X153700Y-28267D01*
X153200Y-29067D01*
X152600Y-29600D01*
X151800Y-30000D01*
X149800D01*
G01X162000D02*
X158000D01*
Y-22000D01*
X162000D01*
G01X160400Y-25867D02*
X158000D01*
G01X168500Y-32667D02*
X169500Y-31333D01*
X170000Y-30000D01*
Y-24667D01*
X169500Y-23333D01*
X168500Y-22000D01*
G01X8000Y-45000D02*
X7200Y-44867D01*
X6500Y-44333D01*
X5900Y-43533D01*
X5500Y-42600D01*
X5300Y-41533D01*
Y-40467D01*
X5500Y-39400D01*
X5900Y-38467D01*
X6500Y-37667D01*
X7200Y-37133D01*
X8000Y-37000D01*
X8800Y-37133D01*
X9500Y-37667D01*
X10100Y-38467D01*
X10500Y-39400D01*
X10700Y-40467D01*
Y-41533D01*
X10500Y-42600D01*
X10100Y-43533D01*
X9500Y-44333D01*
X8800Y-44867D01*
X8000Y-45000D01*
G01X13400D02*
Y-37000D01*
X16000Y-43667D01*
X18600Y-37000D01*
Y-45000D01*
G01X21500D02*
X24000Y-37000D01*
X26500Y-45000D01*
G01X25600Y-42200D02*
X22400D01*
G01X30000Y-45000D02*
Y-37000D01*
X32400D01*
X33200Y-37400D01*
X33800Y-38333D01*
X34000Y-39400D01*
X33800Y-40467D01*
X33300Y-41267D01*
X32400Y-41667D01*
X30000D01*
G01X38700Y-42333D02*
X41300D01*
G01X46000Y-37000D02*
Y-45000D01*
X50000D01*
G01X56000D02*
Y-37000D01*
X54800Y-38600D01*
G01Y-45000D02*
X57200D01*
G01X61800Y-43400D02*
X62400Y-44333D01*
X63200Y-44867D01*
X64100Y-45000D01*
X64900Y-44867D01*
X65700Y-44200D01*
X66200Y-43400D01*
X66300Y-42600D01*
X66100Y-41667D01*
X65400Y-41000D01*
X64700Y-40733D01*
X63800D01*
G01X64700D02*
X65300Y-40333D01*
X65800Y-39667D01*
X66000Y-38867D01*
X65800Y-38067D01*
X65300Y-37400D01*
X64400Y-37000D01*
X63500Y-37133D01*
X62600Y-37667D01*
G01X72000Y-45000D02*
X72700Y-44867D01*
X73500Y-44467D01*
X74000Y-43800D01*
X74200Y-42867D01*
X74000Y-41934D01*
X73400Y-41133D01*
X72500Y-40733D01*
X71500D01*
X70900Y-40467D01*
X70400Y-39800D01*
X70200Y-38867D01*
X70500Y-37933D01*
X71200Y-37267D01*
X72000Y-37000D01*
X72800Y-37267D01*
X73500Y-37933D01*
X73800Y-38867D01*
X73600Y-39800D01*
X73100Y-40467D01*
X72500Y-40733D01*
X71500D01*
X70600Y-41133D01*
X70000Y-41934D01*
X69800Y-42867D01*
X70000Y-43800D01*
X70500Y-44467D01*
X71300Y-44867D01*
X72000Y-45000D01*
G01X78200Y-45267D02*
X81800Y-37000D01*
G01X90200Y-37667D02*
X89600Y-37267D01*
X88900Y-37000D01*
X88100D01*
X87200Y-37400D01*
X86500Y-38067D01*
X86000Y-38867D01*
X85600Y-40200D01*
X85500Y-41400D01*
X85700Y-42600D01*
X86000Y-43400D01*
X86600Y-44200D01*
X87300Y-44733D01*
X88000Y-45000D01*
X88700D01*
X89400Y-44733D01*
X90000Y-44333D01*
X90500Y-43800D01*
G01X94100Y-41667D02*
X94800Y-40733D01*
X95400Y-40200D01*
X96200Y-39933D01*
X96900Y-40200D01*
X97400Y-40733D01*
X97800Y-41533D01*
X97900Y-42467D01*
X97800Y-43267D01*
X97400Y-44067D01*
X96800Y-44733D01*
X96100Y-45000D01*
X95300Y-44733D01*
X94600Y-43934D01*
X94200Y-42733D01*
X94100Y-41400D01*
X94300Y-39667D01*
X94600Y-38733D01*
X95100Y-37800D01*
X95800Y-37133D01*
X96500Y-37000D01*
X97200Y-37267D01*
X97700Y-37933D01*
G01X103800Y-45000D02*
X104000Y-43267D01*
X104300Y-41800D01*
X104700Y-40467D01*
X105200Y-39000D01*
X106000Y-37000D01*
X102000D01*
G01X113200Y-45000D02*
Y-37000D01*
X109500Y-42733D01*
X114500D01*
G01X120000Y-45000D02*
X120700Y-44867D01*
X121500Y-44467D01*
X122000Y-43800D01*
X122200Y-42867D01*
X122000Y-41934D01*
X121400Y-41133D01*
X120500Y-40733D01*
X119500D01*
X118900Y-40467D01*
X118400Y-39800D01*
X118200Y-38867D01*
X118500Y-37933D01*
X119200Y-37267D01*
X120000Y-37000D01*
X120800Y-37267D01*
X121500Y-37933D01*
X121800Y-38867D01*
X121600Y-39800D01*
X121100Y-40467D01*
X120500Y-40733D01*
X119500D01*
X118600Y-41133D01*
X118000Y-41934D01*
X117800Y-42867D01*
X118000Y-43800D01*
X118500Y-44467D01*
X119300Y-44867D01*
X120000Y-45000D01*
G01X134000Y-37000D02*
Y-45000D01*
X138000D01*
G01X146200Y-37667D02*
X145600Y-37267D01*
X144900Y-37000D01*
X144100D01*
X143200Y-37400D01*
X142500Y-38067D01*
X142000Y-38867D01*
X141600Y-40200D01*
X141500Y-41400D01*
X141700Y-42600D01*
X142000Y-43400D01*
X142600Y-44200D01*
X143300Y-44733D01*
X144000Y-45000D01*
X144700D01*
X145400Y-44733D01*
X146000Y-44333D01*
X146500Y-43800D01*
G01X149800Y-45000D02*
Y-37000D01*
X151800D01*
X152600Y-37400D01*
X153200Y-37933D01*
X153700Y-38733D01*
X154100Y-39667D01*
X154200Y-41000D01*
X154100Y-42333D01*
X153700Y-43267D01*
X153200Y-44067D01*
X152600Y-44600D01*
X151800Y-45000D01*
X149800D01*
G01X157800D02*
Y-37000D01*
G01X161600D02*
X157800Y-41934D01*
G01X162200Y-45000D02*
X159500Y-39667D01*
G01X166700Y-42333D02*
X169300D01*
G01X174000Y-45000D02*
Y-37000D01*
X176400D01*
X177200Y-37400D01*
X177800Y-38333D01*
X178000Y-39400D01*
X177800Y-40467D01*
X177300Y-41267D01*
X176400Y-41667D01*
X174000D01*
G01X186200Y-37667D02*
X185600Y-37267D01*
X184900Y-37000D01*
X184100D01*
X183200Y-37400D01*
X182500Y-38067D01*
X182000Y-38867D01*
X181600Y-40200D01*
X181500Y-41400D01*
X181700Y-42600D01*
X182000Y-43400D01*
X182600Y-44200D01*
X183300Y-44733D01*
X184000Y-45000D01*
X184700D01*
X185400Y-44733D01*
X186000Y-44333D01*
X186500Y-43800D01*
G01X192800Y-40733D02*
X193200Y-40333D01*
X193500Y-39667D01*
X193700Y-38733D01*
X193500Y-37933D01*
X193100Y-37400D01*
X192400Y-37000D01*
X189700D01*
Y-45000D01*
X193000D01*
X193700Y-44467D01*
X194100Y-43667D01*
X194300Y-42733D01*
X194100Y-41800D01*
X193500Y-41000D01*
X192800Y-40733D01*
X189700D01*
G01X198700Y-42333D02*
X201300D01*
G01X208000Y-37000D02*
X207200Y-37267D01*
X206600Y-37933D01*
X206200Y-38733D01*
X205900Y-39800D01*
X205800Y-41000D01*
X205900Y-42200D01*
X206200Y-43267D01*
X206600Y-44067D01*
X207200Y-44733D01*
X208000Y-45000D01*
X208800Y-44733D01*
X209400Y-44067D01*
X209800Y-43267D01*
X210100Y-42200D01*
X210200Y-41000D01*
X210100Y-39800D01*
X209800Y-38733D01*
X209400Y-37933D01*
X208800Y-37267D01*
X208000Y-37000D01*
G01X216000D02*
X215200Y-37267D01*
X214600Y-37933D01*
X214200Y-38733D01*
X213900Y-39800D01*
X213800Y-41000D01*
X213900Y-42200D01*
X214200Y-43267D01*
X214600Y-44067D01*
X215200Y-44733D01*
X216000Y-45000D01*
X216800Y-44733D01*
X217400Y-44067D01*
X217800Y-43267D01*
X218100Y-42200D01*
X218200Y-41000D01*
X218100Y-39800D01*
X217800Y-38733D01*
X217400Y-37933D01*
X216800Y-37267D01*
X216000Y-37000D01*
G01X225200Y-45000D02*
Y-37000D01*
X221500Y-42733D01*
X226500D01*
G54D37*
X138000Y32000D03*
X132000Y41900D03*
X148000Y32000D03*
X167500D03*
X177400D03*
X183400Y41900D03*
G54D28*
X95000Y110000D03*
X86000D03*
X95000Y120000D03*
X86000D03*
G54D46*
X210000Y38000D03*
Y32000D03*
G54D19*
X33000Y18000D03*
X29000D03*
Y28000D03*
X33000D03*
Y33000D03*
X29000D03*
X33000Y38000D03*
X29000D03*
X33000Y43000D03*
X29000D03*
X57000Y101000D03*
X53000D03*
X56000Y249000D03*
X52000D03*
Y239000D03*
X56000D03*
X71000Y28000D03*
X67000D03*
Y23000D03*
X71000D03*
X67000Y18000D03*
X71000D03*
X67000Y33000D03*
X71000D03*
X67000Y43000D03*
X71000D03*
X67000Y38000D03*
X71000D03*
X64000Y101000D03*
X68000D03*
Y249000D03*
X72000D03*
Y239000D03*
X68000D03*
X92000Y128000D03*
X88000D03*
X98000Y180000D03*
Y190000D03*
Y210000D03*
Y200000D03*
X83000Y239000D03*
X87000D03*
X83000Y249000D03*
X87000D03*
X98000D03*
Y239000D03*
X102000Y180000D03*
Y190000D03*
Y210000D03*
Y200000D03*
Y249000D03*
Y239000D03*
X126175Y132675D03*
X130175D03*
X126175Y138975D03*
X130175D03*
X126175Y145275D03*
X130175D03*
X126175Y165750D03*
X130175D03*
X126175Y151575D03*
X130175D03*
X126175Y161025D03*
X130175D03*
X126175Y170475D03*
X130175D03*
X150650Y138975D03*
X146650D03*
Y161025D03*
X150650D03*
Y151575D03*
X146650D03*
X150650Y165750D03*
X146650D03*
Y156300D03*
X150650D03*
X146650Y187800D03*
X150650D03*
X171125Y132675D03*
X167125D03*
X171125Y138975D03*
X167125D03*
X171125Y145275D03*
X167125D03*
X171125Y151575D03*
X167125D03*
X171125Y161025D03*
X167125D03*
X171125Y179925D03*
X167125D03*
X198000Y110000D03*
Y114000D03*
Y118000D03*
Y126000D03*
Y122000D03*
Y130000D03*
Y142000D03*
Y134000D03*
Y150000D03*
Y146000D03*
Y138000D03*
Y158000D03*
Y154000D03*
Y164000D03*
Y168000D03*
X187000Y164000D03*
X191000D03*
X187000Y156000D03*
X191000D03*
X187000Y168000D03*
X191000D03*
X198000Y180000D03*
Y172000D03*
Y188000D03*
Y176000D03*
Y184000D03*
Y192000D03*
X202000Y110000D03*
Y114000D03*
Y118000D03*
Y126000D03*
Y122000D03*
Y130000D03*
Y142000D03*
Y134000D03*
Y150000D03*
Y146000D03*
Y138000D03*
Y158000D03*
Y154000D03*
Y164000D03*
Y168000D03*
Y180000D03*
Y172000D03*
Y188000D03*
Y176000D03*
Y184000D03*
Y192000D03*
X222250Y135825D03*
X226250D03*
X235700D03*
X231700D03*
Y142125D03*
X235700D03*
X222250Y148425D03*
X226250D03*
X235700D03*
X231700D03*
X222250Y142125D03*
X226250D03*
X235700Y161025D03*
X231700D03*
X235700Y167325D03*
X231700D03*
X222250D03*
X226250D03*
X235700Y154725D03*
X231700D03*
X222250D03*
X226250D03*
X222250Y161025D03*
X226250D03*
X231700Y173625D03*
X235700D03*
X227000Y250000D03*
X223000D03*
Y270000D03*
X227000D03*
X247450Y148425D03*
X251450D03*
X247450Y135825D03*
X251450D03*
X247450Y142125D03*
X251450D03*
X247450Y154725D03*
X251450D03*
Y167325D03*
X247450D03*
Y161025D03*
X251450D03*
X279800Y120075D03*
X275800D03*
Y124800D03*
X279800D03*
X275800Y129525D03*
X279800D03*
Y148425D03*
X275800D03*
X279800Y143700D03*
X275800D03*
Y134250D03*
X279800D03*
X275800Y157875D03*
X279800D03*
Y179925D03*
X275800D03*
X279800Y175200D03*
X275800D03*
X296275Y225600D03*
X300275D03*
X298000Y270000D03*
X318000Y40000D03*
X318325Y203550D03*
X306575D03*
X302575D03*
X302000Y270000D03*
X322000Y40000D03*
X328000D03*
X332000D03*
X322325Y203550D03*
X328625Y213000D03*
X324625D03*
X328625Y222450D03*
X324625D03*
G54D55*
X267220Y35000D03*
X277060D03*
X294780D03*
X284940D03*
G54D65*
G01X168000Y246398D02*
Y250000D01*
G01D02*
Y253602D01*
G01X164398Y250000D02*
X168000D01*
G01D02*
X171602D01*
G54D38*
X138000Y12300D03*
X177400D03*
G54D29*
X91250Y275000D03*
X98750D03*
X91250Y287000D03*
X98750D03*
X138450Y22900D03*
X127650Y125900D03*
X135150D03*
X127575Y187800D03*
X135075D03*
X145950Y22900D03*
X172950Y23400D03*
X165450D03*
X169725Y187800D03*
X162225D03*
X217750Y95000D03*
X210250D03*
X278400Y112200D03*
X270900D03*
X278400Y187800D03*
X270900D03*
G54D47*
X231366Y91260D03*
X239634D03*
Y98740D03*
X231366D03*
G54D56*
X340000Y80000D03*
X352500Y270000D03*
X377500D03*
G54D66*
G01X28950Y347050D02*
X29000Y347100D01*
Y349500D01*
X31500Y352000D01*
X33000D01*
G01X90280Y322154D02*
Y317805D01*
G01X87720Y322154D02*
Y317805D01*
G01X85161Y322154D02*
Y317805D01*
G01X87720Y338846D02*
Y344000D01*
G01D02*
X89500D01*
X90280Y343220D01*
Y338846D01*
G01X85161D02*
Y334339D01*
X86500Y333000D01*
G01X92839Y338846D02*
X99154D01*
G01X227400Y114200D02*
Y117000D01*
G01X235700Y142125D02*
X238424D01*
X238425Y142126D01*
G01X232126Y138976D02*
Y136251D01*
X231700Y135825D01*
G01X228977Y142126D02*
Y145276D01*
X226250Y148003D01*
Y148425D01*
G01X222677Y151624D02*
Y148852D01*
X222250Y148425D01*
G01X238425Y148426D02*
Y151575D01*
G01X235700Y148425D02*
X238424D01*
X238425Y148426D01*
G01X235276Y151575D02*
X235700Y151151D01*
Y148425D01*
G01X231700Y142125D02*
Y144850D01*
X232126Y145276D01*
G01X241575Y141700D02*
X241150D01*
X238425Y138975D01*
G01X222250Y142125D02*
X222677Y141698D01*
Y138977D01*
G01D02*
Y136252D01*
X222250Y135825D01*
G01X241575Y132250D02*
X241148Y132677D01*
X238426D01*
G01D02*
X235700Y135403D01*
Y135825D01*
G01X228977Y138976D02*
X226250Y141703D01*
Y142125D01*
G01X231700Y148425D02*
Y148851D01*
X228976Y151575D01*
G01X238425Y145276D02*
X238849Y145700D01*
X241575D01*
G01X226250Y135825D02*
X228974D01*
X228976Y135827D01*
G01X226250Y167325D02*
X228977Y164598D01*
Y164173D01*
G01X222250Y161025D02*
X222677Y160598D01*
Y157874D01*
G01D02*
Y155152D01*
X222250Y154725D01*
G01X222677Y170472D02*
Y167752D01*
X222250Y167325D01*
G01X238426Y154724D02*
X238852Y155150D01*
X241575D01*
G01X235700Y161025D02*
Y158298D01*
X235276Y157874D01*
G01X238425D02*
X238426Y157873D01*
Y154724D01*
G01X238425Y157874D02*
X235276D01*
G01X238425Y151575D02*
Y154723D01*
X238426Y154724D01*
G01X238425Y157874D02*
X241575D01*
G01X235700Y154725D02*
Y151999D01*
X235276Y151575D01*
G01Y157874D02*
X235700Y157450D01*
Y154725D01*
G01X232126Y164173D02*
X235276D01*
G01X235700Y167325D02*
Y164597D01*
X235276Y164173D01*
G01D02*
X235700Y163749D01*
Y161025D01*
G01X238426Y164173D02*
Y167322D01*
X238425Y167323D01*
G01X241575Y170050D02*
Y168298D01*
X240600Y167323D01*
X238425D01*
G01X228976Y151575D02*
Y154723D01*
X228977Y154724D01*
G01X226250Y154725D02*
X228976D01*
X228977Y154724D01*
G01X226250Y161025D02*
X228974D01*
X228976Y161023D01*
G01X225827Y157874D02*
X226250Y158297D01*
Y161025D01*
G01Y154725D02*
Y157451D01*
X225827Y157874D01*
G01Y151575D02*
X226250Y151998D01*
Y154725D01*
G01X231700D02*
X228978D01*
X228977Y154724D01*
G01X225827Y151575D02*
X228976D01*
G01X232126Y157874D02*
X228976D01*
G01X232126D02*
Y159374D01*
X231700Y159800D01*
Y161025D01*
G01Y167325D02*
X231675D01*
X229000Y170000D01*
Y170448D01*
X228976Y170472D01*
G01X235700Y173625D02*
Y170896D01*
X235276Y170472D01*
G01X231700Y173625D02*
Y170898D01*
X232126Y170472D01*
G01X226102Y173897D02*
X228102Y175897D01*
G01X251450Y148425D02*
Y151149D01*
X251024Y151575D01*
G01X251450Y148425D02*
X254173D01*
G01Y138976D02*
Y145276D01*
G01X251450Y135825D02*
Y133104D01*
X251023Y132677D01*
G01X251450Y135825D02*
X254172D01*
X254173Y135826D01*
G01D02*
Y138976D01*
G01Y148425D02*
Y145276D01*
G01Y148425D02*
Y151575D01*
G01X247450Y135825D02*
Y133101D01*
X247874Y132677D01*
G01X244724Y148426D02*
Y151575D01*
G01X247450Y148425D02*
X244725D01*
X244724Y148426D01*
G01X247450Y142125D02*
X244725D01*
G01D02*
X244300Y141700D01*
X241575D01*
G01Y136250D02*
Y138975D01*
G01X251450Y142125D02*
Y139404D01*
X251023Y138977D01*
G01X251450Y142125D02*
Y144850D01*
X251024Y145276D01*
G01X241575Y151150D02*
Y145700D01*
G01D02*
X244300D01*
X244724Y145276D01*
G01X247450Y167325D02*
X244726D01*
X244724Y167323D01*
G01X251450Y161025D02*
Y163747D01*
X251024Y164173D01*
G01X254173Y161024D02*
X254172Y161025D01*
X251450D01*
G01X254174Y157874D02*
Y161023D01*
X254173Y161024D01*
G01X251024Y151575D02*
X254173D01*
G01Y167322D02*
X254170Y167325D01*
X251450D01*
G01X244724Y157874D02*
X241575D01*
G01X244724Y151575D02*
Y154724D01*
G01X247450Y154725D02*
X244725D01*
X244724Y154724D01*
G01X247450Y161025D02*
Y159000D01*
X246324Y157874D01*
X244724D01*
G01Y154724D02*
Y157874D01*
G01X241575Y160600D02*
Y157874D01*
G01D02*
Y155150D01*
G01X251450Y154725D02*
Y157448D01*
X251024Y157874D01*
G01X241575Y164600D02*
X244297D01*
X244724Y164173D01*
G01D02*
Y161024D01*
G01X241575Y174050D02*
Y176772D01*
G54D39*
X146900Y12300D03*
X168500D03*
G54D48*
X236516Y299950D03*
X260137D03*
G54D57*
X330000Y80000D03*
X340000Y90000D03*
X330000D03*
X340000Y100000D03*
Y110000D03*
X330000D03*
X340000Y120000D03*
X330000D03*
X340000Y130000D03*
X330000D03*
X340000Y140000D03*
X330000D03*
X341000Y288500D03*
X331000D03*
X352500Y50000D03*
X362500D03*
X352500Y60000D03*
X362500D03*
X352500Y70000D03*
X362500D03*
Y80000D03*
X352500D03*
X362500Y90000D03*
X352500D03*
X362500Y100000D03*
X352500D03*
X362500Y110000D03*
X352500D03*
X362500Y120000D03*
Y130000D03*
X352500Y120000D03*
Y130000D03*
X362500Y140000D03*
Y150000D03*
X352500Y140000D03*
Y150000D03*
X362500Y160000D03*
Y170000D03*
X352500Y160000D03*
Y170000D03*
X362500Y180000D03*
Y190000D03*
X352500Y180000D03*
Y190000D03*
X362500Y200000D03*
Y210000D03*
X352500Y200000D03*
Y210000D03*
X362500Y220000D03*
Y230000D03*
X352500Y220000D03*
Y230000D03*
X362500Y240000D03*
Y250000D03*
X352500Y240000D03*
Y250000D03*
X362500Y260000D03*
Y270000D03*
X352500Y260000D03*
X364000Y288500D03*
X377500Y50000D03*
Y60000D03*
Y70000D03*
Y80000D03*
Y90000D03*
Y100000D03*
Y110000D03*
Y120000D03*
Y130000D03*
Y140000D03*
Y150000D03*
Y160000D03*
Y170000D03*
Y180000D03*
Y190000D03*
Y200000D03*
Y210000D03*
Y220000D03*
Y230000D03*
Y240000D03*
Y250000D03*
Y260000D03*
X374000Y288500D03*
X387500Y50000D03*
Y60000D03*
Y70000D03*
Y80000D03*
Y90000D03*
Y100000D03*
Y110000D03*
Y120000D03*
Y130000D03*
Y140000D03*
Y150000D03*
Y160000D03*
Y170000D03*
Y180000D03*
Y190000D03*
Y200000D03*
Y210000D03*
Y220000D03*
Y230000D03*
Y240000D03*
Y250000D03*
Y260000D03*
Y270000D03*
G54D67*
G01X77000Y310000D02*
X86450D01*
X86850Y310400D01*
G01X77000Y300000D02*
X86450D01*
X86950Y299500D01*
G01X100000Y308750D02*
X94800D01*
X93150Y310400D01*
G01X110000Y308750D02*
X100000D01*
G01X110000Y301250D02*
X100000D01*
G01X145000Y261250D02*
X135000D01*
G01X145000Y301250D02*
X135000D01*
G01X168000Y260000D02*
X158550D01*
X158150Y259600D01*
G01X168000Y270000D02*
X158550D01*
X158050Y270500D01*
G01X168000Y300000D02*
X158550D01*
X158150Y299600D01*
G01X168000Y310000D02*
X158550D01*
X158050Y310500D01*
G54D49*
X226476Y301913D03*
X264862D03*
G54D58*
X335000Y307500D03*
G54D68*
G01X79395Y6167D02*
X79010Y6633D01*
X78680Y6900D01*
X78240Y7033D01*
X77855Y6900D01*
X77580Y6633D01*
X77360Y6233D01*
X77305Y5767D01*
X77360Y5367D01*
X77580Y4967D01*
X77910Y4633D01*
X78295Y4500D01*
X78735Y4633D01*
X79120Y5033D01*
X79340Y5633D01*
X79395Y6300D01*
X79285Y7167D01*
X79120Y7633D01*
X78845Y8100D01*
X78460Y8433D01*
X78075Y8500D01*
X77690Y8367D01*
X77415Y8033D01*
G01X75250Y2000D02*
Y10750D01*
X81500D01*
Y2000D01*
X75250D01*
G01X394000Y106150D02*
X394067Y105710D01*
X394333Y105325D01*
X394733Y104995D01*
X395200Y104775D01*
X395733Y104665D01*
X396267D01*
X396800Y104775D01*
X397267Y104995D01*
X397667Y105325D01*
X397933Y105710D01*
X398000Y106150D01*
X397933Y106590D01*
X397667Y106975D01*
X397267Y107305D01*
X396800Y107525D01*
X396267Y107635D01*
X395733D01*
X395200Y107525D01*
X394733Y107305D01*
X394333Y106975D01*
X394067Y106590D01*
X394000Y106150D01*
G01Y108720D02*
X398000D01*
X394667Y110150D01*
X398000Y111580D01*
X394000D01*
G01Y112775D02*
X398000Y114150D01*
X394000Y115525D01*
G01X395400Y115030D02*
Y113270D01*
G01X394000Y117050D02*
X398000D01*
Y118370D01*
X397800Y118810D01*
X397333Y119140D01*
X396800Y119250D01*
X396267Y119140D01*
X395867Y118865D01*
X395667Y118370D01*
Y117050D01*
G01X395333Y121435D02*
Y122865D01*
G01X398000Y125050D02*
X394000D01*
Y127250D01*
G01Y130150D02*
X398000D01*
X397200Y129490D01*
G01X394000D02*
Y130810D01*
G01X394800Y132940D02*
X394333Y133270D01*
X394067Y133710D01*
X394000Y134205D01*
X394067Y134645D01*
X394400Y135085D01*
X394800Y135360D01*
X395200Y135415D01*
X395667Y135305D01*
X396000Y134920D01*
X396133Y134535D01*
Y134040D01*
G01Y134535D02*
X396333Y134865D01*
X396667Y135140D01*
X397067Y135250D01*
X397467Y135140D01*
X397800Y134865D01*
X398000Y134370D01*
X397933Y133875D01*
X397667Y133380D01*
G01X394000Y138150D02*
X394067Y138535D01*
X394267Y138975D01*
X394600Y139250D01*
X395067Y139360D01*
X395533Y139250D01*
X395933Y138920D01*
X396133Y138425D01*
Y137875D01*
X396267Y137545D01*
X396600Y137270D01*
X397067Y137160D01*
X397533Y137325D01*
X397867Y137710D01*
X398000Y138150D01*
X397867Y138590D01*
X397533Y138975D01*
X397067Y139140D01*
X396600Y139030D01*
X396267Y138755D01*
X396133Y138425D01*
Y137875D01*
X395933Y137380D01*
X395533Y137050D01*
X395067Y136940D01*
X394600Y137050D01*
X394267Y137325D01*
X394067Y137765D01*
X394000Y138150D01*
G01X393867Y141160D02*
X398000Y143140D01*
G01X397667Y147360D02*
X397867Y147030D01*
X398000Y146645D01*
Y146205D01*
X397800Y145710D01*
X397467Y145325D01*
X397067Y145050D01*
X396400Y144830D01*
X395800Y144775D01*
X395200Y144885D01*
X394800Y145050D01*
X394400Y145380D01*
X394133Y145765D01*
X394000Y146150D01*
Y146535D01*
X394133Y146920D01*
X394333Y147250D01*
X394600Y147525D01*
G01X395667Y149105D02*
X396133Y149490D01*
X396400Y149820D01*
X396533Y150260D01*
X396400Y150645D01*
X396133Y150920D01*
X395733Y151140D01*
X395267Y151195D01*
X394867Y151140D01*
X394467Y150920D01*
X394133Y150590D01*
X394000Y150205D01*
X394133Y149765D01*
X394533Y149380D01*
X395133Y149160D01*
X395800Y149105D01*
X396667Y149215D01*
X397133Y149380D01*
X397600Y149655D01*
X397933Y150040D01*
X398000Y150425D01*
X397867Y150810D01*
X397533Y151085D01*
G01X394000Y154040D02*
X394867Y154150D01*
X395600Y154315D01*
X396267Y154535D01*
X397000Y154810D01*
X398000Y155250D01*
Y153050D01*
G01X394000Y158810D02*
X398000D01*
X395133Y156775D01*
Y159525D01*
G01X394000Y162150D02*
X394067Y162535D01*
X394267Y162975D01*
X394600Y163250D01*
X395067Y163360D01*
X395533Y163250D01*
X395933Y162920D01*
X396133Y162425D01*
Y161875D01*
X396267Y161545D01*
X396600Y161270D01*
X397067Y161160D01*
X397533Y161325D01*
X397867Y161710D01*
X398000Y162150D01*
X397867Y162590D01*
X397533Y162975D01*
X397067Y163140D01*
X396600Y163030D01*
X396267Y162755D01*
X396133Y162425D01*
Y161875D01*
X395933Y161380D01*
X395533Y161050D01*
X395067Y160940D01*
X394600Y161050D01*
X394267Y161325D01*
X394067Y161765D01*
X394000Y162150D01*
G01X398000Y169050D02*
X394000D01*
Y171250D01*
G01X397667Y175360D02*
X397867Y175030D01*
X398000Y174645D01*
Y174205D01*
X397800Y173710D01*
X397467Y173325D01*
X397067Y173050D01*
X396400Y172830D01*
X395800Y172775D01*
X395200Y172885D01*
X394800Y173050D01*
X394400Y173380D01*
X394133Y173765D01*
X394000Y174150D01*
Y174535D01*
X394133Y174920D01*
X394333Y175250D01*
X394600Y175525D01*
G01X394000Y176940D02*
X398000D01*
Y178040D01*
X397800Y178480D01*
X397533Y178810D01*
X397133Y179085D01*
X396667Y179305D01*
X396000Y179360D01*
X395333Y179305D01*
X394867Y179085D01*
X394467Y178810D01*
X394200Y178480D01*
X394000Y178040D01*
Y176940D01*
G01Y180940D02*
X398000D01*
G01Y183030D02*
X395533Y180940D01*
G01X394000Y183360D02*
X396667Y181875D01*
G01X395333Y185435D02*
Y186865D01*
G01X394000Y189050D02*
X398000D01*
Y190370D01*
X397800Y190810D01*
X397333Y191140D01*
X396800Y191250D01*
X396267Y191140D01*
X395867Y190865D01*
X395667Y190370D01*
Y189050D01*
G01X397667Y195360D02*
X397867Y195030D01*
X398000Y194645D01*
Y194205D01*
X397800Y193710D01*
X397467Y193325D01*
X397067Y193050D01*
X396400Y192830D01*
X395800Y192775D01*
X395200Y192885D01*
X394800Y193050D01*
X394400Y193380D01*
X394133Y193765D01*
X394000Y194150D01*
Y194535D01*
X394133Y194920D01*
X394333Y195250D01*
X394600Y195525D01*
G01X396133Y198590D02*
X396333Y198810D01*
X396667Y198975D01*
X397133Y199085D01*
X397533Y198975D01*
X397800Y198755D01*
X398000Y198370D01*
Y196885D01*
X394000D01*
Y198700D01*
X394267Y199085D01*
X394667Y199305D01*
X395133Y199415D01*
X395600Y199305D01*
X396000Y198975D01*
X396133Y198590D01*
Y196885D01*
G01X395333Y201435D02*
Y202865D01*
G01X398000Y206150D02*
X397867Y205710D01*
X397533Y205380D01*
X397133Y205160D01*
X396600Y204995D01*
X396000Y204940D01*
X395400Y204995D01*
X394867Y205160D01*
X394467Y205380D01*
X394133Y205710D01*
X394000Y206150D01*
X394133Y206590D01*
X394467Y206920D01*
X394867Y207140D01*
X395400Y207305D01*
X396000Y207360D01*
X396600Y207305D01*
X397133Y207140D01*
X397533Y206920D01*
X397867Y206590D01*
X398000Y206150D01*
G01Y210150D02*
X397867Y209710D01*
X397533Y209380D01*
X397133Y209160D01*
X396600Y208995D01*
X396000Y208940D01*
X395400Y208995D01*
X394867Y209160D01*
X394467Y209380D01*
X394133Y209710D01*
X394000Y210150D01*
X394133Y210590D01*
X394467Y210920D01*
X394867Y211140D01*
X395400Y211305D01*
X396000Y211360D01*
X396600Y211305D01*
X397133Y211140D01*
X397533Y210920D01*
X397867Y210590D01*
X398000Y210150D01*
G01X394000Y214810D02*
X398000D01*
X395133Y212775D01*
Y215525D01*
G54D59*
X340000Y317500D03*
X345000Y307500D03*
X355000D03*
X350000Y317500D03*
X360000D03*
X365000Y307500D03*
X370000Y317500D03*
G54D69*
G01X225000Y242000D02*
X226950Y243950D01*
Y246050D01*
X225984Y247016D01*
G01X229000Y232000D02*
X228100Y232900D01*
Y236100D01*
X230000Y238000D01*
G01X229000Y247000D02*
X228050Y246050D01*
Y243950D01*
X230000Y242000D01*
G01X226000Y232000D02*
X227000Y233000D01*
Y236000D01*
X225000Y238000D01*
G01X335000Y325500D02*
Y307500D01*
G01X340000Y325500D02*
Y317500D01*
G01X365000Y325500D02*
Y307500D01*
G01X370000Y325500D02*
Y317500D01*
M02*
