G04 ================== begin FILE IDENTIFICATION RECORD ==================*
G04 Layout Name:  OMAP-L138_C6748_LCDK_PCB-004_r4a.brd*
G04 Film Name:    OMAP_lyr2*
G04 File Format:  Gerber RS274X*
G04 File Origin:  Cadence Allegro 16.6-S041*
G04 Origin Date:  Thu Feb 26 11:59:39 2015*
G04 *
G04 Layer:  BOARD GEOMETRY/TOOLING_CORNERS*
G04 Layer:  VIA CLASS/LYR2_GND*
G04 Layer:  PIN/LYR2_GND*
G04 Layer:  ETCH/LYR2_GND*
G04 *
G04 Offset:    (0.00 0.00)*
G04 Mirror:    No*
G04 Mode:      Positive*
G04 Rotation:  0*
G04 FullContactRelief:  No*
G04 UndefLineWidth:     6.00*
G04 ================== end FILE IDENTIFICATION RECORD ====================*
%FSLAX25Y25*MOIN*%
%IR0*IPPOS*OFA0.00000B0.00000*MIA0B0*SFA1.00000B1.00000*%
%ADD32O,.08X.135*%
%ADD16C,.04*%
%ADD29C,.05*%
%ADD34C,.06*%
%ADD22C,.024*%
%ADD21C,.07*%
%ADD19C,.025*%
%ADD11C,.08*%
%ADD15C,.045*%
%ADD12C,.018*%
%ADD36C,.055*%
%ADD33C,.065*%
%ADD17C,.056*%
%ADD30C,.075*%
%ADD38R,.06X.06*%
%ADD23C,.067*%
%ADD14C,.077*%
%ADD35R,.055X.055*%
%ADD28O,.04X.05*%
%ADD13C,.1*%
%ADD10C,.23*%
%ADD20C,.16*%
%ADD31C,.125*%
%ADD18C,.145*%
%ADD37C,.128*%
%ADD26R,.0751X.0554*%
%ADD25R,.0554X.0751*%
%ADD27R,.059X.078*%
%ADD24R,.0554X.0947*%
%ADD39C,.012*%
%ADD40C,.033*%
%ADD41C,.005*%
%ADD54C,.06204*%
%ADD48C,.02604*%
%ADD58C,.07204*%
%ADD51C,.08204*%
%ADD44C,.09204*%
%ADD60C,.06704*%
%ADD57C,.07704*%
%ADD47C,.06804*%
%ADD55C,.08704*%
%ADD46C,.08904*%
%ADD52R,.06744X.10672*%
%ADD42C,.0969*%
%ADD45C,.11204*%
%ADD61C,.14004*%
%ADD43C,.24204*%
%ADD49C,.17204*%
%ADD56C,.13704*%
%ADD50C,.15704*%
%ADD62R,.07204X.07204*%
%ADD59R,.06704X.06704*%
%ADD53R,.06744X.08712*%
G75*
%LPD*%
G75*
G36*
G01X-5000Y-15000D02*
Y-5000D01*
X-15000D01*
Y0D01*
X0D01*
Y-15000D01*
X-5000D01*
G37*
G36*
G01X-15000Y365000D02*
X-5000D01*
Y375000D01*
X0D01*
Y360000D01*
X-15000D01*
Y365000D01*
G37*
G36*
G01X2000Y2000D02*
Y358000D01*
X88000D01*
Y346000D01*
X88015Y345985D01*
G02X87730Y345302I-283J-283D01*
G03X89022Y344010I-10J-1302D01*
G02X89705Y344295I400J2D01*
G01X91000Y343000D01*
X101000D01*
X104000Y346000D01*
Y351000D01*
X106000Y353000D01*
X129000D01*
X131000Y351000D01*
Y346593D01*
G02X130459Y346218I-400J-1D01*
G03X131288Y344809I-459J-1218D01*
G02X131966Y345034I396J-58D01*
G01X134000Y343000D01*
X160000D01*
X163000Y346000D01*
Y350000D01*
X165000Y352000D01*
X197000D01*
X199000Y350000D01*
Y344994D01*
G02X198319Y344709I-400J0D01*
G03X199190Y341925I-2177J-2209D01*
G02X199866Y342134I393J-74D01*
G01X202000Y340000D01*
X211000D01*
X214000Y343000D01*
Y349000D01*
X216000Y351000D01*
X224407D01*
G02X224782Y350459I1J-400D01*
G03X227218I1218J-459D01*
G02X227593Y351000I374J141D01*
G01X239407D01*
G02X239782Y350459I1J-400D01*
G03X242218I1218J-459D01*
G02X242593Y351000I374J141D01*
G01X262407D01*
G02X262782Y350459I1J-400D01*
G03X265218I1218J-459D01*
G02X265593Y351000I374J141D01*
G01X390000D01*
X392000Y349000D01*
Y41978D01*
G02X391380Y41644I-400J0D01*
G03Y33956I-2530J-3844D01*
G02X392000Y33622I220J-334D01*
G01Y16378D01*
G02X391380Y16044I-400J0D01*
G03X385857Y8704I-2530J-3844D01*
G02X385597Y8000I-260J-304D01*
G01X374403D01*
G02X374143Y8704I0J400D01*
G03X368157I-2993J3496D01*
G02X367897Y8000I-260J-304D01*
G01X365000D01*
X363000Y10000D01*
Y16000D01*
X315000D01*
X313000Y18000D01*
Y30000D01*
X310000Y33000D01*
X304000D01*
X301000Y30000D01*
Y18000D01*
X299000Y16000D01*
X263000D01*
X261000Y18000D01*
Y30000D01*
X258000Y33000D01*
X252000D01*
X249000Y30000D01*
Y2000D01*
X83000D01*
Y12000D01*
X42000D01*
Y2000D01*
X2000D01*
G37*
G36*
G01X251000D02*
Y29000D01*
X253000Y31000D01*
X257000D01*
X259000Y29000D01*
Y17000D01*
X262000Y14000D01*
X300000D01*
X303000Y17000D01*
Y29000D01*
X305000Y31000D01*
X309000D01*
X311000Y29000D01*
Y17000D01*
X314000Y14000D01*
X361000D01*
Y9000D01*
X364000Y6000D01*
X391000D01*
X394000Y9000D01*
Y350000D01*
X391000Y353000D01*
X215000D01*
X212000Y350000D01*
Y344000D01*
X210000Y342000D01*
X203000D01*
X201000Y344000D01*
Y346078D01*
G02X201754Y346264I400J0D01*
G03Y350548I4073J2142D01*
G02X201000Y350734I-354J186D01*
G01Y351000D01*
X198000Y354000D01*
X164000D01*
X161000Y351000D01*
Y347000D01*
X159000Y345000D01*
X135000D01*
X133000Y347000D01*
Y352000D01*
X130000Y355000D01*
X105000D01*
X102000Y352000D01*
Y347000D01*
X100000Y345000D01*
X92000D01*
X90000Y347000D01*
Y358000D01*
X228000D01*
X230000Y356000D01*
X273000D01*
X275000Y358000D01*
X398000D01*
Y2000D01*
X251000D01*
G37*
G36*
G01X415000Y-5000D02*
X405000D01*
Y-15000D01*
X400000D01*
Y0D01*
X415000D01*
Y-5000D01*
G37*
G36*
G01X405000Y375000D02*
Y365000D01*
X415000D01*
Y360000D01*
X400000D01*
Y375000D01*
X405000D01*
G37*
%LPC*%
G75*
G36*
G01X127000Y270000D02*
X112000D01*
X110000Y272000D01*
Y288000D01*
X112000Y290000D01*
X146000D01*
X148000Y288000D01*
Y278000D01*
X145000Y275000D01*
X132000D01*
X127000Y270000D01*
G37*
G36*
G01X188975Y346466D02*
G03X188309I-333J-221D01*
G02X183540Y347906I-2167J1440D01*
G01Y348906D01*
G02X188309Y350346I2602J0D01*
G03X188975I333J221D01*
G02X193744Y348906I2167J-1440D01*
G01Y347906D01*
G02X188975Y346466I-2602J0D01*
G37*
G36*
G01X173975D02*
G03X173309I-333J-221D01*
G02X168540Y347906I-2167J1440D01*
G01Y348906D01*
G02X173309Y350346I2602J0D01*
G03X173975I333J221D01*
G02X178744Y348906I2167J-1440D01*
G01Y347906D01*
G02X173975Y346466I-2602J0D01*
G37*
G36*
G01X86741Y316946D02*
G03X86140I-301J-263D01*
G02Y318664I-979J859D01*
G03X86741I301J263D01*
G02X88699Y318663I979J-859D01*
G03X89301I301J264D01*
G02Y316947I979J-858D01*
G03X88699I-301J-264D01*
G02X86741Y316946I-979J858D01*
G37*
G36*
G01X31667Y277940D02*
G03X32333I333J222D01*
G02X35940Y274333I2167J-1440D01*
G03Y273667I222J-333D01*
G02Y269333I-1440J-2167D01*
G03Y268667I222J-333D01*
G02Y264333I-1440J-2167D01*
G03Y263667I222J-333D01*
G02Y259333I-1440J-2167D01*
G03Y258667I222J-333D01*
G02Y254333I-1440J-2167D01*
G03Y253667I222J-333D01*
G02Y249333I-1440J-2167D01*
G03Y248667I222J-333D01*
G02Y244333I-1440J-2167D01*
G03Y243667I222J-333D01*
G02Y239333I-1440J-2167D01*
G03Y238667I222J-333D01*
G02Y234333I-1440J-2167D01*
G03Y233667I222J-333D01*
G02X32333Y230060I-1440J-2167D01*
G03X31667I-333J-222D01*
G02X28060Y233667I-2167J1440D01*
G03Y234333I-222J333D01*
G02Y238667I1440J2167D01*
G03Y239333I-222J333D01*
G02Y243667I1440J2167D01*
G03Y244333I-222J333D01*
G02Y248667I1440J2167D01*
G03Y249333I-222J333D01*
G02Y253667I1440J2167D01*
G03Y254333I-222J333D01*
G02Y258667I1440J2167D01*
G03Y259333I-222J333D01*
G02Y263667I1440J2167D01*
G03Y264333I-222J333D01*
G02Y268667I1440J2167D01*
G03Y269333I-222J333D01*
G02Y273667I1440J2167D01*
G03Y274333I-222J333D01*
G02X31667Y277940I1440J2167D01*
G37*
G36*
G01X14167D02*
G03X14833I333J222D01*
G02X18440Y274333I2167J-1440D01*
G03Y273667I222J-333D01*
G02Y269333I-1440J-2167D01*
G03Y268667I222J-333D01*
G02Y264333I-1440J-2167D01*
G03Y263667I222J-333D01*
G02Y259333I-1440J-2167D01*
G03Y258667I222J-333D01*
G02Y254333I-1440J-2167D01*
G03Y253667I222J-333D01*
G02Y249333I-1440J-2167D01*
G03Y248667I222J-333D01*
G02Y244333I-1440J-2167D01*
G03Y243667I222J-333D01*
G02Y239333I-1440J-2167D01*
G03Y238667I222J-333D01*
G02Y234333I-1440J-2167D01*
G03Y233667I222J-333D01*
G02X14833Y230060I-1440J-2167D01*
G03X14167I-333J-222D01*
G02X10560Y233667I-2167J1440D01*
G03Y234333I-222J333D01*
G02Y238667I1440J2167D01*
G03Y239333I-222J333D01*
G02Y243667I1440J2167D01*
G03Y244333I-222J333D01*
G02Y248667I1440J2167D01*
G03Y249333I-222J333D01*
G02Y253667I1440J2167D01*
G03Y254333I-222J333D01*
G02Y258667I1440J2167D01*
G03Y259333I-222J333D01*
G02Y263667I1440J2167D01*
G03Y264333I-222J333D01*
G02Y268667I1440J2167D01*
G03Y269333I-222J333D01*
G02Y273667I1440J2167D01*
G03Y274333I-222J333D01*
G02X14167Y277940I1440J2167D01*
G37*
G36*
G01X173352Y8928D02*
Y6448D01*
X163648D01*
Y18152D01*
X173352D01*
Y15672D01*
X181756D01*
Y8928D01*
X173352D01*
G37*
G36*
G01X151752Y18152D02*
Y6448D01*
X142048D01*
Y8928D01*
X133644D01*
Y15672D01*
X142048D01*
Y18152D01*
X151752D01*
G37*
G36*
G01X171147Y326385D02*
G02Y327615I-1147J615D01*
G03X171853I353J189D01*
G02Y326385I1147J-615D01*
G03X171147I-353J-189D01*
G37*
G36*
G01X26945Y323058D02*
G02X26753Y327885I-11945J1942D01*
G03X27527Y327875I388J96D01*
G02X27716Y323130I7573J-2075D01*
G03X26945Y323058I-376J-136D01*
G37*
G36*
G01X109647Y313385D02*
G02Y314615I-1147J615D01*
G03X110353I353J189D01*
G02Y313385I1147J-615D01*
G03X109647I-353J-189D01*
G37*
G36*
G01X294147Y294385D02*
G02Y295615I-1147J615D01*
G03X294853I353J189D01*
G02X297147I1147J-615D01*
G03X297853I353J189D01*
G02X300147I1147J-615D01*
G03X300853I353J189D01*
G02X303147I1147J-615D01*
G03X303853I353J189D01*
G02Y294385I1147J-615D01*
G03X303147I-353J-189D01*
G02X300853I-1147J615D01*
G03X300147I-353J-189D01*
G02X297853I-1147J615D01*
G03X297147I-353J-189D01*
G02X294853I-1147J615D01*
G03X294147I-353J-189D01*
G37*
G36*
G01X51615Y292147D02*
G02X50385I-615J-1147D01*
G03Y292853I-189J353D01*
G02Y295147I615J1147D01*
G03Y295853I-189J353D01*
G02Y298147I615J1147D01*
G03Y298853I-189J353D01*
G02X51615I615J1147D01*
G03Y298147I189J-353D01*
G02Y295853I-615J-1147D01*
G03Y295147I189J-353D01*
G02Y292853I-615J-1147D01*
G03Y292147I189J-353D01*
G37*
G36*
G01X251615Y283147D02*
G02X250385I-615J-1147D01*
G03Y283853I-189J353D01*
G02Y286147I615J1147D01*
G03Y286853I-189J353D01*
G02Y289147I615J1147D01*
G03Y289853I-189J353D01*
G02Y292147I615J1147D01*
G03Y292853I-189J353D01*
G02X251615I615J1147D01*
G03Y292147I189J-353D01*
G02Y289853I-615J-1147D01*
G03Y289147I189J-353D01*
G02Y286853I-615J-1147D01*
G03Y286147I189J-353D01*
G02Y283853I-615J-1147D01*
G03Y283147I189J-353D01*
G37*
G36*
G01X42147Y281385D02*
G02Y282615I-1147J615D01*
G03X42853I353J189D01*
G02X45147I1147J-615D01*
G03X45853I353J189D01*
G02Y281385I1147J-615D01*
G03X45147I-353J-189D01*
G02X42853I-1147J615D01*
G03X42147I-353J-189D01*
G37*
G36*
G01X315615Y253147D02*
G02X314385I-615J-1147D01*
G03Y253853I-189J353D01*
G02X315615I615J1147D01*
G03Y253147I189J-353D01*
G37*
G36*
G01X235615Y248147D02*
G02X234385I-615J-1147D01*
G03Y248853I-189J353D01*
G02X235615I615J1147D01*
G03Y248147I189J-353D01*
G37*
G36*
G01X221147Y246385D02*
G02Y247615I-1147J615D01*
G03X221853I353J189D01*
G02X224138Y247633I1147J-615D01*
G03X224839Y247636I350J194D01*
G02X224846Y246383I1145J-620D01*
G03X224145Y246380I-350J-194D01*
G02X221853Y246385I-1145J620D01*
G03X221147I-353J-189D01*
G37*
G36*
G01X106147Y245385D02*
G02Y246615I-1147J615D01*
G03X106853I353J189D01*
G02Y245385I1147J-615D01*
G03X106147I-353J-189D01*
G37*
G36*
G01X95615Y247147D02*
G02X94385I-615J-1147D01*
G03Y247853I-189J353D01*
G02X95615I615J1147D01*
G03Y247147I189J-353D01*
G37*
G36*
G01X80615D02*
G02X79385I-615J-1147D01*
G03Y247853I-189J353D01*
G02X80615I615J1147D01*
G03Y247147I189J-353D01*
G37*
G36*
G01X65615D02*
G02X64385I-615J-1147D01*
G03Y247853I-189J353D01*
G02X65615I615J1147D01*
G03Y247147I189J-353D01*
G37*
G36*
G01X330615Y243147D02*
G02X329385I-615J-1147D01*
G03Y243853I-189J353D01*
G02X330615I615J1147D01*
G03Y243147I189J-353D01*
G37*
G36*
G01X95615Y240147D02*
G02X94385I-615J-1147D01*
G03Y240853I-189J353D01*
G02X95615I615J1147D01*
G03Y240147I189J-353D01*
G37*
G36*
G01X90615D02*
G02X89385I-615J-1147D01*
G03Y240853I-189J353D01*
G02X90615I615J1147D01*
G03Y240147I189J-353D01*
G37*
G36*
G01X65615D02*
G02X64385I-615J-1147D01*
G03Y240853I-189J353D01*
G02X65615I615J1147D01*
G03Y240147I189J-353D01*
G37*
G36*
G01X227147Y231385D02*
G02Y232615I-1147J615D01*
G03X227853I353J189D01*
G02Y231385I1147J-615D01*
G03X227147I-353J-189D01*
G37*
G36*
G01X294147Y230885D02*
G02Y232115I-1147J615D01*
G03X294853I353J189D01*
G02Y230885I1147J-615D01*
G03X294147I-353J-189D01*
G37*
G36*
G01X240615Y226147D02*
G02X239385I-615J-1147D01*
G03Y226853I-189J353D01*
G02X240615I615J1147D01*
G03Y226147I189J-353D01*
G37*
G36*
G01X235615D02*
G02X234385I-615J-1147D01*
G03Y226853I-189J353D01*
G02X235615I615J1147D01*
G03Y226147I189J-353D01*
G37*
G36*
G01X198147Y216385D02*
G02Y217615I-1147J615D01*
G03X198853I353J189D01*
G02X201147I1147J-615D01*
G03X201853I353J189D01*
G02Y216385I1147J-615D01*
G03X201147I-353J-189D01*
G02X198853I-1147J615D01*
G03X198147I-353J-189D01*
G37*
G36*
G01X88147D02*
G02Y217615I-1147J615D01*
G03X88853I353J189D01*
G02Y216385I1147J-615D01*
G03X88147I-353J-189D01*
G37*
G36*
G01X81615Y218147D02*
G02X80385I-615J-1147D01*
G03Y218853I-189J353D01*
G02X81615I615J1147D01*
G03Y218147I189J-353D01*
G37*
G36*
G01X77615D02*
G02X76385I-615J-1147D01*
G03Y218853I-189J353D01*
G02X77615I615J1147D01*
G03Y218147I189J-353D01*
G37*
G36*
G01X73615D02*
G02X72385I-615J-1147D01*
G03Y218853I-189J353D01*
G02X73615I615J1147D01*
G03Y218147I189J-353D01*
G37*
G36*
G01X69615D02*
G02X68385I-615J-1147D01*
G03Y218853I-189J353D01*
G02X69615I615J1147D01*
G03Y218147I189J-353D01*
G37*
G36*
G01X61615D02*
G02X60385I-615J-1147D01*
G03Y218853I-189J353D01*
G02X61615I615J1147D01*
G03Y218147I189J-353D01*
G37*
G36*
G01X56700Y218176D02*
G02X55476Y218119I-559J-1176D01*
G03X55442Y218824I-205J343D01*
G02X56666Y218881I559J1176D01*
G03X56700Y218176I205J-343D01*
G37*
G36*
G01X40631Y218153D02*
G02X39400Y218142I-605J-1153D01*
G03X39394Y218847I-192J351D01*
G02X40625Y218858I605J1153D01*
G03X40631Y218153I192J-351D01*
G37*
G36*
G01X294147Y215385D02*
G02Y216615I-1147J615D01*
G03X294853I353J189D01*
G02Y215385I1147J-615D01*
G03X294147I-353J-189D01*
G37*
G36*
G01X245615Y215147D02*
G02X244385I-615J-1147D01*
G03Y215853I-189J353D01*
G02X245615I615J1147D01*
G03Y215147I189J-353D01*
G37*
G36*
G01X238615D02*
G02X237385I-615J-1147D01*
G03Y215853I-189J353D01*
G02X238615I615J1147D01*
G03Y215147I189J-353D01*
G37*
G36*
G01X220615D02*
G02X219385I-615J-1147D01*
G03Y215853I-189J353D01*
G02X220615I615J1147D01*
G03Y215147I189J-353D01*
G37*
G36*
G01X217115D02*
G02X215885I-615J-1147D01*
G03Y215853I-189J353D01*
G02X217115I615J1147D01*
G03Y215147I189J-353D01*
G37*
G36*
G01X166615Y214147D02*
G02X165385I-615J-1147D01*
G03Y214853I-189J353D01*
G02X166615I615J1147D01*
G03Y214147I189J-353D01*
G37*
G36*
G01X160615D02*
G02X159385I-615J-1147D01*
G03Y214853I-189J353D01*
G02X160615I615J1147D01*
G03Y214147I189J-353D01*
G37*
G36*
G01X136615D02*
G02X135385I-615J-1147D01*
G03Y214853I-189J353D01*
G02X136615I615J1147D01*
G03Y214147I189J-353D01*
G37*
G36*
G01X41147Y211385D02*
G02Y212615I-1147J615D01*
G03X41853I353J189D01*
G02Y211385I1147J-615D01*
G03X41147I-353J-189D01*
G37*
G36*
G01Y207385D02*
G02Y208615I-1147J615D01*
G03X41853I353J189D01*
G02Y207385I1147J-615D01*
G03X41147I-353J-189D01*
G37*
G36*
G01X95615Y208147D02*
G02X94385I-615J-1147D01*
G03Y208853I-189J353D01*
G02X95615I615J1147D01*
G03Y208147I189J-353D01*
G37*
G36*
G01X41147Y200385D02*
G02Y201615I-1147J615D01*
G03X41853I353J189D01*
G02Y200385I1147J-615D01*
G03X41147I-353J-189D01*
G37*
G36*
G01X90615Y195147D02*
G02X88849Y193391I-615J-1147D01*
G03X88144Y193395I-354J-187D01*
G02X88151Y194625I-1144J622D01*
G03X88856Y194621I354J187D01*
G02X89385Y195147I1144J-621D01*
G03Y195853I-189J353D01*
G02Y198147I615J1147D01*
G03Y198853I-189J353D01*
G02X88853Y199385I615J1147D01*
G03X88147I-353J-189D01*
G02Y200615I-1147J615D01*
G03X88853I353J189D01*
G02X90615Y198853I1147J-615D01*
G03Y198147I189J-353D01*
G02Y195853I-615J-1147D01*
G03Y195147I189J-353D01*
G37*
G36*
G01X268147Y192385D02*
G02Y193615I-1147J615D01*
G03X268853I353J189D01*
G02Y192385I1147J-615D01*
G03X268147I-353J-189D01*
G37*
G36*
G01X217634Y191860D02*
G02X215885Y193647I-1134J640D01*
G03Y194353I-189J353D01*
G02X217647Y196115I615J1147D01*
G03X218353I353J189D01*
G02X220113Y194351I1147J-615D01*
G03X220101Y193652I188J-353D01*
G02X218327Y191866I-651J-1127D01*
G03X217634Y191860I-345J-203D01*
G37*
G36*
G01X88147Y189385D02*
G02Y190615I-1147J615D01*
G03X88853I353J189D01*
G02Y189385I1147J-615D01*
G03X88147I-353J-189D01*
G37*
G36*
G01X286615Y189147D02*
G02X285385I-615J-1147D01*
G03Y189853I-189J353D01*
G02Y192147I615J1147D01*
G03Y192853I-189J353D01*
G02X286615I615J1147D01*
G03Y192147I189J-353D01*
G02Y189853I-615J-1147D01*
G03Y189147I189J-353D01*
G37*
G36*
G01X43615Y186147D02*
G02X42385I-615J-1147D01*
G03Y186853I-189J353D01*
G02X41853Y187385I615J1147D01*
G03X41147I-353J-189D01*
G02Y188615I-1147J615D01*
G03X41853I353J189D01*
G02X43615Y186853I1147J-615D01*
G03Y186147I189J-353D01*
G37*
G36*
G01X105615Y181147D02*
G02X104385I-615J-1147D01*
G03Y181853I-189J353D01*
G02X105615I615J1147D01*
G03Y181147I189J-353D01*
G37*
G36*
G01X338868Y180568D02*
G02X338837Y179339I1132J-643D01*
G03X338132Y179357I-357J-180D01*
G02X338163Y180586I-1132J643D01*
G03X338868Y180568I357J180D01*
G37*
G36*
G01X124279Y175043D02*
G02X122721I-779J-1043D01*
G03Y175684I-240J320D01*
G02X124279I779J1043D01*
G03Y175043I240J-320D01*
G37*
G36*
G01X88147Y172385D02*
G02Y173615I-1147J615D01*
G03X88853I353J189D01*
G02Y172385I1147J-615D01*
G03X88147I-353J-189D01*
G37*
G36*
G01X66140Y172371D02*
G02X66119Y173665I-1140J629D01*
G03X66813Y173676I344J205D01*
G02X66834Y172382I1140J-629D01*
G03X66140Y172371I-344J-205D01*
G37*
G36*
G01X58215Y172312D02*
G02Y173688I-1105J688D01*
G03X58895I340J211D01*
G02Y172312I1105J-688D01*
G03X58215I-340J-211D01*
G37*
G36*
G01X338147Y171385D02*
G02Y172615I-1147J615D01*
G03X338853I353J189D01*
G02Y171385I1147J-615D01*
G03X338147I-353J-189D01*
G37*
G36*
G01X316147D02*
G02Y172615I-1147J615D01*
G03X316853I353J189D01*
G02Y171385I1147J-615D01*
G03X316147I-353J-189D01*
G37*
G36*
G01X182147Y165385D02*
G02Y166615I-1147J615D01*
G03X182853I353J189D01*
G02Y165385I1147J-615D01*
G03X182147I-353J-189D01*
G37*
G36*
G01Y159385D02*
G02Y160615I-1147J615D01*
G03X182853I353J189D01*
G02Y159385I1147J-615D01*
G03X182147I-353J-189D01*
G37*
G36*
G01X341147Y157385D02*
G02Y158615I-1147J615D01*
G03X341853I353J189D01*
G02X344147I1147J-615D01*
G03X344853I353J189D01*
G02Y157385I1147J-615D01*
G03X344147I-353J-189D01*
G02X341853I-1147J615D01*
G03X341147I-353J-189D01*
G37*
G36*
G01X182147Y151385D02*
G02Y152615I-1147J615D01*
G03X182853I353J189D01*
G02Y151385I1147J-615D01*
G03X182147I-353J-189D01*
G37*
G36*
G01X341147Y150385D02*
G02Y151615I-1147J615D01*
G03X341853I353J189D01*
G02X344147I1147J-615D01*
G03X344853I353J189D01*
G02Y150385I1147J-615D01*
G03X344147I-353J-189D01*
G02X341853I-1147J615D01*
G03X341147I-353J-189D01*
G37*
G36*
G01X182147Y145385D02*
G02Y146615I-1147J615D01*
G03X182853I353J189D01*
G02Y145385I1147J-615D01*
G03X182147I-353J-189D01*
G37*
G36*
G01X182173Y141436D02*
G02X182122Y142661I-1173J565D01*
G03X182827Y142691I344J203D01*
G02X182878Y141466I1173J-565D01*
G03X182173Y141436I-344J-203D01*
G37*
G36*
G01X15001Y145631D02*
G02X12799I-1101J-2631D01*
G03Y146369I-154J369D01*
G02Y151631I1101J2631D01*
G03Y152369I-154J369D01*
G02Y157631I1101J2631D01*
G03Y158369I-154J369D01*
G02Y163631I1101J2631D01*
G03Y164369I-154J369D01*
G02Y169631I1101J2631D01*
G03Y170369I-154J369D01*
G02Y175631I1101J2631D01*
G03Y176369I-154J369D01*
G02X15001I1101J2631D01*
G03Y175631I154J-369D01*
G02Y170369I-1101J-2631D01*
G03Y169631I154J-369D01*
G02Y164369I-1101J-2631D01*
G03Y163631I154J-369D01*
G02Y158369I-1101J-2631D01*
G03Y157631I154J-369D01*
G02Y152369I-1101J-2631D01*
G03Y151631I154J-369D01*
G02Y146369I-1101J-2631D01*
G03Y145631I154J-369D01*
G37*
G36*
G01X323615Y141147D02*
G02X322385I-615J-1147D01*
G03Y141853I-189J353D01*
G02X321853Y142385I615J1147D01*
G03X321147I-353J-189D01*
G02Y143615I-1147J615D01*
G03X321853I353J189D01*
G02X323615Y141853I1147J-615D01*
G03Y141147I189J-353D01*
G37*
G36*
G01X9101Y142631D02*
G02X6899I-1101J-2631D01*
G03Y143369I-154J369D01*
G02Y148631I1101J2631D01*
G03Y149369I-154J369D01*
G02Y154631I1101J2631D01*
G03Y155369I-154J369D01*
G02Y160631I1101J2631D01*
G03Y161369I-154J369D01*
G02Y166631I1101J2631D01*
G03Y167369I-154J369D01*
G02Y172631I1101J2631D01*
G03Y173369I-154J369D01*
G02Y178631I1101J2631D01*
G03Y179369I-154J369D01*
G02X9101I1101J2631D01*
G03Y178631I154J-369D01*
G02Y173369I-1101J-2631D01*
G03Y172631I154J-369D01*
G02Y167369I-1101J-2631D01*
G03Y166631I154J-369D01*
G02Y161369I-1101J-2631D01*
G03Y160631I154J-369D01*
G02Y155369I-1101J-2631D01*
G03Y154631I154J-369D01*
G02Y149369I-1101J-2631D01*
G03Y148631I154J-369D01*
G02Y143369I-1101J-2631D01*
G03Y142631I154J-369D01*
G37*
G36*
G01X182147Y135385D02*
G02Y136615I-1147J615D01*
G03X182853I353J189D01*
G02Y135385I1147J-615D01*
G03X182147I-353J-189D01*
G37*
G36*
G01Y131385D02*
G02Y132615I-1147J615D01*
G03X182853I353J189D01*
G02Y131385I1147J-615D01*
G03X182147I-353J-189D01*
G37*
G36*
G01X346615Y127147D02*
G02X345385I-615J-1147D01*
G03Y127853I-189J353D01*
G02Y130147I615J1147D01*
G03Y130853I-189J353D01*
G02Y133147I615J1147D01*
G03Y133853I-189J353D01*
G02X346615I615J1147D01*
G03Y133147I189J-353D01*
G02Y130853I-615J-1147D01*
G03Y130147I189J-353D01*
G02Y127853I-615J-1147D01*
G03Y127147I189J-353D01*
G37*
G36*
G01X161858Y126625D02*
G02X161847Y125394I1142J-626D01*
G03X161142Y125400I-354J-186D01*
G02X161153Y126631I-1142J626D01*
G03X161858Y126625I354J186D01*
G37*
G36*
G01X130122Y115296D02*
G02X128770Y114427I-122J-1296D01*
G03X128277Y114941I-378J131D01*
G02X129859Y115958I-977J3259D01*
G03X130122Y115296I301J-264D01*
G37*
G36*
G01X210147Y99385D02*
G02Y100615I-1147J615D01*
G03X210853I353J189D01*
G02Y99385I1147J-615D01*
G03X210147I-353J-189D01*
G37*
G36*
G01X74615Y99147D02*
G02X73385I-615J-1147D01*
G03Y99853I-189J353D01*
G02X74615I615J1147D01*
G03Y99147I189J-353D01*
G37*
G36*
G01X47147Y94385D02*
G02X45385Y96147I-1147J615D01*
G03Y96853I-189J353D01*
G02X47147Y98615I615J1147D01*
G03X47853I353J189D01*
G02X49615Y96853I1147J-615D01*
G03Y96147I189J-353D01*
G02X47853Y94385I-615J-1147D01*
G03X47147I-353J-189D01*
G37*
G36*
G01X204615Y91147D02*
G02X203385I-615J-1147D01*
G03Y91853I-189J353D01*
G02X202853Y92385I615J1147D01*
G03X202147I-353J-189D01*
G02X200333Y94118I-1147J615D01*
G03X200298Y94823I-205J343D01*
G02X201522Y94882I557J1177D01*
G03X201557Y94177I205J-343D01*
G02X202147Y93615I-558J-1176D01*
G03X202853I353J189D01*
G02X204615Y91853I1147J-615D01*
G03Y91147I189J-353D01*
G37*
G36*
G01X118716Y79214D02*
G02X117381Y79178I-637J-1135D01*
G03X117363Y79865I-214J338D01*
G02X118698Y79901I637J1135D01*
G03X118716Y79214I214J-338D01*
G37*
G36*
G01X371615Y68147D02*
G02X370385I-615J-1147D01*
G03Y68853I-189J353D01*
G02Y71147I615J1147D01*
G03Y71853I-189J353D01*
G02X371615I615J1147D01*
G03Y71147I189J-353D01*
G02Y68853I-615J-1147D01*
G03Y68147I189J-353D01*
G37*
G36*
G01X228147Y64385D02*
G02Y65615I-1147J615D01*
G03X228853I353J189D01*
G02Y64385I1147J-615D01*
G03X228147I-353J-189D01*
G37*
G36*
G01X90615Y62147D02*
G02X89385I-615J-1147D01*
G03Y62853I-189J353D01*
G02X90615I615J1147D01*
G03Y62147I189J-353D01*
G37*
G36*
G01X91147Y33385D02*
G02Y34615I-1147J615D01*
G03X91853I353J189D01*
G02X94147I1147J-615D01*
G03X94853I353J189D01*
G02Y33385I1147J-615D01*
G03X94147I-353J-189D01*
G02X91853I-1147J615D01*
G03X91147I-353J-189D01*
G37*
G36*
G01X280629Y33552D02*
G02Y36448I-3569J1448D01*
G03X281371I371J151D01*
G02Y33552I3569J-1448D01*
G03X280629I-371J-151D01*
G37*
G54D54*
X166142Y342500D03*
X181142D03*
G54D48*
X39000Y30000D03*
X39063Y26063D03*
X25000Y28000D03*
X39000Y38000D03*
X40000Y48000D03*
X25000Y38000D03*
X39000Y33937D03*
X24000Y76000D03*
X40000Y140000D03*
Y145000D03*
X35000Y140000D03*
Y155000D03*
X40000Y197953D03*
X34000Y223000D03*
X22000Y236000D03*
X29000Y297000D03*
X34000Y303000D03*
X25000Y343000D03*
X28950Y347050D03*
X29000Y353000D03*
X46063Y19063D03*
X48000Y48000D03*
X52000D03*
X45000Y59000D03*
X60000D03*
X50000D03*
X55000D03*
X57000Y95000D03*
X53000D03*
X42000Y117000D03*
Y121000D03*
X60000Y135000D03*
X55000D03*
X50000Y155000D03*
X60000Y165000D03*
X45000D03*
X54000Y173000D03*
X50000D03*
X43000Y195984D03*
X42000Y225500D03*
X53000Y217000D03*
X47000D03*
Y249000D03*
Y239000D03*
Y267000D03*
X61000Y19000D03*
Y23000D03*
Y30000D03*
X75000Y33000D03*
X61000Y33937D03*
Y38000D03*
X71000Y78000D03*
X67000D03*
X67500Y95000D03*
X70500Y98000D03*
X77000Y119000D03*
X63000Y141000D03*
Y145000D03*
X75000Y135000D03*
X73000Y145000D03*
Y141000D03*
X68000Y135000D03*
X65000Y155000D03*
X75000Y165000D03*
X72000Y173000D03*
X77000D03*
X75000Y205000D03*
Y246000D03*
Y242000D03*
X80000Y239000D03*
X61000D03*
Y249000D03*
X64000Y266000D03*
Y281000D03*
X90000Y23000D03*
Y46000D03*
X89000Y104000D03*
X81000Y111000D03*
X89000Y165000D03*
X85000Y155000D03*
X92000D03*
X95000Y180048D03*
Y190000D03*
X87000Y185000D03*
X82000Y173000D03*
X90000Y204000D03*
X95000Y203000D03*
X87000Y207000D03*
Y228025D03*
X90000Y229000D03*
X84000Y227000D03*
X93000Y230000D03*
X96000Y231000D03*
X90000Y249000D03*
X81000Y262000D03*
Y266000D03*
X100000Y269000D03*
X81000Y277000D03*
Y281000D03*
X86000Y289000D03*
Y292500D03*
X97000D03*
X93250D03*
X118000Y69000D03*
X105000Y70000D03*
X118000Y85000D03*
Y74000D03*
Y104000D03*
Y96000D03*
Y100000D03*
X120300Y124800D03*
X120000Y114000D03*
X105000Y134000D03*
X120300Y145275D03*
Y138975D03*
Y132675D03*
Y170475D03*
Y161025D03*
Y151575D03*
X105000Y190000D03*
X120300Y179925D03*
Y187800D03*
X105000Y195000D03*
Y207000D03*
Y203000D03*
Y242000D03*
X119000Y253000D03*
Y264000D03*
X119016Y267016D03*
X110000Y267000D03*
X106000Y286890D03*
Y275079D03*
Y280000D03*
X120000Y296000D03*
X115000Y316500D03*
X114350Y327000D03*
X125000Y62000D03*
X132800Y52200D03*
X128700Y54100D03*
X137000Y62000D03*
X135000Y78000D03*
X129000Y76000D03*
Y80000D03*
X130000Y85000D03*
X125000Y104000D03*
X130000Y96000D03*
Y91000D03*
X137200Y116800D03*
X139200Y124800D03*
X135000Y114000D03*
X140000D03*
X134477Y145276D03*
Y138977D03*
Y132678D03*
X137626D03*
Y145276D03*
X134477Y148426D03*
X137626Y138977D03*
X134477Y142127D03*
Y135828D03*
Y164174D03*
X137626D03*
Y161024D03*
Y167324D03*
X134477Y170473D03*
Y161024D03*
Y151576D03*
Y154725D03*
X137626Y170473D03*
X139200Y187800D03*
X137626Y176772D03*
Y173623D03*
Y179922D03*
X132000Y213000D03*
X139173D03*
X127500D03*
X139173Y232173D03*
X123000Y243000D03*
X129000Y264000D03*
X123000Y253000D03*
Y264000D03*
X129000Y294000D03*
X122000Y326000D03*
X130000Y332000D03*
X160300Y23100D03*
X151300Y22900D03*
X157000Y45000D03*
X153700Y35200D03*
X153000Y45000D03*
Y62000D03*
X160000Y66000D03*
X157000Y62000D03*
X145000Y52000D03*
X149000Y62000D03*
X145079Y61921D03*
X141000Y52000D03*
X153000Y103000D03*
X149000D03*
X160500D03*
X157000D03*
X145000D03*
X157000Y114000D03*
X149000D03*
X145000D03*
X152000Y126000D03*
X140776Y135828D03*
Y138977D03*
X156524D03*
X159674Y145276D03*
Y132678D03*
Y138977D03*
X140776Y142127D03*
X156524Y164174D03*
X140776D03*
Y167324D03*
X159674Y161024D03*
X140776Y154725D03*
X156524Y151576D03*
X159674D03*
X156524Y154725D03*
X140776Y170473D03*
X156524D03*
X150650Y190500D03*
X146650D03*
X158100Y187800D03*
X142000Y190500D03*
X156524Y179922D03*
X159674D03*
X148000Y180000D03*
X140776Y176772D03*
X156524D03*
X159674D03*
X140776Y173623D03*
X156000Y228000D03*
X148000D03*
X148500Y213000D03*
X152000Y215984D03*
X160000Y232000D03*
X148000Y252500D03*
X151850D03*
X148000Y292500D03*
X151850D03*
X143000Y327000D03*
Y332000D03*
X169000Y45000D03*
X161100Y52100D03*
X165200Y52200D03*
X170500Y87921D03*
Y75000D03*
X165000Y78000D03*
X163600Y99800D03*
X178000Y104000D03*
X169000Y93000D03*
X164000Y103000D03*
X160800Y114100D03*
X164700Y114000D03*
X169000D03*
X162823Y145276D03*
Y138977D03*
Y132678D03*
Y148426D03*
Y142127D03*
Y135828D03*
X179000Y169500D03*
X162823Y161024D03*
Y151576D03*
Y179922D03*
X174000Y174000D03*
X164000Y228000D03*
X172000D03*
X175500Y213000D03*
X179500Y221000D03*
X172500Y216000D03*
X179500Y213000D03*
Y227837D03*
X176000Y232000D03*
Y236000D03*
X162000Y327000D03*
X178000D03*
X200000Y53000D03*
X196000Y69000D03*
X182000Y68000D03*
X196079Y65000D03*
X198000Y83025D03*
Y80000D03*
X182000D03*
X181984Y83984D03*
X198000Y87000D03*
X182000Y96000D03*
X195000Y110000D03*
Y100000D03*
X191000Y107000D03*
X187000D03*
Y93000D03*
X185000Y100000D03*
X195000Y114000D03*
Y118000D03*
Y126000D03*
X181000Y128000D03*
X184000Y126000D03*
X195000Y130000D03*
Y142000D03*
Y134000D03*
X184000Y156000D03*
X195000Y154000D03*
Y168000D03*
Y164000D03*
X184000Y188000D03*
X195000Y176000D03*
Y188000D03*
Y172000D03*
X181000Y180000D03*
X195000D03*
Y184000D03*
X200000Y228000D03*
X188000Y236000D03*
Y232000D03*
X200000Y247000D03*
X190000Y263000D03*
X184000Y327000D03*
X189000D03*
X218000Y27000D03*
X203750Y40000D03*
X205551Y53000D03*
X209488D03*
X213425D03*
X217500Y65000D03*
X209000Y80000D03*
X211025Y77025D03*
X209000Y90000D03*
X218000Y107000D03*
X213225Y107500D03*
X219528Y126378D03*
X216378Y129528D03*
Y126378D03*
X217950Y112500D03*
X219528Y142126D03*
X216378Y148425D03*
Y135827D03*
X219528D03*
X219527Y148425D03*
X216378Y145276D03*
X219528D03*
Y138976D03*
X216378D03*
X219528Y132677D03*
X216378D03*
Y142126D03*
Y170472D03*
Y154724D03*
X219528Y157874D03*
Y170472D03*
X216378Y161024D03*
X219528Y164173D03*
Y151575D03*
X216378Y167323D03*
X219528Y161024D03*
X216378Y164173D03*
X219528Y167323D03*
X216378Y157874D03*
X219528Y154724D03*
X213228Y157874D03*
X213229Y183075D03*
X219528Y173622D03*
X216378D03*
X213000Y217000D03*
X210000Y228000D03*
X220000D03*
X210000Y214000D03*
Y247000D03*
X211500Y257000D03*
Y267000D03*
X213000Y333750D03*
X237000Y65000D03*
X221000D03*
X230000Y53000D03*
X225000D03*
X234000Y53047D03*
X221000Y53000D03*
X231500Y77000D03*
X236000Y87000D03*
X239016Y77000D03*
X240000Y87000D03*
X225000Y100000D03*
X237000Y107500D03*
X240000Y103000D03*
X222675Y104000D03*
X227250Y107475D03*
X228976Y123228D03*
X232125Y116925D03*
X222677Y123228D03*
Y120079D03*
X232126D03*
X238426D03*
X232126Y129528D03*
X235276Y126378D03*
X238425Y129528D03*
X225827Y123228D03*
X238425D03*
X235276Y129528D03*
X228976Y126378D03*
Y120079D03*
X225827D03*
X228976Y129528D03*
X225827D03*
X232126Y123228D03*
X227400Y117000D03*
X235276Y120079D03*
X222677Y126378D03*
Y129528D03*
X238425Y126378D03*
Y135827D03*
Y142126D03*
X228977Y132677D03*
X232126Y138976D03*
X228977Y142126D03*
X222677Y132677D03*
X235276Y138977D03*
X222677Y145276D03*
X225827D03*
Y138977D03*
X235276Y132677D03*
X228977Y138976D03*
X238425Y145276D03*
X228976Y135827D03*
X235276Y145276D03*
X228977Y164173D03*
X235276Y170472D03*
X225827Y164173D03*
Y170472D03*
X222677Y164173D03*
X238425Y167323D03*
X238426Y164173D03*
X228977Y154724D03*
X228976Y151575D03*
Y161023D03*
X225827Y157874D03*
Y151575D03*
X228976Y157874D03*
X238425Y161023D03*
X232126Y157874D03*
Y151574D03*
X228976Y170472D03*
X222677Y176772D03*
Y173622D03*
X238425D03*
X228976D03*
X222677Y179921D03*
X235275Y183075D03*
X225827Y173622D03*
Y176772D03*
X235276D03*
X225827Y195500D03*
X235275D03*
X225000Y228000D03*
X230000Y214000D03*
Y228000D03*
X229000Y247000D03*
X240000D03*
Y258000D03*
X235000Y270000D03*
X225984Y272984D03*
X229921Y272921D03*
X227000Y294000D03*
X226476Y306000D03*
X237500Y315000D03*
X226000Y317000D03*
Y335000D03*
X236000Y340000D03*
X231000D03*
X241000Y65000D03*
X249000D03*
X245000D03*
X240984Y53000D03*
X244921D03*
X248858Y53142D03*
X256732Y53000D03*
X254764Y81000D03*
X250827Y77000D03*
X242953D03*
X246890D03*
X251000Y81000D03*
X243000D03*
X244500Y87000D03*
X258701Y77000D03*
X244500Y103000D03*
X255750Y107475D03*
X257323Y120079D03*
X244724Y126378D03*
X251025Y116925D03*
X260472Y129528D03*
X251024Y126378D03*
X247874D03*
X251024Y120079D03*
X244724D03*
X247874D03*
X254173Y126378D03*
X260472D03*
X257323Y129528D03*
X251024Y123228D03*
X244724Y129528D03*
X251024D03*
X254173Y123228D03*
Y129528D03*
X260472Y123228D03*
X260475Y116925D03*
X257323Y126378D03*
X247874Y123228D03*
X257323D03*
X254173Y120079D03*
X247874Y129528D03*
X260472Y120079D03*
X244725Y123228D03*
X244724Y135827D03*
X254173Y145276D03*
Y135826D03*
X251023Y132677D03*
X254173Y138976D03*
X260472Y132677D03*
X257323Y145276D03*
X244724Y132677D03*
X241575Y138975D03*
X251023Y138977D03*
X251024Y145276D03*
X244724Y138977D03*
X247874Y138976D03*
X257323Y132677D03*
X244724Y145276D03*
X260472Y135827D03*
Y138976D03*
X257323D03*
X260472Y142126D03*
X257323D03*
X244724Y167323D03*
X251024Y164173D03*
X254173Y161024D03*
X254174Y157874D03*
X254173Y151575D03*
X251024D03*
X257323Y170472D03*
X251024D03*
X247874D03*
X254173Y154724D03*
X260472Y161024D03*
X257323Y154724D03*
Y157874D03*
Y161024D03*
X244724Y170472D03*
X247874Y164173D03*
X257323Y167323D03*
X251024Y157874D03*
X247874Y151575D03*
X244724Y164173D03*
Y161024D03*
X257323Y164173D03*
X260472D03*
Y151575D03*
X257323D03*
X260472Y167323D03*
Y157874D03*
Y170472D03*
X254173D03*
X260472Y173622D03*
X254173Y179921D03*
X257323D03*
X251024Y173622D03*
X257323Y176772D03*
X254173Y173622D03*
X247874D03*
X244724D03*
X257323D03*
X241575Y183075D03*
Y179922D03*
X254173Y176772D03*
X260472D03*
X246300Y192525D03*
X260475D03*
X255750Y192500D03*
X251025Y192525D03*
X260000Y228000D03*
X255000D03*
X248500Y217000D03*
X260000D03*
X255000D03*
X260000Y247000D03*
X250000D03*
Y270000D03*
Y262000D03*
Y254000D03*
Y258000D03*
X241000Y340000D03*
X261000Y65000D03*
X264606Y53000D03*
X260669D03*
X268543D03*
X268000Y90000D03*
X274449Y77000D03*
X266575D03*
X262638D03*
X270512D03*
X273000Y106000D03*
Y100000D03*
X268000D03*
X263622Y123228D03*
Y120079D03*
Y129528D03*
X266772D03*
Y123228D03*
X269921Y126378D03*
X263622D03*
X266775Y112200D03*
X273075Y120075D03*
X266772Y126378D03*
Y120079D03*
X269921Y129528D03*
X273075Y148425D03*
Y143700D03*
X266772Y132677D03*
X263622Y135827D03*
Y132677D03*
X269921D03*
X263622Y142126D03*
Y138976D03*
X266772Y170472D03*
X263622Y164173D03*
X266772Y167323D03*
X263622Y154724D03*
X273075Y157875D03*
X263622Y151575D03*
Y161024D03*
X266772Y164173D03*
X263622Y157874D03*
Y167323D03*
Y170472D03*
X266775Y187800D03*
X269922Y173622D03*
X263622Y179921D03*
X266772Y176772D03*
Y179921D03*
Y173622D03*
X263622Y176772D03*
Y173622D03*
X265000Y228000D03*
X270000D03*
X274000D03*
Y217000D03*
X265000D03*
X270000D03*
Y247000D03*
X280000Y270000D03*
Y255000D03*
Y290000D03*
Y295000D03*
X269000Y340000D03*
X264000D03*
X274000D03*
X285000Y77000D03*
X289000D03*
X286000Y124800D03*
X282525D03*
Y129525D03*
Y134250D03*
X295000Y140000D03*
Y144000D03*
X299000D03*
Y140000D03*
X282525Y157875D03*
X295000Y169000D03*
X290000Y161000D03*
X295000D03*
X290000Y156000D03*
Y165000D03*
X282500D03*
X286000D03*
X290000Y169000D03*
X299000Y158000D03*
X295000Y165000D03*
X299000Y172000D03*
X282525Y175200D03*
Y179925D03*
X290000Y173000D03*
X286000D03*
X293000Y204000D03*
Y208000D03*
X299016Y266016D03*
X285000Y265000D03*
X300000Y255000D03*
X285000D03*
X290000Y265000D03*
Y255000D03*
X295000D03*
X286000Y290000D03*
X286079Y284921D03*
X286047Y277047D03*
X285000Y310000D03*
X300000Y305000D03*
X295000D03*
X290256Y292000D03*
X315000Y40000D03*
Y60000D03*
X320000Y85000D03*
X310000D03*
X315000D03*
X305000Y88000D03*
X315000Y95000D03*
X320000Y100000D03*
Y95000D03*
X305000Y103000D03*
X315000Y100000D03*
X305000Y115000D03*
Y130000D03*
X320000D03*
X315000Y125000D03*
X315500Y143000D03*
X315000Y140000D03*
X310000D03*
X320000Y158000D03*
Y165000D03*
X307000Y151000D03*
Y158000D03*
X315000D03*
X308000Y190350D03*
X317000D03*
X307000Y172000D03*
X305000Y188000D03*
X303000Y206700D03*
X320000Y200000D03*
X306150Y206700D03*
X318750D03*
X315600Y209850D03*
X318750D03*
X309300Y206700D03*
X305000Y200000D03*
X303000Y228750D03*
X318750Y225600D03*
Y228750D03*
X306150D03*
Y222450D03*
Y225600D03*
X309300Y222450D03*
Y225600D03*
X315600Y228750D03*
Y225600D03*
X309300Y228750D03*
X318750Y222450D03*
X303000Y225600D03*
X306150Y231900D03*
X318750D03*
X309300D03*
X315600D03*
X310000Y255000D03*
X320000Y266000D03*
Y270000D03*
X305000Y255000D03*
X310000Y270000D03*
X315000D03*
X320000Y255000D03*
X318000Y290000D03*
X315000Y275000D03*
X310000Y305000D03*
Y295000D03*
X322047Y36000D03*
X338953Y47047D03*
X331201Y33000D03*
X335000Y40000D03*
X324000Y70000D03*
X330000D03*
X332000Y158000D03*
X324000D03*
X332000Y172000D03*
X321900Y206700D03*
X332000Y200000D03*
X321900Y209850D03*
Y228750D03*
Y225600D03*
X324000Y242000D03*
X322000Y290000D03*
X358000Y146000D03*
X343000Y163000D03*
X342000Y200000D03*
Y196000D03*
X345000Y265000D03*
X348000Y280000D03*
X350000Y333000D03*
X377000Y30000D03*
X368000Y122000D03*
Y159000D03*
X381000Y280000D03*
G54D58*
X340000Y80000D03*
X330000D03*
X340000Y90000D03*
X330000D03*
X340000Y100000D03*
Y110000D03*
X330000D03*
X340000Y120000D03*
X330000D03*
X340000Y130000D03*
X330000D03*
X340000Y140000D03*
X330000D03*
X341000Y288500D03*
X331000D03*
X352500Y50000D03*
X362500D03*
X352500Y60000D03*
X362500D03*
X352500Y70000D03*
X362500D03*
Y80000D03*
X352500D03*
X362500Y90000D03*
X352500D03*
X362500Y100000D03*
X352500D03*
X362500Y110000D03*
X352500D03*
X362500Y120000D03*
Y130000D03*
X352500Y120000D03*
Y130000D03*
X362500Y140000D03*
Y150000D03*
X352500Y140000D03*
Y150000D03*
X362500Y160000D03*
Y170000D03*
X352500Y160000D03*
Y170000D03*
X362500Y180000D03*
Y190000D03*
X352500Y180000D03*
Y190000D03*
X362500Y200000D03*
Y210000D03*
X352500Y200000D03*
Y210000D03*
X362500Y220000D03*
Y230000D03*
X352500Y220000D03*
Y230000D03*
X362500Y240000D03*
Y250000D03*
X352500Y240000D03*
Y250000D03*
X362500Y260000D03*
Y270000D03*
X352500Y260000D03*
X364000Y288500D03*
X377500Y50000D03*
Y60000D03*
Y70000D03*
Y80000D03*
Y90000D03*
Y100000D03*
Y110000D03*
Y120000D03*
Y130000D03*
Y140000D03*
Y150000D03*
Y160000D03*
Y170000D03*
Y180000D03*
Y190000D03*
Y200000D03*
Y210000D03*
Y220000D03*
Y230000D03*
Y240000D03*
Y250000D03*
Y260000D03*
X374000Y288500D03*
X387500Y50000D03*
Y60000D03*
Y70000D03*
Y80000D03*
Y90000D03*
Y100000D03*
Y110000D03*
Y120000D03*
Y130000D03*
Y140000D03*
Y150000D03*
Y160000D03*
Y170000D03*
Y180000D03*
Y190000D03*
Y200000D03*
Y210000D03*
Y220000D03*
Y230000D03*
Y240000D03*
Y250000D03*
Y260000D03*
Y270000D03*
G54D51*
X77000Y310000D03*
Y300000D03*
X77500Y350000D03*
Y340000D03*
X168000Y260000D03*
Y270000D03*
Y300000D03*
Y310000D03*
G54D44*
X8200Y73150D03*
Y90850D03*
X33800Y73150D03*
Y90850D03*
X203850Y292200D03*
X186150D03*
X203850Y317800D03*
X186150D03*
X371150Y37800D03*
X155315Y352343D03*
G54D60*
X340000Y317500D03*
X345000Y307500D03*
X355000D03*
X350000Y317500D03*
X360000D03*
X365000Y307500D03*
X370000Y317500D03*
G54D57*
X267220Y35000D03*
X294780D03*
G54D47*
X15000Y290000D03*
X25000D03*
X77500Y327500D03*
X100000Y140000D03*
X90000Y260000D03*
X100000D03*
X119700Y119700D03*
X110000Y140000D03*
X168000Y250000D03*
Y290000D03*
X190000Y72000D03*
Y62000D03*
Y82000D03*
X221000Y85000D03*
X280000D03*
Y95000D03*
X340000Y270000D03*
G54D55*
X195000Y251614D03*
Y278386D03*
G54D46*
X10000Y123500D03*
Y198500D03*
G54D52*
X129700Y8400D03*
X185700D03*
G54D42*
X105000Y12236D03*
Y39795D03*
G54D45*
X23000Y100500D03*
Y221500D03*
X322000Y330500D03*
X383000D03*
G54D61*
X330000Y342500D03*
X375000D03*
G54D43*
X15000Y55000D03*
X295000D03*
Y325000D03*
G54D49*
X54000Y314000D03*
G54D56*
X218000Y9937D03*
G54D50*
X54000Y338600D03*
G54D62*
X352500Y270000D03*
X377500D03*
G54D59*
X335000Y307500D03*
G54D53*
X138000Y32000D03*
X132000Y41900D03*
X148000Y32000D03*
X167500D03*
X177400D03*
X183400Y41900D03*
%LPD*%
G75*
G36*
G01X146000Y287000D02*
Y279000D01*
X144000Y277000D01*
X131000D01*
X126000Y272000D01*
X113000D01*
X112000Y273000D01*
Y287000D01*
X113000Y288000D01*
X145000D01*
X146000Y287000D01*
G37*
%LPC*%
G75*
G54D48*
X132984Y279016D03*
X137000Y279000D03*
Y283000D03*
X133000Y282953D03*
%LPD*%
G75*
G54D10*
X15000Y55000D03*
Y325000D03*
X295000Y55000D03*
Y325000D03*
G54D20*
X54000Y314000D03*
G54D11*
X8200Y73150D03*
Y90850D03*
X33800Y73150D03*
Y90850D03*
X155315Y352343D03*
X203850Y292200D03*
X186150D03*
X203850Y317800D03*
X186150D03*
X205827Y348406D03*
X371150Y12200D03*
Y37800D03*
X388850Y12200D03*
Y37800D03*
G54D30*
X195000Y251614D03*
Y278386D03*
G54D12*
X18000Y87000D03*
X25000Y18000D03*
X39000Y22000D03*
Y30000D03*
X39063Y26063D03*
X25000Y28000D03*
X39000Y38000D03*
X25000Y43000D03*
X40000Y48000D03*
X25000Y38000D03*
X39000Y33937D03*
X40000Y59000D03*
X24000Y76000D03*
X40000Y140000D03*
Y145000D03*
X35000Y140000D03*
Y165000D03*
Y155000D03*
X40000Y182000D03*
Y188000D03*
Y201000D03*
Y197953D03*
Y208000D03*
X40025Y217000D03*
X34000Y223000D03*
X40000Y220000D03*
Y212000D03*
X22000Y236000D03*
X29000Y297000D03*
X37000Y291000D03*
X29000Y302950D03*
X34000Y300000D03*
Y303000D03*
X25000Y343000D03*
X28950Y347050D03*
X29000Y353000D03*
X50000Y30000D03*
Y19000D03*
X46063Y19063D03*
X48000Y48000D03*
X52000D03*
X45000Y59000D03*
X60000D03*
X50000D03*
X55000D03*
X57000Y78000D03*
X53000D03*
X57000Y95000D03*
X53000D03*
X46000Y98000D03*
X49000D03*
Y95000D03*
X46000D03*
X42000Y117000D03*
Y121000D03*
X60000Y135000D03*
X55000D03*
Y145000D03*
X50000D03*
X60000D03*
X45000D03*
X60000Y155000D03*
X45000D03*
X50000Y165000D03*
Y155000D03*
X60000Y165000D03*
X45000D03*
X57110Y173000D03*
X43000Y185000D03*
X54000Y173000D03*
X43000Y188000D03*
X60000Y173000D03*
X50000D03*
X43000Y195984D03*
Y201000D03*
Y208000D03*
X56142Y217000D03*
X43000Y212000D03*
X42000Y225500D03*
X56000Y220000D03*
X53000Y217000D03*
X47000D03*
Y249000D03*
X56000Y244000D03*
X47000Y239000D03*
Y260260D03*
Y267000D03*
Y275260D03*
Y282000D03*
X44000D03*
X41000D03*
X51000Y294000D03*
Y291000D03*
Y300000D03*
Y297000D03*
Y303000D03*
X75000Y23000D03*
Y18000D03*
X61000Y19000D03*
Y23000D03*
Y30000D03*
X75000Y33000D03*
Y38000D03*
Y43000D03*
X61000Y33937D03*
Y38000D03*
X71000Y78000D03*
X67000D03*
X77000D03*
X67500Y95000D03*
X70500Y98000D03*
X74000D03*
Y101000D03*
X61000Y95000D03*
X77000Y119000D03*
X63000Y141000D03*
Y145000D03*
X75000Y135000D03*
X73000Y145000D03*
X63000Y135000D03*
X68000Y145000D03*
X73000Y141000D03*
X68000Y135000D03*
X75000Y155000D03*
X65000Y165000D03*
Y155000D03*
X75000Y165000D03*
X72000Y173000D03*
X77000D03*
X67953Y173047D03*
X65000Y173000D03*
X75000Y205000D03*
X69000Y217000D03*
X77000Y220000D03*
X61000D03*
X69000D03*
X77000Y217000D03*
X61000D03*
X73000D03*
Y220000D03*
X65000Y249000D03*
X80000Y246000D03*
X65000D03*
X75000D03*
Y249000D03*
Y239000D03*
X80000Y242000D03*
X75000D03*
X80000Y239000D03*
Y249000D03*
X65000Y242000D03*
Y239000D03*
X61000D03*
Y249000D03*
X64000Y260260D03*
Y266000D03*
Y275260D03*
Y281000D03*
X69000Y300000D03*
Y291000D03*
X90000Y23000D03*
Y46000D03*
X96000Y34000D03*
X93000D03*
X90000D03*
Y61000D03*
Y64000D03*
X94055Y61055D03*
X97000Y75000D03*
X81000Y78000D03*
X89000Y104000D03*
X81000Y111000D03*
Y115000D03*
Y123000D03*
X97000Y130000D03*
X89000Y165000D03*
X85000Y155000D03*
X92000D03*
Y165000D03*
X95000Y180048D03*
X90000Y173000D03*
X95000Y190000D03*
X87000Y173000D03*
Y185000D03*
X90000Y190000D03*
X87000D03*
X95000Y175000D03*
X82000Y173000D03*
X95000Y210000D03*
X90000Y204000D03*
Y194000D03*
Y197000D03*
Y200000D03*
X87000Y194016D03*
Y200000D03*
Y204000D03*
X95000Y203000D03*
Y207000D03*
X87000D03*
Y228025D03*
X90000Y229000D03*
X84000Y227000D03*
X93000Y230000D03*
X87000Y212000D03*
X90000Y217000D03*
X81000Y220000D03*
Y217000D03*
X87000D03*
X95000Y249000D03*
X96000Y231000D03*
X90000Y242000D03*
X95000Y239000D03*
Y242000D03*
Y246000D03*
X90000Y249000D03*
Y239000D03*
X81000Y262000D03*
X90000Y269000D03*
X81000Y266000D03*
X100000Y269000D03*
X81000Y277000D03*
X90000Y281000D03*
X81000D03*
X86000Y289000D03*
Y292500D03*
X97000D03*
X93250D03*
X85161Y317805D03*
X87720D03*
X90280D03*
X87720Y344000D03*
X92000Y348000D03*
Y351000D03*
X118000Y69000D03*
X105000Y70000D03*
X109945Y61055D03*
X118000Y85000D03*
Y74000D03*
X118079Y78079D03*
X118000Y81000D03*
Y87921D03*
X113000Y75000D03*
Y97000D03*
X118000Y104000D03*
Y96000D03*
Y100000D03*
X113000Y130000D03*
X120300Y124800D03*
X120000Y114000D03*
X105000Y134000D03*
X120300Y145275D03*
Y138975D03*
Y132675D03*
Y170475D03*
Y161025D03*
Y151575D03*
X105000Y183000D03*
Y180000D03*
Y190000D03*
X120300Y179925D03*
Y187800D03*
X105000Y195000D03*
Y207000D03*
Y203000D03*
Y210000D03*
Y200000D03*
Y246000D03*
Y242000D03*
Y249000D03*
Y239000D03*
X108000Y246000D03*
X119000Y253000D03*
X115000D03*
X119000Y264000D03*
X119016Y267016D03*
X110000Y267000D03*
X106000Y286890D03*
Y275079D03*
Y280000D03*
X120000Y296000D03*
X111500D03*
X108500D03*
X115000Y316500D03*
X108500Y314000D03*
X111500D03*
X111201Y327000D03*
X120000Y313000D03*
X114350Y327000D03*
X105000Y345000D03*
X125000Y62000D03*
X132800Y52200D03*
X128700Y54100D03*
X137000Y62000D03*
X133000D03*
X129000D03*
Y66000D03*
X121000Y62000D03*
X137000Y52000D03*
X135000Y78000D03*
X129000Y76000D03*
X135000Y88000D03*
X129000Y80000D03*
X130000Y85000D03*
X125000Y104000D03*
X130000Y96000D03*
X140000Y103000D03*
X130000Y100000D03*
Y91000D03*
X123450Y124800D03*
X127500Y111200D03*
X137200Y116800D03*
X139200Y124800D03*
X130000Y114000D03*
X135000D03*
X140000D03*
X137626Y135828D03*
Y142127D03*
Y148426D03*
X123450Y138975D03*
Y132675D03*
Y145275D03*
X134477Y145276D03*
Y138977D03*
Y132678D03*
X137626D03*
Y145276D03*
X134477Y148426D03*
X137626Y138977D03*
X134477Y142127D03*
Y135828D03*
X137626Y154725D03*
X123450Y170475D03*
Y151575D03*
Y161025D03*
Y165750D03*
X134477Y164174D03*
X137626D03*
Y161024D03*
Y167324D03*
X134477Y170473D03*
Y161024D03*
Y151576D03*
Y154725D03*
X137626Y170473D03*
X123500Y174000D03*
X134477Y176772D03*
X123450Y187800D03*
X139200D03*
X123500Y176727D03*
X137626Y176772D03*
Y173623D03*
Y179922D03*
X133268Y202000D03*
X127362D03*
X136000Y216000D03*
X132000Y213000D03*
X139173D03*
X127500D03*
X136000D03*
X127362Y243000D03*
X133268D03*
X139173Y232173D03*
X123000Y243000D03*
X129000Y264000D03*
X123000Y253000D03*
X131000D03*
X135000Y256000D03*
X122953Y267000D03*
X123000Y264000D03*
X132984Y279016D03*
X137000Y279000D03*
Y283000D03*
X133000Y274000D03*
Y282953D03*
X129000Y294000D03*
X126000Y296000D03*
X133000Y294000D03*
X137000D03*
X122000Y326000D03*
X130000Y345000D03*
X125000D03*
X130000Y332000D03*
X160300Y23100D03*
X151300Y22900D03*
X157000Y45000D03*
X153700Y35200D03*
X153000Y45000D03*
X145000D03*
X149000D03*
X153000Y62000D03*
X160000Y66000D03*
X157000Y62000D03*
X145000Y52000D03*
X149000Y62000D03*
X145079Y61921D03*
X141000Y52000D03*
X153000D03*
X157000D03*
X149016D03*
X141000Y62000D03*
X153000Y103000D03*
X149000D03*
X160500D03*
X157000D03*
X145000D03*
X157000Y114000D03*
X153000D03*
X149000D03*
X145000D03*
X152000Y126000D03*
X160000Y126025D03*
X140776Y145276D03*
Y132678D03*
X159674Y148426D03*
X156524Y145276D03*
X159674Y142127D03*
Y135828D03*
X156524Y132678D03*
X140776Y135828D03*
Y138977D03*
X156524D03*
X159674Y145276D03*
Y132678D03*
Y138977D03*
X140776Y142127D03*
X156524Y161024D03*
X140776D03*
X159674Y154725D03*
X156524Y164174D03*
X140776D03*
Y167324D03*
X159674Y161024D03*
X140776Y154725D03*
X156524Y151576D03*
X159674D03*
X156524Y154725D03*
X140776Y170473D03*
X156524D03*
X150650Y190500D03*
X146650D03*
X158100Y187800D03*
X142000Y190500D03*
X156524Y179922D03*
X159674D03*
X148000Y180000D03*
X140776Y176772D03*
X156524D03*
X159674D03*
X140776Y173623D03*
X156000Y228000D03*
X160000Y213000D03*
X148000Y228000D03*
X148500Y213000D03*
X154921D03*
X152000Y228000D03*
X145079Y213000D03*
X160000Y228000D03*
Y216000D03*
X152000Y215984D03*
X154921Y243000D03*
X160000D03*
X145079D03*
X160000Y232000D03*
X148000Y252500D03*
X151850D03*
X144000Y287000D03*
Y283000D03*
X148000Y292500D03*
X151850D03*
X143000Y327000D03*
Y332000D03*
Y348000D03*
Y351000D03*
X169000Y45000D03*
X161000D03*
X165000D03*
X161100Y52100D03*
X165200Y52200D03*
X165000Y62000D03*
X170500Y87921D03*
X165000Y88000D03*
X170500Y75000D03*
X165000Y78000D03*
X163600Y99800D03*
X178000Y104000D03*
X169000Y93000D03*
Y104000D03*
X164000Y103000D03*
X160800Y114100D03*
X163000Y126000D03*
X164700Y114000D03*
X169000D03*
X173850Y145275D03*
Y132675D03*
Y138975D03*
X162823Y145276D03*
Y138977D03*
Y132678D03*
Y148426D03*
Y142127D03*
Y135828D03*
X173850Y161025D03*
Y151575D03*
X179000Y169500D03*
X162823Y161024D03*
Y151576D03*
Y173623D03*
X173850Y179925D03*
Y187800D03*
X162823Y179922D03*
X174000Y174000D03*
X166000Y213000D03*
Y216000D03*
X164000Y228000D03*
X172000D03*
X175500Y213000D03*
X176000Y228000D03*
X168000D03*
X172638Y213000D03*
X179500Y221000D03*
X172500Y216000D03*
X179500Y213000D03*
Y227837D03*
X166732Y243000D03*
X172638D03*
X176000Y232000D03*
Y236000D03*
X161000Y287000D03*
Y283000D03*
X170000Y327000D03*
X162000D03*
X178000D03*
X173000D03*
X162000Y340000D03*
X191000Y27000D03*
X195000D03*
X200000Y53000D03*
X196000Y69000D03*
X182000Y68000D03*
X196000Y61000D03*
X196079Y65000D03*
X198000Y83025D03*
Y80000D03*
X195000Y90000D03*
X182000Y72000D03*
Y88000D03*
Y77000D03*
Y80000D03*
X181984Y83984D03*
X198000Y87000D03*
X182000Y96000D03*
Y100000D03*
X195000Y110000D03*
Y100000D03*
X191000Y107000D03*
X187000D03*
Y93000D03*
X185000Y100000D03*
X184000Y118000D03*
X195000Y114000D03*
Y118000D03*
Y126000D03*
X181000Y128000D03*
X184000Y126000D03*
X195000Y130000D03*
Y142000D03*
X184000Y136000D03*
X181000Y146000D03*
X184000Y132000D03*
X195000Y134000D03*
X184000Y146000D03*
Y142127D03*
X181000Y142000D03*
Y136000D03*
Y132000D03*
Y160000D03*
X184000D03*
Y156000D03*
Y152000D03*
X181000D03*
X195000Y154000D03*
X184000Y166000D03*
X181000D03*
X195000Y168000D03*
Y164000D03*
X184000Y188000D03*
X195000Y176000D03*
Y188000D03*
Y172000D03*
X181000Y180000D03*
X195000D03*
Y184000D03*
X200000Y228000D03*
Y217000D03*
X197000D03*
X200000Y232000D03*
X188000Y236000D03*
Y232000D03*
X200000Y247000D03*
X190000Y263000D03*
X184000Y327000D03*
X189000D03*
X210000Y27000D03*
X203750Y27500D03*
X218000Y27000D03*
X203750Y40000D03*
X205551Y53000D03*
X209488D03*
X213425D03*
X217500Y65000D03*
X209000Y80000D03*
X211025Y77025D03*
X219331Y77000D03*
X215394D03*
X218000Y90000D03*
X204000Y80000D03*
Y90000D03*
X209000D03*
X204000Y93000D03*
X200855Y96000D03*
X201000Y93000D03*
X218000Y107000D03*
X213225Y107500D03*
X209000Y100000D03*
X212000D03*
X219528Y126378D03*
X213225Y117000D03*
X216378Y129528D03*
Y126378D03*
X217950Y112500D03*
X219528Y142126D03*
X216378Y148425D03*
Y135827D03*
X219528D03*
X219527Y148425D03*
X216378Y145276D03*
X219528D03*
Y138976D03*
X216378D03*
X219528Y132677D03*
X216378D03*
Y142126D03*
Y170472D03*
Y154724D03*
X219528Y157874D03*
Y170472D03*
X216378Y161024D03*
X219528Y164173D03*
Y151575D03*
X216378Y167323D03*
X219528Y161024D03*
X216378Y164173D03*
X219528Y167323D03*
X216378Y157874D03*
X219528Y154724D03*
X213228Y157874D03*
X213229Y183075D03*
X219528Y173622D03*
X216378D03*
X219500Y195500D03*
X216500D03*
Y192500D03*
X219450Y192525D03*
X213000Y217000D03*
X203000D03*
X210000Y228000D03*
X220000D03*
Y214000D03*
X215000Y228000D03*
X216500Y214000D03*
Y217000D03*
X220000D03*
X210000Y214000D03*
Y232000D03*
X220000D03*
X210000Y247000D03*
X220000D03*
X211500Y257000D03*
Y267000D03*
Y273000D03*
X218000Y299500D03*
X213000Y326250D03*
Y333750D03*
X218000Y354489D03*
X237000Y65000D03*
X221000D03*
X230000Y53000D03*
Y65000D03*
X225000Y53000D03*
X234000Y53047D03*
X221000Y53000D03*
X227000Y65000D03*
X231500Y77000D03*
X223268D03*
X225000Y90000D03*
X236000Y87000D03*
X239016Y77000D03*
X240000Y87000D03*
X225000Y100000D03*
X237000Y107500D03*
X240000Y103000D03*
X222675Y104000D03*
Y107475D03*
X232125D03*
X240000Y107500D03*
X227250Y107475D03*
X228976Y123228D03*
X232125Y116925D03*
X222677Y123228D03*
Y120079D03*
X232126D03*
X238426D03*
X232126Y129528D03*
X235276Y126378D03*
X232126D03*
X235276Y123228D03*
X238425Y129528D03*
X225827Y123228D03*
X238425D03*
X235276Y129528D03*
X228976Y126378D03*
Y120079D03*
X225827D03*
X228976Y129528D03*
X225827D03*
X232126Y123228D03*
X227400Y117000D03*
X235276Y120079D03*
X222677Y126378D03*
Y129528D03*
X238425Y126378D03*
Y135827D03*
Y142126D03*
X228977Y132677D03*
X232126Y138976D03*
X228977Y142126D03*
X222677Y132677D03*
X235276Y138977D03*
X222677Y145276D03*
X225827D03*
Y138977D03*
X238425Y148426D03*
X228976D03*
X232126Y145276D03*
Y132677D03*
X238425Y138975D03*
X222677Y138977D03*
X238426Y132677D03*
X235276D03*
X228977Y138976D03*
X238425Y145276D03*
X228976Y135827D03*
X235276Y145276D03*
X228977Y164173D03*
X235276Y170472D03*
X225827Y164173D03*
X232126Y170472D03*
X238426D03*
X222677Y157874D03*
Y170472D03*
Y151624D03*
X238426Y154724D03*
X238425Y151575D03*
X235276Y157874D03*
Y151575D03*
X238425Y157874D03*
X235276Y164173D03*
X232126D03*
X225827Y170472D03*
X222677Y164173D03*
X238425Y167323D03*
X238426Y164173D03*
X228977Y154724D03*
X228976Y151575D03*
Y161023D03*
X225827Y157874D03*
Y151575D03*
X228976Y157874D03*
X238425Y161023D03*
X232126Y157874D03*
Y151574D03*
X228976Y170472D03*
X222677Y176772D03*
Y173622D03*
X235276Y179921D03*
X238425Y173622D03*
X228976D03*
X222677Y179921D03*
X235275Y183075D03*
X225827Y173622D03*
Y176772D03*
X235276D03*
X235275Y192525D03*
X225827D03*
Y195500D03*
X235275D03*
X225000Y228000D03*
X230000Y217000D03*
Y214000D03*
X240000Y228000D03*
Y225000D03*
X235000D03*
Y228000D03*
X238000Y217000D03*
Y214000D03*
X230000Y228000D03*
X223000Y247000D03*
X240000Y232000D03*
X235000D03*
Y247000D03*
X225984Y247016D03*
X229000Y232000D03*
Y247000D03*
X235000Y250000D03*
X226000Y232000D03*
X240000Y247000D03*
Y258000D03*
X235000Y270000D03*
X225984Y272984D03*
X229921Y272921D03*
X227000Y294000D03*
X235000D03*
X226476Y306000D03*
X237500Y315000D03*
X226000Y317000D03*
Y325000D03*
Y335000D03*
Y350000D03*
Y340000D03*
X236000D03*
X231000D03*
X226000Y354489D03*
X241000Y27000D03*
X245000D03*
X241000Y65000D03*
X249000D03*
X245000D03*
X240984Y53000D03*
X244921D03*
X252795D03*
X248858Y53142D03*
X256732Y53000D03*
X254764Y81000D03*
X250827Y77000D03*
X242953D03*
X246890D03*
X251000Y81000D03*
X254764Y77000D03*
X243000Y81000D03*
X244500Y87000D03*
X258701Y77000D03*
X251025Y107475D03*
X260475D03*
X244500Y103000D03*
X255750Y107475D03*
X257323Y120079D03*
X244724Y126378D03*
X251025Y116925D03*
X260472Y129528D03*
X251024Y126378D03*
X247874D03*
X251024Y120079D03*
X244724D03*
X247874D03*
X254173Y126378D03*
X260472D03*
X257323Y129528D03*
X251024Y123228D03*
X244724Y129528D03*
X251024D03*
X254173Y123228D03*
Y129528D03*
X260472Y123228D03*
X260475Y116925D03*
X257323Y126378D03*
X247874Y123228D03*
X257323D03*
X254173Y120079D03*
X247874Y129528D03*
X260472Y120079D03*
X244725Y123228D03*
X244724Y135827D03*
X254173Y145276D03*
Y135826D03*
X251023Y132677D03*
X254173Y138976D03*
X247874Y132677D03*
X244724Y148426D03*
X244725Y142125D03*
X260472Y132677D03*
X257323Y145276D03*
X244724Y132677D03*
X241575Y138975D03*
X251023Y138977D03*
X251024Y145276D03*
X244724Y138977D03*
X247874Y138976D03*
X257323Y132677D03*
X244724Y145276D03*
X260472Y135827D03*
Y138976D03*
X257323D03*
X260472Y142126D03*
X257323D03*
X244724Y167323D03*
X251024Y164173D03*
X254173Y161024D03*
X254174Y157874D03*
X254173Y151575D03*
X251024D03*
X257323Y170472D03*
X251024D03*
X247874D03*
X254173Y154724D03*
X260472Y161024D03*
X257323Y154724D03*
X254173Y167322D03*
X244724Y154724D03*
Y151575D03*
Y157874D03*
X257323D03*
Y161024D03*
X244724Y170472D03*
X247874Y164173D03*
X257323Y167323D03*
X251024Y157874D03*
X247874Y151575D03*
X244724Y164173D03*
Y161024D03*
X257323Y164173D03*
X260472D03*
Y151575D03*
X257323D03*
X260472Y167323D03*
Y157874D03*
Y170472D03*
X254173D03*
X260472Y173622D03*
X241575Y176772D03*
X247874D03*
X254173Y179921D03*
X257323D03*
X251024Y173622D03*
X257323Y176772D03*
X254173Y173622D03*
X247874D03*
X244724D03*
X257323D03*
X241575Y183075D03*
Y179922D03*
X254173Y176772D03*
X260472D03*
X246300Y192525D03*
X260475D03*
X255750Y192500D03*
X251025Y192525D03*
X241575D03*
X260000Y228000D03*
X255000D03*
X245000Y217000D03*
Y214000D03*
X248500Y217000D03*
X260000D03*
X255000D03*
X260000Y232000D03*
X250000D03*
Y250000D03*
X260000Y247000D03*
X250000D03*
Y270000D03*
Y262000D03*
Y254000D03*
Y258000D03*
Y266000D03*
X251000Y288000D03*
Y282000D03*
Y285000D03*
X245000Y294000D03*
X251000D03*
Y291000D03*
X242500Y315000D03*
X241000Y350000D03*
X245000Y340000D03*
X255000D03*
X241000D03*
X252000Y354489D03*
X248000D03*
X261000Y65000D03*
X264606Y53000D03*
X260669D03*
X268543D03*
X268000Y90000D03*
X274449Y77000D03*
X266575D03*
X262638D03*
X270512D03*
X273000Y106000D03*
Y100000D03*
X268000D03*
X263622Y123228D03*
Y120079D03*
Y129528D03*
X266772D03*
X269921Y120079D03*
X266772Y123228D03*
X269921Y126378D03*
X263622D03*
X266775Y112200D03*
X273075Y120075D03*
X266772Y126378D03*
Y120079D03*
X269921Y129528D03*
X273075Y148425D03*
Y143700D03*
X266772Y132677D03*
X263622Y135827D03*
Y132677D03*
X269921D03*
X263622Y142126D03*
Y138976D03*
X266772Y170472D03*
X263622Y164173D03*
X266772Y167323D03*
X263622Y154724D03*
X273075Y157875D03*
X263622Y151575D03*
Y161024D03*
X266772Y164173D03*
X263622Y157874D03*
Y167323D03*
Y170472D03*
X266775Y187800D03*
X269922Y173622D03*
X263622Y179921D03*
X266772Y176772D03*
Y179921D03*
Y173622D03*
X263622Y176772D03*
Y173622D03*
X270000Y193000D03*
X267000D03*
X265000Y228000D03*
X270000D03*
X274000D03*
Y217000D03*
X265000D03*
X270000D03*
Y232000D03*
Y247000D03*
X263000Y267000D03*
X280000Y270000D03*
Y255000D03*
Y290000D03*
Y280000D03*
Y295000D03*
X263000Y293000D03*
X264862Y315000D03*
X264000Y350000D03*
X269000Y340000D03*
X264000D03*
X266500Y337000D03*
X274000Y340000D03*
Y354489D03*
X285000Y77000D03*
X289000D03*
X286000Y124800D03*
X282525D03*
Y129525D03*
X295000Y120000D03*
X282525Y112200D03*
Y120075D03*
Y134250D03*
X295000Y140000D03*
X282525Y148425D03*
Y143700D03*
X295000Y144000D03*
X299000D03*
Y140000D03*
X282525Y157875D03*
X295000Y169000D03*
X290000Y161000D03*
X295000D03*
X290000Y156000D03*
Y165000D03*
X282500D03*
X286000D03*
X290000Y169000D03*
X299000Y158000D03*
X295000Y165000D03*
X299000Y172000D03*
X282525Y175200D03*
Y187800D03*
Y179925D03*
X286000Y188000D03*
X290000Y173000D03*
X286000D03*
Y194000D03*
Y191000D03*
X293000Y204000D03*
Y208000D03*
Y225600D03*
X296000Y216000D03*
X293000D03*
Y231500D03*
X296000D03*
X299016Y266016D03*
X285000Y265000D03*
X300000Y255000D03*
X285000D03*
X290000Y265000D03*
X295000Y252000D03*
X290000Y255000D03*
X295000D03*
X286000Y290000D03*
X286079Y284921D03*
X286047Y277047D03*
X285000Y310000D03*
X299000Y295000D03*
X293000D03*
X296000D03*
X300000Y305000D03*
X295000D03*
X290256Y292000D03*
X285000Y305000D03*
X290000D03*
X282000Y354489D03*
X315000Y40000D03*
Y60000D03*
X320000Y85000D03*
X310000D03*
X315000D03*
X305000Y88000D03*
X315000Y95000D03*
X320000Y100000D03*
Y95000D03*
X310000D03*
X305000Y103000D03*
X315000Y100000D03*
X305000Y115000D03*
Y130000D03*
X320000D03*
X315000Y125000D03*
X310000Y130000D03*
X315000D03*
X315500Y143000D03*
X315000Y140000D03*
X310000D03*
X320000Y143000D03*
Y158000D03*
X304000D03*
X320000Y165000D03*
X307000Y151000D03*
Y158000D03*
X315000D03*
Y172000D03*
X308000Y190350D03*
X317000D03*
X304000Y172000D03*
X318000D03*
X307000D03*
X305000Y188000D03*
X315600Y206700D03*
X303000D03*
X320000Y200000D03*
X306150Y206700D03*
X318750D03*
X315600Y209850D03*
X318750D03*
X309300Y206700D03*
X305000Y200000D03*
X303000Y228750D03*
X306150Y216150D03*
X318750Y225600D03*
Y228750D03*
X306150D03*
Y222450D03*
Y225600D03*
X309300Y222450D03*
Y225600D03*
X315600Y228750D03*
Y225600D03*
X309300Y228750D03*
X318750Y222450D03*
X303000Y225600D03*
X306150Y231900D03*
X318750D03*
X303000D03*
X312450Y235050D03*
X309300Y231900D03*
X315600D03*
X310000Y255000D03*
X315000Y252000D03*
X320000Y266000D03*
Y270000D03*
X305000Y255000D03*
X315000D03*
X310000Y270000D03*
X315000D03*
X320000Y255000D03*
X318000Y290000D03*
X315000Y275000D03*
X302000Y295000D03*
X305000D03*
Y305000D03*
X310000D03*
Y295000D03*
X325000Y8391D03*
X340000Y18000D03*
X325000Y11000D03*
X338890Y43110D03*
X322047Y36000D03*
X338953Y47047D03*
X331201Y33000D03*
X335000Y40000D03*
X324000Y70000D03*
X330000D03*
X323000Y140000D03*
Y143000D03*
X329000Y158000D03*
X335000D03*
X340000D03*
Y151000D03*
X332000Y158000D03*
X324000D03*
X340000Y172000D03*
X337000D03*
Y180000D03*
X329000Y172000D03*
X340000Y179925D03*
X332000Y172000D03*
X321900Y206700D03*
X332000Y200000D03*
X321900Y209850D03*
X332000Y222450D03*
Y213000D03*
X321900Y228750D03*
Y225600D03*
Y231900D03*
X330000Y245000D03*
X324000Y242000D03*
X330000D03*
X322000Y290000D03*
X340000Y333000D03*
X335000D03*
X350000Y8000D03*
Y18000D03*
Y11000D03*
X346000Y126000D03*
Y129000D03*
X358000Y146000D03*
X346000Y132000D03*
Y135000D03*
X343000Y158000D03*
X346000D03*
X343000Y151000D03*
X346000D03*
X343000Y163000D03*
X342000Y200000D03*
Y196000D03*
X345000Y265000D03*
X348000Y280000D03*
X350000Y333000D03*
X345000Y342000D03*
X360000D03*
X355000Y333000D03*
X377000Y30000D03*
X371000Y70000D03*
Y67000D03*
Y73000D03*
X368000Y122000D03*
Y159000D03*
X365000Y333000D03*
X370000D03*
X383000Y20000D03*
X381000Y280000D03*
G54D21*
X77000Y310000D03*
Y300000D03*
X77500Y350000D03*
Y340000D03*
X168000Y260000D03*
Y270000D03*
Y300000D03*
Y310000D03*
G54D40*
G01X17198Y100500D02*
X23000D01*
G01X13900Y149000D02*
X16952D01*
G01X8000Y136948D02*
Y140000D01*
G01X4948D02*
X8000D01*
G01X4948Y158000D02*
X8000D01*
G01X4948Y176000D02*
X8000D01*
G01Y182000D02*
Y185052D01*
G01X4948Y182000D02*
X8000D01*
G01X17198Y221500D02*
X23000D01*
G01X12000Y276500D02*
Y279302D01*
G01X9198Y276500D02*
X12000D01*
G01X17000D02*
Y279302D01*
G01Y276500D02*
X19802D01*
G01X15000Y286398D02*
Y290000D01*
G01D02*
Y293602D01*
G01X11398Y290000D02*
X15000D01*
G01D02*
X18602D01*
G01X23000Y94698D02*
Y100500D01*
G01D02*
Y106302D01*
G01Y100500D02*
X28802D01*
G01X23000Y215698D02*
Y221500D01*
G01D02*
Y227302D01*
G01Y221500D02*
X28802D01*
G01X29500Y276500D02*
Y279302D01*
G01X26698Y276500D02*
X29500D01*
G01X34500D02*
Y279302D01*
G01Y276500D02*
X37302D01*
G01X35100Y317748D02*
Y325800D01*
G01D02*
Y333852D01*
G01Y325800D02*
X43152D01*
G01X54000Y330548D02*
Y338600D01*
G01D02*
Y346652D01*
G01X45948Y338600D02*
X54000D01*
G01D02*
X62052D01*
G01X77500Y345698D02*
Y350000D01*
G01D02*
Y354302D01*
G01X73198Y350000D02*
X77500D01*
G01D02*
X81802D01*
G01X138000Y8728D02*
Y12300D01*
G01X129700Y2863D02*
Y8400D01*
G01D02*
Y13937D01*
G01X126128Y8400D02*
X129700D01*
G01D02*
X133272D01*
G01X138000Y12300D02*
Y15872D01*
G01X133443Y12300D02*
X138000D01*
G01X155315Y347541D02*
Y352343D01*
G01D02*
Y357145D01*
G01X150513Y352343D02*
X155315D01*
G01D02*
X160117D01*
G01X177400Y8728D02*
Y12300D01*
G01D02*
Y15872D01*
G01Y12300D02*
X181957D01*
G01X177840Y342500D02*
X181142D01*
G01X166142Y339198D02*
Y342500D01*
G01D02*
Y345802D01*
G01X162840Y342500D02*
X166142D01*
G01D02*
X169444D01*
G01X185700Y2863D02*
Y8400D01*
G01D02*
Y13937D01*
G01X182128Y8400D02*
X185700D01*
G01D02*
X189272D01*
G01X186150Y287398D02*
Y292200D01*
G01X195000Y273834D02*
Y278386D01*
G01D02*
Y282938D01*
G01X190448Y278386D02*
X195000D01*
G01D02*
X199552D01*
G01X186150Y292200D02*
Y297002D01*
G01X181348Y292200D02*
X186150D01*
G01D02*
X190952D01*
G01X186150Y312998D02*
Y317800D01*
G01D02*
Y322602D01*
G01X181348Y317800D02*
X186150D01*
G01D02*
X190952D01*
G01X196142Y339198D02*
Y342500D01*
G01D02*
Y345802D01*
G01X192840Y342500D02*
X196142D01*
G01X181142Y339198D02*
Y342500D01*
G01D02*
Y345802D01*
G01Y342500D02*
X184444D01*
G01X218000Y2885D02*
Y9937D01*
G01D02*
Y16989D01*
G01X210948Y9937D02*
X218000D01*
G01D02*
X225052D01*
G01X205827Y343604D02*
Y348406D01*
G01D02*
Y353208D01*
G01Y348406D02*
X210629D01*
G01X280000Y91398D02*
Y95000D01*
G01D02*
Y98602D01*
G01X276398Y95000D02*
X280000D01*
G01D02*
X283602D01*
G01X294780Y30948D02*
Y35000D01*
G01D02*
Y39052D01*
G01X290728Y35000D02*
X294780D01*
G01D02*
X298832D01*
G01X330000Y86198D02*
Y90000D01*
G01D02*
Y93802D01*
G01X326198Y90000D02*
X330000D01*
G01D02*
X333802D01*
G01X330000Y106198D02*
Y110000D01*
G01D02*
Y113802D01*
G01X326198Y110000D02*
X330000D01*
G01D02*
X333802D01*
G01X330000Y126198D02*
Y130000D01*
G01D02*
Y133802D01*
G01X326198Y130000D02*
X330000D01*
G01D02*
X333802D01*
G01X330000Y116198D02*
Y120000D01*
G01D02*
Y123802D01*
G01X326198Y120000D02*
X330000D01*
G01D02*
X333802D01*
G01X358698Y50000D02*
X362500D01*
G01X352500Y46198D02*
Y50000D01*
G01D02*
Y53802D01*
G01X348698Y50000D02*
X352500D01*
G01D02*
X356302D01*
G01X352500Y176198D02*
Y180000D01*
G01D02*
Y183802D01*
G01X348698Y180000D02*
X352500D01*
G01D02*
X356302D01*
G01X358698D02*
X362500D01*
G01X360198Y288500D02*
X364000D01*
G01X355000Y303948D02*
Y307500D01*
G01D02*
Y311052D01*
G01X351448Y307500D02*
X355000D01*
G01D02*
X358552D01*
G01X350000Y313948D02*
Y317500D01*
G01D02*
Y321052D01*
G01X346448Y317500D02*
X350000D01*
G01D02*
X353552D01*
G01X362500Y46198D02*
Y50000D01*
G01D02*
Y53802D01*
G01Y50000D02*
X366302D01*
G01X377500Y56198D02*
Y60000D01*
G01D02*
Y63802D01*
G01X373698Y60000D02*
X377500D01*
G01D02*
X381302D01*
G01X377500Y96198D02*
Y100000D01*
G01D02*
Y103802D01*
G01X373698Y100000D02*
X377500D01*
G01D02*
X381302D01*
G01X362500Y176198D02*
Y180000D01*
G01D02*
Y183802D01*
G01Y180000D02*
X366302D01*
G01X364000Y284698D02*
Y288500D01*
G01D02*
Y292302D01*
G01Y288500D02*
X367802D01*
G01X387500Y66198D02*
Y70000D01*
G01D02*
Y73802D01*
G01X383698Y70000D02*
X387500D01*
G01D02*
X391302D01*
G01X387500Y86198D02*
Y90000D01*
G01D02*
Y93802D01*
G01X383698Y90000D02*
X387500D01*
G01D02*
X391302D01*
G01X387500Y106198D02*
Y110000D01*
G01D02*
Y113802D01*
G01X383698Y110000D02*
X387500D01*
G01D02*
X391302D01*
G01X387500Y126198D02*
Y130000D01*
G01D02*
Y133802D01*
G01X383698Y130000D02*
X387500D01*
G01D02*
X391302D01*
G01X387500Y146198D02*
Y150000D01*
G01D02*
Y153802D01*
G01X383698Y150000D02*
X387500D01*
G01D02*
X391302D01*
G01X387500Y166198D02*
Y170000D01*
G01D02*
Y173802D01*
G01X383698Y170000D02*
X387500D01*
G01D02*
X391302D01*
G54D31*
X218000Y9937D03*
G54D13*
X23000Y100500D03*
Y221500D03*
X322000Y330500D03*
X383000D03*
G54D22*
X86500Y328000D03*
X91500D03*
X89000Y330500D03*
X91500Y333000D03*
X86500D03*
G54D41*
G01X52105Y7833D02*
X52435Y8233D01*
X52820Y8433D01*
X53260Y8500D01*
X53810Y8367D01*
X54195Y8033D01*
X54305Y7633D01*
X54250Y7233D01*
X54030Y6900D01*
X52930Y6233D01*
X52435Y5767D01*
X52105Y5100D01*
X51995Y4500D01*
X54305D01*
G01X50250Y10750D02*
Y2000D01*
X56500D01*
Y10750D01*
X50250D01*
G54D14*
X10000Y123500D03*
Y198500D03*
G54D23*
X105000Y12236D03*
Y39795D03*
G54D32*
X255130Y24330D03*
X306870D03*
G54D24*
X129700Y8400D03*
X185700D03*
G54D33*
X267220Y35000D03*
X277060D03*
X294780D03*
X284940D03*
G54D15*
X13900Y143000D03*
X8000Y152000D03*
Y146000D03*
Y140000D03*
X13900Y149000D03*
Y161000D03*
X8000Y170000D03*
X13900Y155000D03*
X8000Y164000D03*
Y158000D03*
X13900Y167000D03*
Y179000D03*
Y173000D03*
X8000Y182000D03*
Y176000D03*
G54D25*
X138000Y32000D03*
X132000Y41900D03*
X148000Y32000D03*
X167500D03*
X177400D03*
X183400Y41900D03*
G54D34*
X340000Y80000D03*
X330000D03*
X340000Y90000D03*
X330000D03*
X340000Y100000D03*
Y110000D03*
X330000D03*
X340000Y120000D03*
X330000D03*
X340000Y130000D03*
X330000D03*
X340000Y140000D03*
X330000D03*
X341000Y288500D03*
X331000D03*
X352500Y50000D03*
X362500D03*
X352500Y60000D03*
X362500D03*
X352500Y70000D03*
X362500D03*
Y80000D03*
X352500D03*
X362500Y90000D03*
X352500D03*
X362500Y100000D03*
X352500D03*
X362500Y110000D03*
X352500D03*
X362500Y120000D03*
Y130000D03*
X352500Y120000D03*
Y130000D03*
X362500Y140000D03*
Y150000D03*
X352500Y140000D03*
Y150000D03*
X362500Y160000D03*
Y170000D03*
X352500Y160000D03*
Y170000D03*
X362500Y180000D03*
Y190000D03*
X352500Y180000D03*
Y190000D03*
X362500Y200000D03*
Y210000D03*
X352500Y200000D03*
Y210000D03*
X362500Y220000D03*
Y230000D03*
X352500Y220000D03*
Y230000D03*
X362500Y240000D03*
Y250000D03*
X352500Y240000D03*
Y250000D03*
X362500Y260000D03*
Y270000D03*
X352500Y260000D03*
X364000Y288500D03*
X377500Y50000D03*
Y60000D03*
Y70000D03*
Y80000D03*
Y90000D03*
Y100000D03*
Y110000D03*
Y120000D03*
Y130000D03*
Y140000D03*
Y150000D03*
Y160000D03*
Y170000D03*
Y180000D03*
Y190000D03*
Y200000D03*
Y210000D03*
Y220000D03*
Y230000D03*
Y240000D03*
Y250000D03*
Y260000D03*
X374000Y288500D03*
X387500Y50000D03*
Y60000D03*
Y70000D03*
Y80000D03*
Y90000D03*
Y100000D03*
Y110000D03*
Y120000D03*
Y130000D03*
Y140000D03*
Y150000D03*
Y160000D03*
Y170000D03*
Y180000D03*
Y190000D03*
Y200000D03*
Y210000D03*
Y220000D03*
Y230000D03*
Y240000D03*
Y250000D03*
Y260000D03*
Y270000D03*
G54D16*
X12000Y231500D03*
X17000D03*
X12000Y251500D03*
X17000D03*
X12000Y246500D03*
X17000D03*
X12000Y241500D03*
X17000D03*
X12000Y236500D03*
X17000D03*
X12000Y261500D03*
X17000D03*
X12000Y256500D03*
X17000D03*
Y266500D03*
X12000D03*
X17000Y271500D03*
X12000D03*
X17000Y276500D03*
X12000D03*
X29500Y231500D03*
X34500D03*
X29500Y251500D03*
X34500D03*
X29500Y246500D03*
X34500D03*
X29500Y241500D03*
X34500D03*
X29500Y236500D03*
X34500D03*
X29500Y261500D03*
X34500D03*
X29500Y256500D03*
X34500D03*
Y266500D03*
X29500D03*
X34500Y271500D03*
X29500D03*
X34500Y276500D03*
X29500D03*
G54D26*
X138000Y12300D03*
X177400D03*
G54D35*
X335000Y307500D03*
G54D17*
X15000Y290000D03*
X25000D03*
X77500Y327500D03*
X100000Y140000D03*
X90000Y260000D03*
X100000D03*
X119700Y119700D03*
X110000Y140000D03*
X127300Y118200D03*
X168000Y250000D03*
Y290000D03*
X190000Y72000D03*
Y62000D03*
Y82000D03*
X221000Y85000D03*
X280000D03*
Y95000D03*
X340000Y270000D03*
G54D27*
X146900Y12300D03*
X168500D03*
G54D18*
X35100Y325800D03*
X54000Y338600D03*
G54D36*
X340000Y317500D03*
X345000Y307500D03*
X355000D03*
X350000Y317500D03*
X360000D03*
X365000Y307500D03*
X370000Y317500D03*
G54D37*
X330000Y342500D03*
X375000D03*
G54D28*
X171142Y348406D03*
X176142D03*
X186142D03*
X191142D03*
G54D19*
X60000Y111000D03*
Y107000D03*
X56000Y111000D03*
Y107000D03*
X52000Y111000D03*
Y107000D03*
X60000Y123000D03*
Y115000D03*
Y119000D03*
X56000Y123000D03*
Y115000D03*
Y119000D03*
X52000Y123000D03*
Y115000D03*
Y119000D03*
X60000Y190000D03*
Y195000D03*
Y200000D03*
X64000Y111000D03*
Y107000D03*
X68000Y111000D03*
Y107000D03*
X64000Y123000D03*
Y115000D03*
Y119000D03*
X68000Y123000D03*
Y115000D03*
Y119000D03*
X65000Y190000D03*
X70000D03*
X65000Y195000D03*
Y200000D03*
X70000Y195000D03*
Y200000D03*
X115000Y285000D03*
X120000D03*
X115000Y280000D03*
X120000D03*
X115000Y275000D03*
X120000D03*
X140000Y78000D03*
Y83000D03*
Y88000D03*
Y73000D03*
Y93000D03*
X125000Y285000D03*
Y280000D03*
Y275000D03*
X145000Y73000D03*
X150000D03*
X145000Y78000D03*
X150000D03*
X145000Y83000D03*
X150000D03*
X145000Y88000D03*
X150000D03*
X155000Y73000D03*
X160000D03*
X155000Y78000D03*
X160000D03*
X155000Y83000D03*
X160000D03*
X155000Y88000D03*
X160000D03*
X150000Y93000D03*
X145000D03*
X160000D03*
X155000D03*
X220000Y255000D03*
Y260000D03*
Y265000D03*
X225000Y255000D03*
Y260000D03*
Y265000D03*
X230000Y255000D03*
Y260000D03*
Y265000D03*
X295000Y275000D03*
Y280000D03*
Y285000D03*
X300000Y275000D03*
Y280000D03*
Y285000D03*
X320000Y50000D03*
Y45000D03*
Y55000D03*
X305000Y275000D03*
Y280000D03*
Y285000D03*
X330000Y50000D03*
Y45000D03*
X325000Y50000D03*
Y45000D03*
X330000Y55000D03*
X325000D03*
G54D38*
X352500Y270000D03*
X377500D03*
G54D29*
X166142Y342500D03*
X181142D03*
X196142D03*
G54D39*
G01X6000Y-60000D02*
Y-52000D01*
X8400D01*
X9200Y-52400D01*
X9800Y-53333D01*
X10000Y-54400D01*
X9800Y-55467D01*
X9300Y-56267D01*
X8400Y-56667D01*
X6000D01*
G01X16000Y-52000D02*
Y-60000D01*
G01X13700Y-52000D02*
X18300D01*
G01X22800D02*
X25200D01*
G01X24000D02*
Y-60000D01*
G01X22800D02*
X25200D01*
G01X46100Y-53333D02*
X46700Y-52533D01*
X47400Y-52133D01*
X48200Y-52000D01*
X49200Y-52267D01*
X49900Y-52933D01*
X50100Y-53733D01*
X50000Y-54534D01*
X49600Y-55200D01*
X47600Y-56533D01*
X46700Y-57467D01*
X46100Y-58800D01*
X45900Y-60000D01*
X50100D01*
G01X54200Y-60267D02*
X57800Y-52000D01*
G01X65200Y-60000D02*
Y-52000D01*
X61500Y-57733D01*
X66500D01*
G01X70200Y-60267D02*
X73800Y-52000D01*
G01X78100Y-53333D02*
X78700Y-52533D01*
X79400Y-52133D01*
X80200Y-52000D01*
X81200Y-52267D01*
X81900Y-52933D01*
X82100Y-53733D01*
X82000Y-54534D01*
X81600Y-55200D01*
X79600Y-56533D01*
X78700Y-57467D01*
X78100Y-58800D01*
X77900Y-60000D01*
X82100D01*
G01X88000Y-52000D02*
X87200Y-52267D01*
X86600Y-52933D01*
X86200Y-53733D01*
X85900Y-54800D01*
X85800Y-56000D01*
X85900Y-57200D01*
X86200Y-58267D01*
X86600Y-59067D01*
X87200Y-59733D01*
X88000Y-60000D01*
X88800Y-59733D01*
X89400Y-59067D01*
X89800Y-58267D01*
X90100Y-57200D01*
X90200Y-56000D01*
X90100Y-54800D01*
X89800Y-53733D01*
X89400Y-52933D01*
X88800Y-52267D01*
X88000Y-52000D01*
G01X96000Y-60000D02*
Y-52000D01*
X94800Y-53600D01*
G01Y-60000D02*
X97200D01*
G01X101800Y-58800D02*
X102400Y-59467D01*
X103100Y-59867D01*
X104000Y-60000D01*
X104900Y-59733D01*
X105600Y-59200D01*
X106100Y-58267D01*
X106200Y-57200D01*
X106000Y-56133D01*
X105500Y-55467D01*
X104800Y-54933D01*
X104100Y-54800D01*
X103400Y-54933D01*
X102500Y-55467D01*
X102800Y-52000D01*
X105500D01*
G01X6000Y-22000D02*
Y-30000D01*
X10000D01*
G01X13500D02*
X16000Y-22000D01*
X18500Y-30000D01*
G01X17600Y-27200D02*
X14400D01*
G01X24000Y-30000D02*
Y-26400D01*
X22000Y-22000D01*
G01X26000D02*
X24000Y-26400D01*
G01X34000Y-30000D02*
X30000D01*
Y-22000D01*
X34000D01*
G01X32400Y-25867D02*
X30000D01*
G01X38000Y-30000D02*
Y-22000D01*
X40500D01*
X41300Y-22400D01*
X41800Y-22933D01*
X42000Y-24000D01*
X41800Y-25067D01*
X41200Y-25733D01*
X40500Y-26133D01*
X38000D01*
G01X40500D02*
X42000Y-30000D01*
G01X54100Y-23333D02*
X54700Y-22533D01*
X55400Y-22133D01*
X56200Y-22000D01*
X57200Y-22267D01*
X57900Y-22933D01*
X58100Y-23733D01*
X58000Y-24534D01*
X57600Y-25200D01*
X55600Y-26533D01*
X54700Y-27467D01*
X54100Y-28800D01*
X53900Y-30000D01*
X58100D01*
G01X71500Y-32667D02*
X70500Y-31333D01*
X70000Y-30000D01*
Y-24667D01*
X70500Y-23333D01*
X71500Y-22000D01*
G01X80600Y-26000D02*
X82600D01*
Y-28400D01*
X82000Y-29200D01*
X81300Y-29733D01*
X80300Y-30000D01*
X79300Y-29733D01*
X78600Y-29200D01*
X78000Y-28400D01*
X77600Y-27467D01*
X77400Y-26400D01*
Y-25467D01*
X77600Y-24667D01*
X78000Y-23733D01*
X78600Y-22933D01*
X79200Y-22400D01*
X80000Y-22000D01*
X80700D01*
X81500Y-22267D01*
X82100Y-22800D01*
G01X86000Y-30000D02*
Y-22000D01*
X88500D01*
X89300Y-22400D01*
X89800Y-22933D01*
X90000Y-24000D01*
X89800Y-25067D01*
X89200Y-25733D01*
X88500Y-26133D01*
X86000D01*
G01X88500D02*
X90000Y-30000D01*
G01X96000D02*
X95200Y-29867D01*
X94500Y-29333D01*
X93900Y-28533D01*
X93500Y-27600D01*
X93300Y-26533D01*
Y-25467D01*
X93500Y-24400D01*
X93900Y-23467D01*
X94500Y-22667D01*
X95200Y-22133D01*
X96000Y-22000D01*
X96800Y-22133D01*
X97500Y-22667D01*
X98100Y-23467D01*
X98500Y-24400D01*
X98700Y-25467D01*
Y-26533D01*
X98500Y-27600D01*
X98100Y-28533D01*
X97500Y-29333D01*
X96800Y-29867D01*
X96000Y-30000D01*
G01X101800Y-22000D02*
Y-27733D01*
X102200Y-28934D01*
X103000Y-29733D01*
X104000Y-30000D01*
X105000Y-29733D01*
X105800Y-28934D01*
X106200Y-27733D01*
Y-22000D01*
G01X109700Y-30000D02*
Y-22000D01*
X114300Y-30000D01*
Y-22000D01*
G01X117800Y-30000D02*
Y-22000D01*
X119800D01*
X120600Y-22400D01*
X121200Y-22933D01*
X121700Y-23733D01*
X122100Y-24667D01*
X122200Y-26000D01*
X122100Y-27333D01*
X121700Y-28267D01*
X121200Y-29067D01*
X120600Y-29600D01*
X119800Y-30000D01*
X117800D01*
G01X134000D02*
Y-22000D01*
X136400D01*
X137200Y-22400D01*
X137800Y-23333D01*
X138000Y-24400D01*
X137800Y-25467D01*
X137300Y-26267D01*
X136400Y-26667D01*
X134000D01*
G01X142000Y-22000D02*
Y-30000D01*
X146000D01*
G01X149500D02*
X152000Y-22000D01*
X154500Y-30000D01*
G01X153600Y-27200D02*
X150400D01*
G01X157700Y-30000D02*
Y-22000D01*
X162300Y-30000D01*
Y-22000D01*
G01X170000Y-30000D02*
X166000D01*
Y-22000D01*
X170000D01*
G01X168400Y-25867D02*
X166000D01*
G01X176500Y-32667D02*
X177500Y-31333D01*
X178000Y-30000D01*
Y-24667D01*
X177500Y-23333D01*
X176500Y-22000D01*
G01X8000Y-45000D02*
X7200Y-44867D01*
X6500Y-44333D01*
X5900Y-43533D01*
X5500Y-42600D01*
X5300Y-41533D01*
Y-40467D01*
X5500Y-39400D01*
X5900Y-38467D01*
X6500Y-37667D01*
X7200Y-37133D01*
X8000Y-37000D01*
X8800Y-37133D01*
X9500Y-37667D01*
X10100Y-38467D01*
X10500Y-39400D01*
X10700Y-40467D01*
Y-41533D01*
X10500Y-42600D01*
X10100Y-43533D01*
X9500Y-44333D01*
X8800Y-44867D01*
X8000Y-45000D01*
G01X13400D02*
Y-37000D01*
X16000Y-43667D01*
X18600Y-37000D01*
Y-45000D01*
G01X21500D02*
X24000Y-37000D01*
X26500Y-45000D01*
G01X25600Y-42200D02*
X22400D01*
G01X30000Y-45000D02*
Y-37000D01*
X32400D01*
X33200Y-37400D01*
X33800Y-38333D01*
X34000Y-39400D01*
X33800Y-40467D01*
X33300Y-41267D01*
X32400Y-41667D01*
X30000D01*
G01X38700Y-42333D02*
X41300D01*
G01X46000Y-37000D02*
Y-45000D01*
X50000D01*
G01X56000D02*
Y-37000D01*
X54800Y-38600D01*
G01Y-45000D02*
X57200D01*
G01X61800Y-43400D02*
X62400Y-44333D01*
X63200Y-44867D01*
X64100Y-45000D01*
X64900Y-44867D01*
X65700Y-44200D01*
X66200Y-43400D01*
X66300Y-42600D01*
X66100Y-41667D01*
X65400Y-41000D01*
X64700Y-40733D01*
X63800D01*
G01X64700D02*
X65300Y-40333D01*
X65800Y-39667D01*
X66000Y-38867D01*
X65800Y-38067D01*
X65300Y-37400D01*
X64400Y-37000D01*
X63500Y-37133D01*
X62600Y-37667D01*
G01X72000Y-45000D02*
X72700Y-44867D01*
X73500Y-44467D01*
X74000Y-43800D01*
X74200Y-42867D01*
X74000Y-41934D01*
X73400Y-41133D01*
X72500Y-40733D01*
X71500D01*
X70900Y-40467D01*
X70400Y-39800D01*
X70200Y-38867D01*
X70500Y-37933D01*
X71200Y-37267D01*
X72000Y-37000D01*
X72800Y-37267D01*
X73500Y-37933D01*
X73800Y-38867D01*
X73600Y-39800D01*
X73100Y-40467D01*
X72500Y-40733D01*
X71500D01*
X70600Y-41133D01*
X70000Y-41934D01*
X69800Y-42867D01*
X70000Y-43800D01*
X70500Y-44467D01*
X71300Y-44867D01*
X72000Y-45000D01*
G01X78200Y-45267D02*
X81800Y-37000D01*
G01X90200Y-37667D02*
X89600Y-37267D01*
X88900Y-37000D01*
X88100D01*
X87200Y-37400D01*
X86500Y-38067D01*
X86000Y-38867D01*
X85600Y-40200D01*
X85500Y-41400D01*
X85700Y-42600D01*
X86000Y-43400D01*
X86600Y-44200D01*
X87300Y-44733D01*
X88000Y-45000D01*
X88700D01*
X89400Y-44733D01*
X90000Y-44333D01*
X90500Y-43800D01*
G01X94100Y-41667D02*
X94800Y-40733D01*
X95400Y-40200D01*
X96200Y-39933D01*
X96900Y-40200D01*
X97400Y-40733D01*
X97800Y-41533D01*
X97900Y-42467D01*
X97800Y-43267D01*
X97400Y-44067D01*
X96800Y-44733D01*
X96100Y-45000D01*
X95300Y-44733D01*
X94600Y-43934D01*
X94200Y-42733D01*
X94100Y-41400D01*
X94300Y-39667D01*
X94600Y-38733D01*
X95100Y-37800D01*
X95800Y-37133D01*
X96500Y-37000D01*
X97200Y-37267D01*
X97700Y-37933D01*
G01X103800Y-45000D02*
X104000Y-43267D01*
X104300Y-41800D01*
X104700Y-40467D01*
X105200Y-39000D01*
X106000Y-37000D01*
X102000D01*
G01X113200Y-45000D02*
Y-37000D01*
X109500Y-42733D01*
X114500D01*
G01X120000Y-45000D02*
X120700Y-44867D01*
X121500Y-44467D01*
X122000Y-43800D01*
X122200Y-42867D01*
X122000Y-41934D01*
X121400Y-41133D01*
X120500Y-40733D01*
X119500D01*
X118900Y-40467D01*
X118400Y-39800D01*
X118200Y-38867D01*
X118500Y-37933D01*
X119200Y-37267D01*
X120000Y-37000D01*
X120800Y-37267D01*
X121500Y-37933D01*
X121800Y-38867D01*
X121600Y-39800D01*
X121100Y-40467D01*
X120500Y-40733D01*
X119500D01*
X118600Y-41133D01*
X118000Y-41934D01*
X117800Y-42867D01*
X118000Y-43800D01*
X118500Y-44467D01*
X119300Y-44867D01*
X120000Y-45000D01*
G01X134000Y-37000D02*
Y-45000D01*
X138000D01*
G01X146200Y-37667D02*
X145600Y-37267D01*
X144900Y-37000D01*
X144100D01*
X143200Y-37400D01*
X142500Y-38067D01*
X142000Y-38867D01*
X141600Y-40200D01*
X141500Y-41400D01*
X141700Y-42600D01*
X142000Y-43400D01*
X142600Y-44200D01*
X143300Y-44733D01*
X144000Y-45000D01*
X144700D01*
X145400Y-44733D01*
X146000Y-44333D01*
X146500Y-43800D01*
G01X149800Y-45000D02*
Y-37000D01*
X151800D01*
X152600Y-37400D01*
X153200Y-37933D01*
X153700Y-38733D01*
X154100Y-39667D01*
X154200Y-41000D01*
X154100Y-42333D01*
X153700Y-43267D01*
X153200Y-44067D01*
X152600Y-44600D01*
X151800Y-45000D01*
X149800D01*
G01X157800D02*
Y-37000D01*
G01X161600D02*
X157800Y-41934D01*
G01X162200Y-45000D02*
X159500Y-39667D01*
G01X166700Y-42333D02*
X169300D01*
G01X174000Y-45000D02*
Y-37000D01*
X176400D01*
X177200Y-37400D01*
X177800Y-38333D01*
X178000Y-39400D01*
X177800Y-40467D01*
X177300Y-41267D01*
X176400Y-41667D01*
X174000D01*
G01X186200Y-37667D02*
X185600Y-37267D01*
X184900Y-37000D01*
X184100D01*
X183200Y-37400D01*
X182500Y-38067D01*
X182000Y-38867D01*
X181600Y-40200D01*
X181500Y-41400D01*
X181700Y-42600D01*
X182000Y-43400D01*
X182600Y-44200D01*
X183300Y-44733D01*
X184000Y-45000D01*
X184700D01*
X185400Y-44733D01*
X186000Y-44333D01*
X186500Y-43800D01*
G01X192800Y-40733D02*
X193200Y-40333D01*
X193500Y-39667D01*
X193700Y-38733D01*
X193500Y-37933D01*
X193100Y-37400D01*
X192400Y-37000D01*
X189700D01*
Y-45000D01*
X193000D01*
X193700Y-44467D01*
X194100Y-43667D01*
X194300Y-42733D01*
X194100Y-41800D01*
X193500Y-41000D01*
X192800Y-40733D01*
X189700D01*
G01X198700Y-42333D02*
X201300D01*
G01X208000Y-37000D02*
X207200Y-37267D01*
X206600Y-37933D01*
X206200Y-38733D01*
X205900Y-39800D01*
X205800Y-41000D01*
X205900Y-42200D01*
X206200Y-43267D01*
X206600Y-44067D01*
X207200Y-44733D01*
X208000Y-45000D01*
X208800Y-44733D01*
X209400Y-44067D01*
X209800Y-43267D01*
X210100Y-42200D01*
X210200Y-41000D01*
X210100Y-39800D01*
X209800Y-38733D01*
X209400Y-37933D01*
X208800Y-37267D01*
X208000Y-37000D01*
G01X216000D02*
X215200Y-37267D01*
X214600Y-37933D01*
X214200Y-38733D01*
X213900Y-39800D01*
X213800Y-41000D01*
X213900Y-42200D01*
X214200Y-43267D01*
X214600Y-44067D01*
X215200Y-44733D01*
X216000Y-45000D01*
X216800Y-44733D01*
X217400Y-44067D01*
X217800Y-43267D01*
X218100Y-42200D01*
X218200Y-41000D01*
X218100Y-39800D01*
X217800Y-38733D01*
X217400Y-37933D01*
X216800Y-37267D01*
X216000Y-37000D01*
G01X225200Y-45000D02*
Y-37000D01*
X221500Y-42733D01*
X226500D01*
M02*
