G04 ================== begin FILE IDENTIFICATION RECORD ==================*
G04 Layout Name:  OMAP-L138_C6748_LCDK_PCB-004_r4a.brd*
G04 Film Name:    OMAP_sps*
G04 File Format:  Gerber RS274X*
G04 File Origin:  Cadence Allegro 16.6-S041*
G04 Origin Date:  Thu Feb 26 11:59:41 2015*
G04 *
G04 Layer:  BOARD GEOMETRY/TOOLING_CORNERS*
G04 Layer:  BOARD GEOMETRY/PASTEMASK_BOTTOM*
G04 Layer:  PIN/PASTEMASK_BOTTOM*
G04 *
G04 Offset:    (0.00 0.00)*
G04 Mirror:    No*
G04 Mode:      Positive*
G04 Rotation:  0*
G04 FullContactRelief:  No*
G04 UndefLineWidth:     6.00*
G04 ================== end FILE IDENTIFICATION RECORD ====================*
%FSLAX25Y25*MOIN*%
%IR0*IPPOS*OFA0.00000B0.00000*MIA0B0*SFA1.00000B1.00000*%
%ADD30R,.105X.063*%
%ADD10C,.04*%
%ADD14R,.04X.032*%
%ADD11R,.02X.025*%
%ADD12R,.025X.02*%
%ADD25R,.02X.035*%
%ADD15R,.06X.05*%
%ADD13R,.022X.024*%
%ADD23R,.04X.035*%
%ADD17R,.05X.06*%
%ADD22R,.032X.035*%
%ADD21R,.025X.05*%
%ADD28R,.044X.06*%
%ADD16R,.06X.063*%
%ADD29R,.08X.045*%
%ADD27R,.036X.018*%
%ADD24R,.047X.043*%
%ADD19R,.075X.062*%
%ADD18R,.043X.069*%
%ADD26R,.035X.079*%
%ADD20R,.01398X.06098*%
%ADD31C,.012*%
G75*
%LPD*%
G75*
G36*
G01X-5000Y-15000D02*
Y-5000D01*
X-15000D01*
Y0D01*
X0D01*
Y-15000D01*
X-5000D01*
G37*
G36*
G01X-15000Y365000D02*
X-5000D01*
Y375000D01*
X0D01*
Y360000D01*
X-15000D01*
Y365000D01*
G37*
G36*
G01X415000Y-5000D02*
X405000D01*
Y-15000D01*
X400000D01*
Y0D01*
X415000D01*
Y-5000D01*
G37*
G36*
G01X405000Y375000D02*
Y365000D01*
X415000D01*
Y360000D01*
X400000D01*
Y375000D01*
X405000D01*
G37*
G54D10*
X15000Y15000D03*
Y345000D03*
X295000D03*
G54D20*
X85161Y322154D03*
X87720D03*
X90280D03*
X92839D03*
Y338846D03*
X90280D03*
X87720D03*
X85161D03*
G54D11*
X18000Y84000D03*
Y80000D03*
X24000Y84000D03*
Y80000D03*
X35000Y158000D03*
Y162000D03*
X40000D03*
Y158000D03*
X25000Y298000D03*
Y302000D03*
Y348000D03*
X33000D03*
X25000Y352000D03*
X33000D03*
X53000Y85000D03*
Y89000D03*
X57000Y85000D03*
Y89000D03*
X60000Y142000D03*
Y138000D03*
X50000Y158000D03*
Y162000D03*
X60000D03*
Y158000D03*
X55000Y162000D03*
Y158000D03*
X45000Y162000D03*
Y158000D03*
Y178000D03*
Y182000D03*
X55000D03*
Y178000D03*
X50000D03*
Y182000D03*
X60000D03*
Y178000D03*
X58000Y208000D03*
X47000D03*
X53000D03*
X58000Y212000D03*
X47000D03*
X53000D03*
X51000Y266000D03*
Y262000D03*
Y281000D03*
Y277000D03*
X61000Y89000D03*
Y85000D03*
X74000Y107000D03*
Y111000D03*
X80000Y162000D03*
Y158000D03*
X65000D03*
Y162000D03*
X75000D03*
Y158000D03*
X70000Y162000D03*
Y158000D03*
X75000Y182000D03*
Y178000D03*
X65000D03*
Y182000D03*
X70000Y178000D03*
Y182000D03*
X77000Y208000D03*
X72000D03*
X77000Y212000D03*
X72000D03*
X68000Y262000D03*
Y266000D03*
X76000Y262000D03*
Y266000D03*
X68000Y277000D03*
Y281000D03*
X76000Y277000D03*
Y281000D03*
X96000Y26000D03*
Y30000D03*
X90000Y26000D03*
Y30000D03*
X96000Y42000D03*
Y38000D03*
X90000Y42000D03*
Y38000D03*
X85000Y162000D03*
Y158000D03*
X90000Y178000D03*
Y182000D03*
X82000Y208000D03*
Y193000D03*
Y197000D03*
Y212000D03*
X110000Y78000D03*
Y74000D03*
Y84000D03*
Y88000D03*
X105000Y78000D03*
Y74000D03*
X110000Y97000D03*
Y93000D03*
X111000Y256000D03*
Y260000D03*
X115000Y256000D03*
Y260000D03*
Y348000D03*
X120000D03*
X115000Y352000D03*
X120000D03*
X132600Y21700D03*
Y25700D03*
X133000Y59000D03*
Y55000D03*
X129000Y59000D03*
Y55000D03*
X125000D03*
Y59000D03*
Y69000D03*
X137000Y55000D03*
Y59000D03*
X129000Y69000D03*
X125000Y73000D03*
Y87000D03*
X129000Y73000D03*
X135000Y85000D03*
Y81000D03*
X125000Y81250D03*
Y77250D03*
Y96000D03*
Y100000D03*
Y91000D03*
X140000Y107000D03*
X125000D03*
X140000Y111000D03*
X125000D03*
X140000Y209500D03*
Y205500D03*
Y235500D03*
Y239500D03*
X123000Y260000D03*
Y256000D03*
X129000Y281000D03*
Y277000D03*
X137000Y290000D03*
Y286000D03*
X133000D03*
Y290000D03*
X129000D03*
Y286000D03*
X125000Y348000D03*
Y352000D03*
X141000Y38000D03*
Y42000D03*
X145000Y38000D03*
Y42000D03*
X157000D03*
Y38000D03*
X149000D03*
Y42000D03*
X153000D03*
Y38000D03*
X157000Y55000D03*
Y59000D03*
X149000Y55000D03*
Y59000D03*
X141000D03*
Y55000D03*
X145000Y59000D03*
Y55000D03*
X153000D03*
Y59000D03*
X155000Y107000D03*
Y111000D03*
X160000Y209500D03*
Y205500D03*
X152000Y220500D03*
Y224500D03*
X160000Y220500D03*
Y224500D03*
X156000Y220500D03*
Y224500D03*
X148000Y220500D03*
Y224500D03*
X160000Y235500D03*
Y239500D03*
X141000Y290000D03*
Y286000D03*
X179300Y21200D03*
Y25200D03*
X165000Y38000D03*
Y42000D03*
X169000Y38000D03*
Y42000D03*
X161000Y38000D03*
Y42000D03*
X177000Y69000D03*
X165000Y59000D03*
Y55000D03*
X161000Y59000D03*
Y55000D03*
X169000Y85000D03*
Y81000D03*
X173000Y85000D03*
Y81000D03*
X177000Y73000D03*
X165000Y85000D03*
Y81000D03*
X177000D03*
Y85000D03*
X173000Y96000D03*
Y100000D03*
X169000D03*
Y96000D03*
Y107000D03*
X177000Y100000D03*
Y96000D03*
X169000Y111000D03*
X176000Y220500D03*
Y224500D03*
X168000Y220500D03*
Y224500D03*
X164000Y220500D03*
Y224500D03*
X172000Y220500D03*
Y224500D03*
X200000Y61000D03*
Y57000D03*
X190000Y97000D03*
Y93000D03*
X195000D03*
Y97000D03*
X200000Y224500D03*
Y220500D03*
Y242000D03*
Y238000D03*
X195000Y259000D03*
Y263000D03*
X190000Y267000D03*
Y271000D03*
X203750Y33000D03*
Y37000D03*
X204000Y87000D03*
Y83000D03*
X209000Y87000D03*
Y83000D03*
X214000D03*
Y87000D03*
X213225Y110200D03*
Y114200D03*
X220000Y220500D03*
Y224500D03*
X210000D03*
Y220500D03*
X215000Y224500D03*
Y220500D03*
X220000Y242000D03*
Y238000D03*
X210000Y242000D03*
Y238000D03*
X215000Y263000D03*
Y267000D03*
Y253000D03*
Y257000D03*
X221000Y61000D03*
Y57000D03*
X237000Y69000D03*
Y57000D03*
Y61000D03*
Y73000D03*
X225000Y93000D03*
Y97000D03*
X236850Y110200D03*
X227400D03*
X222675D03*
X232125D03*
X236850Y114200D03*
X227400D03*
X222675D03*
X232125D03*
X225827Y189800D03*
Y185800D03*
X235275Y189800D03*
Y185800D03*
X225000Y220500D03*
Y224500D03*
X230000D03*
Y220500D03*
X235000Y238000D03*
Y242000D03*
X225000Y238000D03*
Y242000D03*
X230000Y238000D03*
Y242000D03*
X240000D03*
Y238000D03*
X235000Y257000D03*
Y253000D03*
Y263000D03*
Y267000D03*
X257000Y69000D03*
Y61000D03*
Y57000D03*
X249000Y69000D03*
Y57000D03*
Y61000D03*
X245000Y69000D03*
Y57000D03*
Y61000D03*
X241000Y69000D03*
Y57000D03*
Y61000D03*
X257000Y73000D03*
X249000D03*
X245000D03*
X241000D03*
X255750Y110200D03*
X247000Y93000D03*
Y97000D03*
X251025Y110200D03*
X241600D03*
X255750Y114200D03*
X251025D03*
X241600D03*
X241575Y141700D03*
Y145700D03*
Y132250D03*
Y136250D03*
Y155150D03*
Y151150D03*
Y160600D03*
Y164600D03*
Y170050D03*
X251025Y189800D03*
Y185800D03*
X255750Y189800D03*
Y185800D03*
X246300Y189800D03*
Y185800D03*
X241575Y189800D03*
Y185800D03*
Y174050D03*
X260000Y220500D03*
Y224500D03*
X255000D03*
Y220500D03*
X250000Y242000D03*
Y238000D03*
X260000Y242000D03*
Y238000D03*
X242000Y287000D03*
Y283000D03*
X261000Y69000D03*
Y57000D03*
Y61000D03*
X265000Y57000D03*
Y61000D03*
X261000Y73000D03*
X273000Y93000D03*
Y97000D03*
X268000Y93000D03*
Y97000D03*
X262000Y93000D03*
Y97000D03*
X260475Y110200D03*
Y114200D03*
Y189800D03*
Y185800D03*
X265000Y220500D03*
Y224500D03*
X270000D03*
Y220500D03*
X280000Y248000D03*
X270000Y242000D03*
Y238000D03*
X280000Y252000D03*
Y258000D03*
Y262000D03*
Y287000D03*
Y283000D03*
Y273000D03*
Y277000D03*
X299000Y167000D03*
Y163000D03*
X285000Y248000D03*
X290000D03*
X285000Y252000D03*
X290000D03*
Y258000D03*
Y262000D03*
X285000Y258000D03*
Y262000D03*
X300000Y258000D03*
Y262000D03*
X295000Y258000D03*
Y262000D03*
X290000Y287500D03*
Y283500D03*
Y273000D03*
Y277000D03*
X285000Y302000D03*
Y298000D03*
X300000D03*
Y302000D03*
X295000Y298000D03*
Y302000D03*
X315000Y53000D03*
Y57000D03*
Y167000D03*
Y163000D03*
X310000Y167000D03*
Y163000D03*
X304000D03*
Y167000D03*
X312450Y228325D03*
X305000Y248000D03*
X310000D03*
X312450Y232325D03*
X305000Y252000D03*
X310000D03*
X315000Y262000D03*
Y258000D03*
X310000Y262000D03*
Y258000D03*
X305000D03*
Y262000D03*
X320000Y258000D03*
Y262000D03*
X310000Y302000D03*
Y298000D03*
X305000Y302000D03*
Y298000D03*
X335000Y25000D03*
Y29000D03*
Y48000D03*
Y52000D03*
Y163000D03*
Y167000D03*
X340000Y163000D03*
Y167000D03*
X324000Y163000D03*
Y167000D03*
X329000D03*
Y163000D03*
X335000Y329500D03*
Y325500D03*
X340000Y329500D03*
Y325500D03*
X348000Y289000D03*
Y285000D03*
X350000Y329500D03*
Y325500D03*
X355000Y329500D03*
Y325500D03*
X377000Y23000D03*
Y27000D03*
X370000Y329500D03*
Y325500D03*
X365000Y329500D03*
Y325500D03*
X383000Y23000D03*
Y27000D03*
X381000Y289000D03*
Y285000D03*
G54D21*
X158240Y325579D03*
X150760D03*
Y335421D03*
X154500D03*
X158240D03*
X206260Y69921D03*
X210000D03*
X213740D03*
Y60079D03*
X206260D03*
G54D12*
X33000Y18000D03*
X29000D03*
Y28000D03*
X33000D03*
Y33000D03*
X29000D03*
X33000Y38000D03*
X29000D03*
X33000Y43000D03*
X29000D03*
X57000Y101000D03*
X53000D03*
X56000Y249000D03*
X52000D03*
Y239000D03*
X56000D03*
X71000Y28000D03*
X67000D03*
Y23000D03*
X71000D03*
X67000Y18000D03*
X71000D03*
X67000Y33000D03*
X71000D03*
X67000Y43000D03*
X71000D03*
X67000Y38000D03*
X71000D03*
X64000Y101000D03*
X68000D03*
Y249000D03*
X72000D03*
Y239000D03*
X68000D03*
X92000Y128000D03*
X88000D03*
X98000Y180000D03*
Y190000D03*
Y210000D03*
Y200000D03*
X83000Y239000D03*
X87000D03*
X83000Y249000D03*
X87000D03*
X98000D03*
Y239000D03*
X102000Y180000D03*
Y190000D03*
Y210000D03*
Y200000D03*
Y249000D03*
Y239000D03*
X126175Y132675D03*
X130175D03*
X126175Y138975D03*
X130175D03*
X126175Y145275D03*
X130175D03*
X126175Y165750D03*
X130175D03*
X126175Y151575D03*
X130175D03*
X126175Y161025D03*
X130175D03*
X126175Y170475D03*
X130175D03*
X150650Y138975D03*
X146650D03*
Y161025D03*
X150650D03*
Y151575D03*
X146650D03*
X150650Y165750D03*
X146650D03*
Y156300D03*
X150650D03*
X146650Y187800D03*
X150650D03*
X171125Y132675D03*
X167125D03*
X171125Y138975D03*
X167125D03*
X171125Y145275D03*
X167125D03*
X171125Y151575D03*
X167125D03*
X171125Y161025D03*
X167125D03*
X171125Y179925D03*
X167125D03*
X198000Y110000D03*
Y114000D03*
Y118000D03*
Y126000D03*
Y122000D03*
Y130000D03*
Y142000D03*
Y134000D03*
Y150000D03*
Y146000D03*
Y138000D03*
Y158000D03*
Y154000D03*
Y164000D03*
Y168000D03*
X187000Y164000D03*
X191000D03*
X187000Y156000D03*
X191000D03*
X187000Y168000D03*
X191000D03*
X198000Y180000D03*
Y172000D03*
Y188000D03*
Y176000D03*
Y184000D03*
Y192000D03*
X202000Y110000D03*
Y114000D03*
Y118000D03*
Y126000D03*
Y122000D03*
Y130000D03*
Y142000D03*
Y134000D03*
Y150000D03*
Y146000D03*
Y138000D03*
Y158000D03*
Y154000D03*
Y164000D03*
Y168000D03*
Y180000D03*
Y172000D03*
Y188000D03*
Y176000D03*
Y184000D03*
Y192000D03*
X222250Y135825D03*
X226250D03*
X235700D03*
X231700D03*
Y142125D03*
X235700D03*
X222250Y148425D03*
X226250D03*
X235700D03*
X231700D03*
X222250Y142125D03*
X226250D03*
X235700Y161025D03*
X231700D03*
X235700Y167325D03*
X231700D03*
X222250D03*
X226250D03*
X235700Y154725D03*
X231700D03*
X222250D03*
X226250D03*
X222250Y161025D03*
X226250D03*
X231700Y173625D03*
X235700D03*
X227000Y250000D03*
X223000D03*
Y270000D03*
X227000D03*
X247450Y148425D03*
X251450D03*
X247450Y135825D03*
X251450D03*
X247450Y142125D03*
X251450D03*
X247450Y154725D03*
X251450D03*
Y167325D03*
X247450D03*
Y161025D03*
X251450D03*
X279800Y120075D03*
X275800D03*
Y124800D03*
X279800D03*
X275800Y129525D03*
X279800D03*
Y148425D03*
X275800D03*
X279800Y143700D03*
X275800D03*
Y134250D03*
X279800D03*
X275800Y157875D03*
X279800D03*
Y179925D03*
X275800D03*
X279800Y175200D03*
X275800D03*
X296275Y225600D03*
X300275D03*
X298000Y270000D03*
X318000Y40000D03*
X318325Y203550D03*
X306575D03*
X302575D03*
X302000Y270000D03*
X322000Y40000D03*
X328000D03*
X332000D03*
X322325Y203550D03*
X328625Y213000D03*
X324625D03*
X328625Y222450D03*
X324625D03*
G54D30*
X352505Y342000D03*
Y353000D03*
G54D31*
G01X6000Y-60000D02*
Y-52000D01*
X8400D01*
X9200Y-52400D01*
X9800Y-53333D01*
X10000Y-54400D01*
X9800Y-55467D01*
X9300Y-56267D01*
X8400Y-56667D01*
X6000D01*
G01X16000Y-52000D02*
Y-60000D01*
G01X13700Y-52000D02*
X18300D01*
G01X22800D02*
X25200D01*
G01X24000D02*
Y-60000D01*
G01X22800D02*
X25200D01*
G01X46100Y-53333D02*
X46700Y-52533D01*
X47400Y-52133D01*
X48200Y-52000D01*
X49200Y-52267D01*
X49900Y-52933D01*
X50100Y-53733D01*
X50000Y-54534D01*
X49600Y-55200D01*
X47600Y-56533D01*
X46700Y-57467D01*
X46100Y-58800D01*
X45900Y-60000D01*
X50100D01*
G01X54200Y-60267D02*
X57800Y-52000D01*
G01X65200Y-60000D02*
Y-52000D01*
X61500Y-57733D01*
X66500D01*
G01X70200Y-60267D02*
X73800Y-52000D01*
G01X78100Y-53333D02*
X78700Y-52533D01*
X79400Y-52133D01*
X80200Y-52000D01*
X81200Y-52267D01*
X81900Y-52933D01*
X82100Y-53733D01*
X82000Y-54534D01*
X81600Y-55200D01*
X79600Y-56533D01*
X78700Y-57467D01*
X78100Y-58800D01*
X77900Y-60000D01*
X82100D01*
G01X88000Y-52000D02*
X87200Y-52267D01*
X86600Y-52933D01*
X86200Y-53733D01*
X85900Y-54800D01*
X85800Y-56000D01*
X85900Y-57200D01*
X86200Y-58267D01*
X86600Y-59067D01*
X87200Y-59733D01*
X88000Y-60000D01*
X88800Y-59733D01*
X89400Y-59067D01*
X89800Y-58267D01*
X90100Y-57200D01*
X90200Y-56000D01*
X90100Y-54800D01*
X89800Y-53733D01*
X89400Y-52933D01*
X88800Y-52267D01*
X88000Y-52000D01*
G01X96000Y-60000D02*
Y-52000D01*
X94800Y-53600D01*
G01Y-60000D02*
X97200D01*
G01X101800Y-58800D02*
X102400Y-59467D01*
X103100Y-59867D01*
X104000Y-60000D01*
X104900Y-59733D01*
X105600Y-59200D01*
X106100Y-58267D01*
X106200Y-57200D01*
X106000Y-56133D01*
X105500Y-55467D01*
X104800Y-54933D01*
X104100Y-54800D01*
X103400Y-54933D01*
X102500Y-55467D01*
X102800Y-52000D01*
X105500D01*
G01X5900Y-28934D02*
X6700Y-29600D01*
X7600Y-30000D01*
X8400D01*
X9200Y-29600D01*
X9800Y-28934D01*
X10100Y-28000D01*
X9900Y-27067D01*
X9400Y-26267D01*
X8500Y-25733D01*
X7300Y-25467D01*
X6600Y-24933D01*
X6300Y-24000D01*
X6500Y-23067D01*
X7000Y-22400D01*
X7700Y-22000D01*
X8400D01*
X9100Y-22267D01*
X9700Y-22933D01*
G01X14000Y-30000D02*
Y-22000D01*
X16400D01*
X17200Y-22400D01*
X17800Y-23333D01*
X18000Y-24400D01*
X17800Y-25467D01*
X17300Y-26267D01*
X16400Y-26667D01*
X14000D01*
G01X21900Y-28934D02*
X22700Y-29600D01*
X23600Y-30000D01*
X24400D01*
X25200Y-29600D01*
X25800Y-28934D01*
X26100Y-28000D01*
X25900Y-27067D01*
X25400Y-26267D01*
X24500Y-25733D01*
X23300Y-25467D01*
X22600Y-24933D01*
X22300Y-24000D01*
X22500Y-23067D01*
X23000Y-22400D01*
X23700Y-22000D01*
X24400D01*
X25100Y-22267D01*
X25700Y-22933D01*
G01X71500Y-32667D02*
X70500Y-31333D01*
X70000Y-30000D01*
Y-24667D01*
X70500Y-23333D01*
X71500Y-22000D01*
G01X80800Y-25733D02*
X81200Y-25333D01*
X81500Y-24667D01*
X81700Y-23733D01*
X81500Y-22933D01*
X81100Y-22400D01*
X80400Y-22000D01*
X77700D01*
Y-30000D01*
X81000D01*
X81700Y-29467D01*
X82100Y-28667D01*
X82300Y-27733D01*
X82100Y-26800D01*
X81500Y-26000D01*
X80800Y-25733D01*
X77700D01*
G01X88000Y-30000D02*
X87200Y-29867D01*
X86500Y-29333D01*
X85900Y-28533D01*
X85500Y-27600D01*
X85300Y-26533D01*
Y-25467D01*
X85500Y-24400D01*
X85900Y-23467D01*
X86500Y-22667D01*
X87200Y-22133D01*
X88000Y-22000D01*
X88800Y-22133D01*
X89500Y-22667D01*
X90100Y-23467D01*
X90500Y-24400D01*
X90700Y-25467D01*
Y-26533D01*
X90500Y-27600D01*
X90100Y-28533D01*
X89500Y-29333D01*
X88800Y-29867D01*
X88000Y-30000D01*
G01X96000Y-22000D02*
Y-30000D01*
G01X93700Y-22000D02*
X98300D01*
G01X104000D02*
Y-30000D01*
G01X101700Y-22000D02*
X106300D01*
G01X112000Y-30000D02*
X111200Y-29867D01*
X110500Y-29333D01*
X109900Y-28533D01*
X109500Y-27600D01*
X109300Y-26533D01*
Y-25467D01*
X109500Y-24400D01*
X109900Y-23467D01*
X110500Y-22667D01*
X111200Y-22133D01*
X112000Y-22000D01*
X112800Y-22133D01*
X113500Y-22667D01*
X114100Y-23467D01*
X114500Y-24400D01*
X114700Y-25467D01*
Y-26533D01*
X114500Y-27600D01*
X114100Y-28533D01*
X113500Y-29333D01*
X112800Y-29867D01*
X112000Y-30000D01*
G01X117400D02*
Y-22000D01*
X120000Y-28667D01*
X122600Y-22000D01*
Y-30000D01*
G01X134000D02*
Y-22000D01*
X136400D01*
X137200Y-22400D01*
X137800Y-23333D01*
X138000Y-24400D01*
X137800Y-25467D01*
X137300Y-26267D01*
X136400Y-26667D01*
X134000D01*
G01X141500Y-30000D02*
X144000Y-22000D01*
X146500Y-30000D01*
G01X145600Y-27200D02*
X142400D01*
G01X149900Y-28934D02*
X150700Y-29600D01*
X151600Y-30000D01*
X152400D01*
X153200Y-29600D01*
X153800Y-28934D01*
X154100Y-28000D01*
X153900Y-27067D01*
X153400Y-26267D01*
X152500Y-25733D01*
X151300Y-25467D01*
X150600Y-24933D01*
X150300Y-24000D01*
X150500Y-23067D01*
X151000Y-22400D01*
X151700Y-22000D01*
X152400D01*
X153100Y-22267D01*
X153700Y-22933D01*
G01X160000Y-22000D02*
Y-30000D01*
G01X157700Y-22000D02*
X162300D01*
G01X170000Y-30000D02*
X166000D01*
Y-22000D01*
X170000D01*
G01X168400Y-25867D02*
X166000D01*
G01X173400Y-30000D02*
Y-22000D01*
X176000Y-28667D01*
X178600Y-22000D01*
Y-30000D01*
G01X181500D02*
X184000Y-22000D01*
X186500Y-30000D01*
G01X185600Y-27200D02*
X182400D01*
G01X189900Y-28934D02*
X190700Y-29600D01*
X191600Y-30000D01*
X192400D01*
X193200Y-29600D01*
X193800Y-28934D01*
X194100Y-28000D01*
X193900Y-27067D01*
X193400Y-26267D01*
X192500Y-25733D01*
X191300Y-25467D01*
X190600Y-24933D01*
X190300Y-24000D01*
X190500Y-23067D01*
X191000Y-22400D01*
X191700Y-22000D01*
X192400D01*
X193100Y-22267D01*
X193700Y-22933D01*
G01X197800Y-30000D02*
Y-22000D01*
G01X201600D02*
X197800Y-26934D01*
G01X202200Y-30000D02*
X199500Y-24667D01*
G01X208500Y-32667D02*
X209500Y-31333D01*
X210000Y-30000D01*
Y-24667D01*
X209500Y-23333D01*
X208500Y-22000D01*
G01X8000Y-45000D02*
X7200Y-44867D01*
X6500Y-44333D01*
X5900Y-43533D01*
X5500Y-42600D01*
X5300Y-41533D01*
Y-40467D01*
X5500Y-39400D01*
X5900Y-38467D01*
X6500Y-37667D01*
X7200Y-37133D01*
X8000Y-37000D01*
X8800Y-37133D01*
X9500Y-37667D01*
X10100Y-38467D01*
X10500Y-39400D01*
X10700Y-40467D01*
Y-41533D01*
X10500Y-42600D01*
X10100Y-43533D01*
X9500Y-44333D01*
X8800Y-44867D01*
X8000Y-45000D01*
G01X13400D02*
Y-37000D01*
X16000Y-43667D01*
X18600Y-37000D01*
Y-45000D01*
G01X21500D02*
X24000Y-37000D01*
X26500Y-45000D01*
G01X25600Y-42200D02*
X22400D01*
G01X30000Y-45000D02*
Y-37000D01*
X32400D01*
X33200Y-37400D01*
X33800Y-38333D01*
X34000Y-39400D01*
X33800Y-40467D01*
X33300Y-41267D01*
X32400Y-41667D01*
X30000D01*
G01X38700Y-42333D02*
X41300D01*
G01X46000Y-37000D02*
Y-45000D01*
X50000D01*
G01X56000D02*
Y-37000D01*
X54800Y-38600D01*
G01Y-45000D02*
X57200D01*
G01X61800Y-43400D02*
X62400Y-44333D01*
X63200Y-44867D01*
X64100Y-45000D01*
X64900Y-44867D01*
X65700Y-44200D01*
X66200Y-43400D01*
X66300Y-42600D01*
X66100Y-41667D01*
X65400Y-41000D01*
X64700Y-40733D01*
X63800D01*
G01X64700D02*
X65300Y-40333D01*
X65800Y-39667D01*
X66000Y-38867D01*
X65800Y-38067D01*
X65300Y-37400D01*
X64400Y-37000D01*
X63500Y-37133D01*
X62600Y-37667D01*
G01X72000Y-45000D02*
X72700Y-44867D01*
X73500Y-44467D01*
X74000Y-43800D01*
X74200Y-42867D01*
X74000Y-41934D01*
X73400Y-41133D01*
X72500Y-40733D01*
X71500D01*
X70900Y-40467D01*
X70400Y-39800D01*
X70200Y-38867D01*
X70500Y-37933D01*
X71200Y-37267D01*
X72000Y-37000D01*
X72800Y-37267D01*
X73500Y-37933D01*
X73800Y-38867D01*
X73600Y-39800D01*
X73100Y-40467D01*
X72500Y-40733D01*
X71500D01*
X70600Y-41133D01*
X70000Y-41934D01*
X69800Y-42867D01*
X70000Y-43800D01*
X70500Y-44467D01*
X71300Y-44867D01*
X72000Y-45000D01*
G01X78200Y-45267D02*
X81800Y-37000D01*
G01X90200Y-37667D02*
X89600Y-37267D01*
X88900Y-37000D01*
X88100D01*
X87200Y-37400D01*
X86500Y-38067D01*
X86000Y-38867D01*
X85600Y-40200D01*
X85500Y-41400D01*
X85700Y-42600D01*
X86000Y-43400D01*
X86600Y-44200D01*
X87300Y-44733D01*
X88000Y-45000D01*
X88700D01*
X89400Y-44733D01*
X90000Y-44333D01*
X90500Y-43800D01*
G01X94100Y-41667D02*
X94800Y-40733D01*
X95400Y-40200D01*
X96200Y-39933D01*
X96900Y-40200D01*
X97400Y-40733D01*
X97800Y-41533D01*
X97900Y-42467D01*
X97800Y-43267D01*
X97400Y-44067D01*
X96800Y-44733D01*
X96100Y-45000D01*
X95300Y-44733D01*
X94600Y-43934D01*
X94200Y-42733D01*
X94100Y-41400D01*
X94300Y-39667D01*
X94600Y-38733D01*
X95100Y-37800D01*
X95800Y-37133D01*
X96500Y-37000D01*
X97200Y-37267D01*
X97700Y-37933D01*
G01X103800Y-45000D02*
X104000Y-43267D01*
X104300Y-41800D01*
X104700Y-40467D01*
X105200Y-39000D01*
X106000Y-37000D01*
X102000D01*
G01X113200Y-45000D02*
Y-37000D01*
X109500Y-42733D01*
X114500D01*
G01X120000Y-45000D02*
X120700Y-44867D01*
X121500Y-44467D01*
X122000Y-43800D01*
X122200Y-42867D01*
X122000Y-41934D01*
X121400Y-41133D01*
X120500Y-40733D01*
X119500D01*
X118900Y-40467D01*
X118400Y-39800D01*
X118200Y-38867D01*
X118500Y-37933D01*
X119200Y-37267D01*
X120000Y-37000D01*
X120800Y-37267D01*
X121500Y-37933D01*
X121800Y-38867D01*
X121600Y-39800D01*
X121100Y-40467D01*
X120500Y-40733D01*
X119500D01*
X118600Y-41133D01*
X118000Y-41934D01*
X117800Y-42867D01*
X118000Y-43800D01*
X118500Y-44467D01*
X119300Y-44867D01*
X120000Y-45000D01*
G01X134000Y-37000D02*
Y-45000D01*
X138000D01*
G01X146200Y-37667D02*
X145600Y-37267D01*
X144900Y-37000D01*
X144100D01*
X143200Y-37400D01*
X142500Y-38067D01*
X142000Y-38867D01*
X141600Y-40200D01*
X141500Y-41400D01*
X141700Y-42600D01*
X142000Y-43400D01*
X142600Y-44200D01*
X143300Y-44733D01*
X144000Y-45000D01*
X144700D01*
X145400Y-44733D01*
X146000Y-44333D01*
X146500Y-43800D01*
G01X149800Y-45000D02*
Y-37000D01*
X151800D01*
X152600Y-37400D01*
X153200Y-37933D01*
X153700Y-38733D01*
X154100Y-39667D01*
X154200Y-41000D01*
X154100Y-42333D01*
X153700Y-43267D01*
X153200Y-44067D01*
X152600Y-44600D01*
X151800Y-45000D01*
X149800D01*
G01X157800D02*
Y-37000D01*
G01X161600D02*
X157800Y-41934D01*
G01X162200Y-45000D02*
X159500Y-39667D01*
G01X166700Y-42333D02*
X169300D01*
G01X174000Y-45000D02*
Y-37000D01*
X176400D01*
X177200Y-37400D01*
X177800Y-38333D01*
X178000Y-39400D01*
X177800Y-40467D01*
X177300Y-41267D01*
X176400Y-41667D01*
X174000D01*
G01X186200Y-37667D02*
X185600Y-37267D01*
X184900Y-37000D01*
X184100D01*
X183200Y-37400D01*
X182500Y-38067D01*
X182000Y-38867D01*
X181600Y-40200D01*
X181500Y-41400D01*
X181700Y-42600D01*
X182000Y-43400D01*
X182600Y-44200D01*
X183300Y-44733D01*
X184000Y-45000D01*
X184700D01*
X185400Y-44733D01*
X186000Y-44333D01*
X186500Y-43800D01*
G01X192800Y-40733D02*
X193200Y-40333D01*
X193500Y-39667D01*
X193700Y-38733D01*
X193500Y-37933D01*
X193100Y-37400D01*
X192400Y-37000D01*
X189700D01*
Y-45000D01*
X193000D01*
X193700Y-44467D01*
X194100Y-43667D01*
X194300Y-42733D01*
X194100Y-41800D01*
X193500Y-41000D01*
X192800Y-40733D01*
X189700D01*
G01X198700Y-42333D02*
X201300D01*
G01X208000Y-37000D02*
X207200Y-37267D01*
X206600Y-37933D01*
X206200Y-38733D01*
X205900Y-39800D01*
X205800Y-41000D01*
X205900Y-42200D01*
X206200Y-43267D01*
X206600Y-44067D01*
X207200Y-44733D01*
X208000Y-45000D01*
X208800Y-44733D01*
X209400Y-44067D01*
X209800Y-43267D01*
X210100Y-42200D01*
X210200Y-41000D01*
X210100Y-39800D01*
X209800Y-38733D01*
X209400Y-37933D01*
X208800Y-37267D01*
X208000Y-37000D01*
G01X216000D02*
X215200Y-37267D01*
X214600Y-37933D01*
X214200Y-38733D01*
X213900Y-39800D01*
X213800Y-41000D01*
X213900Y-42200D01*
X214200Y-43267D01*
X214600Y-44067D01*
X215200Y-44733D01*
X216000Y-45000D01*
X216800Y-44733D01*
X217400Y-44067D01*
X217800Y-43267D01*
X218100Y-42200D01*
X218200Y-41000D01*
X218100Y-39800D01*
X217800Y-38733D01*
X217400Y-37933D01*
X216800Y-37267D01*
X216000Y-37000D01*
G01X225200Y-45000D02*
Y-37000D01*
X221500Y-42733D01*
X226500D01*
G54D22*
X210000Y38000D03*
Y32000D03*
G54D13*
X32650Y23000D03*
X29350D03*
G54D23*
X231366Y91260D03*
X239634D03*
Y98740D03*
X231366D03*
G54D14*
X38563Y303740D03*
Y296260D03*
X46437Y300000D03*
G54D24*
X236516Y299950D03*
X260137D03*
G54D15*
X69000Y83250D03*
Y90750D03*
X82000Y178250D03*
Y185750D03*
X100000Y301250D03*
Y308750D03*
X110000Y301250D03*
Y308750D03*
X120000D03*
Y301250D03*
X135000Y66250D03*
Y73750D03*
Y261250D03*
Y268750D03*
Y301250D03*
Y308750D03*
X145000Y261250D03*
Y268750D03*
Y301250D03*
Y308750D03*
X165000Y66250D03*
Y73750D03*
X189000Y111250D03*
Y118750D03*
X218000Y31250D03*
Y38750D03*
X217950Y180900D03*
Y188400D03*
X215000Y281250D03*
Y288750D03*
X235000D03*
Y281250D03*
X225000Y288750D03*
Y281250D03*
X312450Y190350D03*
Y197850D03*
X310000Y276250D03*
Y283750D03*
X320000D03*
Y276250D03*
X353000Y23250D03*
Y30750D03*
X343000Y23250D03*
Y30750D03*
G54D16*
X95000Y110000D03*
X86000D03*
X95000Y120000D03*
X86000D03*
G54D25*
X226476Y301913D03*
X264862D03*
G54D26*
X221457Y311182D03*
X278543Y316300D03*
G54D17*
X91250Y275000D03*
X98750D03*
X91250Y287000D03*
X98750D03*
X138450Y22900D03*
X127650Y125900D03*
X135150D03*
X127575Y187800D03*
X135075D03*
X145950Y22900D03*
X172950Y23400D03*
X165450D03*
X169725Y187800D03*
X162225D03*
X217750Y95000D03*
X210250D03*
X278400Y112200D03*
X270900D03*
X278400Y187800D03*
X270900D03*
G54D18*
X86950Y299500D03*
X86850Y310400D03*
X93250Y299500D03*
X93150Y310400D03*
X158050Y270500D03*
X158150Y259600D03*
X151750Y270500D03*
X151850Y259600D03*
X158050Y310500D03*
X158150Y299600D03*
X151750Y310500D03*
X151850Y299600D03*
G54D27*
X221428Y341241D03*
Y343997D03*
Y346753D03*
Y349509D03*
X278572Y343997D03*
Y341241D03*
Y349509D03*
Y346753D03*
G54D19*
X89000Y330500D03*
G54D28*
X221668Y354489D03*
X278332D03*
G54D29*
X254500Y90100D03*
Y99900D03*
M02*
